<mxfile host="app.diagrams.net" agent="Mozilla/5.0 (Windows NT 10.0; Win64; x64) AppleWebKit/537.36 (KHTML, like Gecko) Chrome/129.0.0.0 Safari/537.36" version="24.7.17">
  <diagram name="Page-1" id="aaaa8250-4180-3840-79b5-4cada1eebb92">
    <mxGraphModel dx="3298" dy="4464" grid="1" gridSize="10" guides="1" tooltips="1" connect="1" arrows="1" fold="1" page="1" pageScale="1" pageWidth="850" pageHeight="1100" background="none" math="0" shadow="0">
      <root>
        <mxCell id="0" />
        <mxCell id="1" parent="0" />
        <mxCell id="NnDqqMTRhE_hOVfQ4GXK-14" style="rounded=0;orthogonalLoop=1;jettySize=auto;html=1;exitX=0.25;exitY=1;exitDx=0;exitDy=0;startArrow=classic;startFill=1;shape=flexArrow;fillColor=#d5e8d4;strokeColor=#82b366;" edge="1" parent="1" source="NnDqqMTRhE_hOVfQ4GXK-1" target="NnDqqMTRhE_hOVfQ4GXK-8">
          <mxGeometry relative="1" as="geometry" />
        </mxCell>
        <mxCell id="NnDqqMTRhE_hOVfQ4GXK-1" value="" style="shape=image;verticalLabelPosition=bottom;labelBackgroundColor=#ffffff;verticalAlign=top;aspect=fixed;imageAspect=0;image=data:image/png,iVBORw0KGgoAAAANSUhEUgAAAecAAAKXCAMAAACPGXI6AAADAFBMVEUAAAClqq5sdXy1ub1bZGykqa1FT1jMztGXnKKdoqeYnaJ7gomcoqe3ur6Mk5ixtbljbHOKkZZ8hIp+hYt3f4WCiY+rsLSHjZNxeYDv8PHJzM+PlZvg4uTKzM/g4uTJzM+2ub1ia3Jrc3tVX2dsdHzZ3N7s7e/09fbGyc25vcF1fIP19vdgaXHb3eBXYWnp6+3y8vPc3uDO0dTW2Nv2rn3V19rT1dhcZW34sH72r35IUlv6sX/s7vD4rnzZ294xPUczP0n0sX/r7O5bY2tfZ2+rr7NFT1guOkXb3eDe4OI2QUsrOEKtsbX3soAoNT84RE1YYWrBxMdKU1xAS1S5dkqorLH7tIFhanI6RlA9SFLg4uT2rHglMjxWX2jR1NbMz9LJzM9MVV7v8PLl5uhCTVbi5ObEx8qxtbnP0tS3dEi3u7++wcXy8/QiLzpOWGClqa5TXGW7vsJRWmPn6Orp6uy0uLwnOUfGycz3qnUkNkX8toKKkJb4tIP9uYP6uINNUFT19ve0cUYdKjUfLDcrOkdlbnV+hYsgNEShpquUmp9ocXiGjJP9vYUbMEJsdHv4rHi8dkmOlJp6gYh2foUWJDCCiY8aKDNze4IsPUrGe0qeo6jzr31gY2acoaaZn6SRl50VLEDBeUqXnKI+RUz4+fn1toL4topWVFRweIBudn2+eU3dqnz2p3H8/P2wbkPkq336wJmEcGBmZGL7xaL4vYVtYlpESEwTICz5u5H7y6xJTFD9wYcxQU7+49TmsYBeWVXtr3/HnHZYTEfutYGcfmfZk2R1ZVrKfUvPoHiqh2t8al2UemVjUkkNGij92cQ+QEb9uofoo3OjhGlmXVfYonhhZmv80baLdWO8k3E4PUTinGzUpnruqnn93szBl3O2kHCkbUqvjW7IhVhOSEbRjF381b2scUxxWEn+59rRgEsxMzmMY0o0OEApLDQgJC1/XUjCf1NGQUEKEh/vu4SXaEoMIz38x4lYXGAXGiOEY020imzNmHIIChRBUV6Rcl11eoC94zWzAAAAM3RSTlMAx6yzsK6vr6HhwLuHy9GK7LPQp+Pn44uKs4joq56IyJzTx+3jxo6a4uTxvpHY2Nji6ukW3AdcAAEKnUlEQVR42uxdbU/bVhQ2ZQxKy2uBvowWSl/o3tt9mCV/WKL5kk5pVd/GmhJP8ras0TaxyXU9TfvA50QFpEiAEFKVtlI/ha+V9lPyf3bOPb6+NoFCWUkR8SPN9k0cJ+PJOfd57jlxteOOTy9enJ7u7+/v7e3t6xsYGxs7d+7cKcAHhA/3AD2LJ8L5Y2MDfX29vXCV6emLN7UUxw8X//z20Xdf//zrk79/W3j6fHltdbO2vtGsr1SZbnI38MqGYeRydgyVnGEUyoHvupxVV+rNrY31zaXl508Xfnvy8J/fv3n0pZbi2OF8z/3vn75YXltarYX8FgXBPjBcQIYrSK1TisFxgGsi2wO2uamz4so2sF1bXVp7+eLx6TEtxTHBjRszQz3D43NXr16vV3WkNSgDgFfJrFOyALhB5OOwEMQ4gEIcSC97SLterI5evTo3PjzYMzQzc+NTLcX7w+zDxYUXS7WtFd0v55x8FpDJZGADwI1CFpHZFYkn5GlZq1Qp+Hp1e3117fn3f//6e7+WotO4eeXSyNnzFz47Nb5Z24I4doNCznYsICjB86EgL5HPl+xcIfDNYrW+BRP3+KnPLpw/O3LpSirPOoVPb9+5NXV68pPRa16ugpm5JDIy8QNo4/kuArZ7IaJYbAh4BJk9nMZzRnBtdOKj01O37ty+raXoBGZvPVl4vlbbZgGmakTEp2JW8qvG4SM0koeK410vkZXIW3bBLTZrSy8Wntzq1VIcJebn+3v7xs6M1za2q8wNDLtkxVkOA/YeQMWvSscgvPDcLG3UYfIKdAnaURKXWdypFAJQZ/WN2viZsb7e/ul5LcVR4ObtRz/9/Wy1aeYUv7QnVogiQkiY4JcghLWFe9wA1CGlfEVzdAGVyiVQoFX49uqzxZ8e/ZLO1EeCvqnHy5sbK2bZsUhZy/yrgg9Jxf+EXXJCgxzCAOCuYNCIxoQKeDAHUArNl4rxeFIgnvNOgVe3Npcf3+85q6V4p7g0MzQ4PlEvmkHZqCDNiEw8+OKqyQZuDWGEg8DfCZe7rtpLiOWUQsEAxgXnJWI7g5dXwR1O1Q4IcY8X6xPjg0M3rmgp3hl6MV/zChAsEcWa4tgJ+ZUEuy7npr4TrMjknukKJneJbYDgWyye5bPhG9A2rsbzpYrZXHr8MPXV7wI30SiDT641i67hkJIiJBlGfold5FcwbEYcM8GoGql9uIGtKcBdASCc4jtXoVwuQltlcJqnnYIL+Xv83IWzl7QU/wvzt7/6+PQk+OQKptJw2lR66242XxJL1B7FLotQJDAiFPa7g+EpFOL0GhZB5wA38ERsOxDZmSiFZ6TXAg2e80evn751Q0vxfzD0cGG5VodIbhdGGMlAslHwPC9wQz53gDEVz7uDsSTPCvgSWQhBrsX3TFnsSOzbQbH2YmpAS3E4XJmeHRibrG1VuQfKS6VrCClhaCGWDCoqUiSHrCUh2dT3BFObJPQQkMxDsolrIFtkE+muLRvk9ydzpwZmp7UUb48vv1l8tWHaJQoiMskAytaW5cDaM9dZPP6OAtEEgJHt4So6arN7Dx48QKIjD+/41aXF71I//fYYOP18tcnKlCwRFEPC1mDNuOz5XE/E35GAEUinibDGFG4J804QPFuGX199Npj66bfCxZmeMxOjuoulRrkicg+RyaJ3LYumAFJdeudAbGMOL2ACD7018QxysOCz6+M9M5+mq6EHxeUfIWPrdptVRs9qw5zsmrrS0x0DY1Lbma5I4HkSC6rckfe3lhe/uail2B9XLp0dGF6r1Xm5FBUYQp+M4lqFMkHvIFgEU7StUMU7VvDI5nh988VUb+qm98X8l7fALnsGJEZllkXChqK/53OT2H2fYKHL5j4WzPKkG+4KSZZ3coG5PvV5uhS6D0Zm/ni6Wg+sLCJWL8bWDpWvmf5ewSIFHpSR6awMaUo6bPV+Wp9+M2YHP8LugUp83SuDTjmSXvp7D+eEBnd9SN+QvUM/LZbICnpzfHBES7E3zQurDOMDQBL7Af718qVc2TePQRzvGtZM9wu2lbkHn1VVqdnSVOqw9sSFM5srAfplJbCzFvbioVN+//PyXmHN/TLN06qeFdQnz2kpdsGVmcG5L65BaFBFirQNVPQrSLKpH1uIEgl3g7KdlyuyALvAr4+f11K0YebJGjOcKGPjn0xKbMyPxy2UFUJh6JZtKxuujiEc3hzXUuzE2PDmimeXpMZGki0oU3i+ax7HjN2evHUXvaBK3pbBR09pKRI4OzxxDXs385FfvpsvYXPlsVDX+4Oq2BySd1Y1Pzje6MQFLUUMZ9aLubDLLvwzWWCXUXwdO5H9hiVRxl2QF9mMTN52UJ3TUoS4PPDZB1+YZScjIOdlzNjHxCwfCKGd9r2ck6VpB+rSFe+LD9KIJtz4Z5mRyFY8WznP1Y+fX94XDPWYYWWElRaLY+VqmrrDIvNy07MtlbKzWJEKOqO+2BEEtRkYTj7qFqz4qRhD9A1/wjybfuZIjSIgv4hl/cjB2JEQDQ4rTN1ZmIC8q2dSHz3wqlnGSFYpG5Y43U6JL+rfFs2/JmzVYXIMeDszzQulPPGMTOvrw1qX49zctmtnoopFJk/BzDq3LILaieu4MXFr0iFjybH5dsJb98sVK5Oh7rF8Qb/ezUugF78cGr9+LYc9GYJnrDA7hqgvd0h/mRzerKhzrmOyDQ+L4jA55uZbW2kPiL5HYsyy+cRU11avrnz+z/Mmz8VasjOWYwQ66+AiJ3c5Q9OrFxWvODaLbTwfPIVT6sZV0GhpzKi/HNS6EzeHptaaovk+pDlrOWCmzM41A2EQH5BnzN784CmcxJhXycsFE9tfmeztyg6T+R8WNnyjBK5Z+qk8dEvqnaxX4Dx6UJ5ZdCo3Dzzvl53sXSpJg1Pcun+nC4m+NHR/lcHULJU2BnPZ553S2aSwBM+tVou7Sd3VaDTUmDbq0Iz2+0p5H3w0iG7qMSm+/Lj7puj+oY+auoF3JJDrXxXPd/WOyWyGPOoiSBuvG9wlH4XMwkHj9etGS44V1aEkNzHEhYLbN1uYfsFRfQfbk13noi9/9axOzUFUZ87kbS/qwTk6qBBkoajW3cbrf183KBmbpLvFQy0xplNU/k5IM6XL9hbdfg67fjMIOxj9TOsujAyubbmyBIndXyjAjlh/ychUb0DUmhDPpuSMvFYDHwpdlzy30WiFvhp4ppP302UMwL1KKUuiu5Tz57oroC9PTXLDju4IAfay7NLK1FFCRqIuGWS0axVbehiUgkQOgxYMKZNTiHNM5WqJjBPf+1prnBegcTVctLcqo8N9WvdgZOrlCnUH0U9WrEpH1jkZOSNa51Q84xcsfoqKz5BSPM9Fnk21uhKX5jziH9BevOJYbkWecf2zNtw9LaCzgxMrgRVOzdg0gqb56PVXSAIpK26qvK2z2Cl7vJI3IG8rqZ7gGUJ7rxQuZokgB5lbmCvLK070dIu36v140y9ZMpofwLQVdKIvG4Nwl8VN3XXN5ClF1lZOTkprttNqy6sqa504m3s5C77PaKKdSvXZne74IfzZwaWVXCb8qQUqMCPoiGlmplz8QL/Mo6B0XR7jmRJ7PAPTaIf1FoJObd5krVlRFCnDe2yU3KU/uuLWRJcHJ/RyKbwzAbrmsm/qR520iS7imWZatMu78CzAaN6Wj+ysg0dktvEtZ4HkFI+zu1HKZojocvNVN0ix2cU1XfwvhyudlXfcHJQsGquxTLZkjpFoU5pjzuNnczcyx2qcIDp8aI9ZgOM4aa1ZEdsowoVumzfPaCceI4OrK+XoLppZ9FPv9IYETEaUCjM6xGQdFpUb5JcRUmS115mVOY6HpnwqUnEN4arVWG97NfEMPaAW8Vwq8LkTf1ei/qkJeXOouwDR6vfOOFYKSfAcKyojE69ltjZ1MT+HK5pkmqQZlv0Fchy92kzwHPnnBly1FXdpevhqdGMU13L90yjJ3+k7o6dntBONkalXVSsb3XsVk7Z52FjeIzm34qTFecZkrRPCzEp7RWacKRzHD3fMBiZHNSevGo6LrdhXAw+jeMY3CuzQRGcy5trirHaCcblnsh7kZYsQCG3vf/T6JZmhQ1zBVHm7BSOmx59SL0UG8HUhz3ANeL7xhm8UV18FkuqQ/Vt0VXpeHNLzbVKMMdHqm81QS3ewsXySM/f0Vy9ZpRRJMJioyKseunLMd8ohF8MrCjrUW0qX4V4hHHLXlSuX+NKYqNpbZNFYlTrCy5G6U7mF1DxT5gqlGPUFGuyTE9zPfWno8bpnRa0j+UrAEIfV1GSCi/HmPU6L0BI4MPe5DsfisxDXeLbM11KUNRoUmSKI9WR9Es+PW+sWjKUIU6m9pfpW/IKdBZ4BtsdObj/3/NBHW2ZF/kYuU4K5+dBTs0mMtq1NADExZmG0L8/EL+xQOavQl6lePJb0yxHfqLSlRFPvppbEuZv41pmub1jhbVacwvW+E3o3ovm/ftuC5hFa7ETfHFDl6JA8i7Rp0kA5XkDipAN0+JhKn6kXxmYBvCpX+Tqx3tlerEp+IPqMCp4j/0mW/PbjEyq5YX2k6JTy1DyStSoerS8eCkxViAHKByPRO2zuvjxjPLfasgVmXIpnOAbI+jMzuZLcJADbeFYfiD5jBIYtByHPxaUe7UTi/FLds2S9GXyzWa0WD2+ShfAxd0pvnvijhwl3f6JbZhtP5IuBbMrZqv6s6tFvaiZhu7WGMtHnSz/RyPv/cXdlsW0VUTRsYt83se+IfVMQfomQbSU4yMU42CG1QUFYsoDwEYwRllKyCMklLEkIRQiHsLRExZAiqko0HyEi6ULT0kppaVFbiGhLK6KKjxYRiGh/OPfemYxfnKUYw8c70Ddv5o1r18f3zt3mPafe5+D4xYkw+81UChbGUyVeL4jnCmB6PUKlLV1UFDDP5nbOU1FxpSWE5/l8PvWBDM+0u84tPJdVX+NIk/v8a5K+IHtUqASLlCW4dqognlmc8pWvKuopEs9wvVl4iTK9UADHvBoIzFRTWiIlRNh0ct3pDqz9PO3CyohfPOeHPbLjojAC8o0rDOmwVAVQxHrBXA84Nxqu7Kz5fovaMLTvi/br/RkNF958RYnDcAriYB63QsSHfHPhpjbKAjSjhmftHBUVhmcDk6SYm+cKo11s6wvq9t3CdNnbjzrtvpAnnHVOQ1g9UsIPmjnfXHgS2bY8CuewmHioqBA+Z/wY/K6zv44onv5SMeiSvl4VLIm//pbD9ltd9fw7oak7RUV8sMGAyoKCYCbzYCe1Ug39P6ict3hbXO7K6akPmNzZgdEFXCoWrn7XYXno4z7ujGutHeQUFVCQeOXybBMXUwEiPdPiqE6LCyHYKOf8q6yo7aUmMLknW3tlX10kVuGwPPTp71Yj5SymdjhW8a+WS81z/sppJKsSMC3myWmx9fmUsTXbRkxcNwlSnIo6wgpGeptKAs851VHPu7oGKTnwDM8ZqchEYUuz0YUVKvw430PHhFwpzmYNUmT7DJ9hVp4rjE/Pprk26OiQ8PnVXQ48C9+71zkm9xnH34E9g2KEUWlngSV/8p1Szrd6tkJpAZ/a6jdn9Xh5fmHy/L18kMoZ9TbFO5XUVyie8cG/lzek+5aoPHT1S887pt7gjFMvSARBMz++BKZ2oXfCZwHKyfFWA9NMMYYhjvxcg5n4KPCz2JPNM/FMKU75cemSQRoyeWhdb7DkVces0Ke893aDqtT2BH0JNk8K+WrBiS7HEkBc8qVT/wKE20SSHig6meA2l3NBReGplPzsRz7PFSYlItFx5TAkUCD3MPNc9vobjrk5zSkfvtvg8Wiek3UJ/eQDw45u574dECSP/WQZMlCTFL2JSYB4bSDE8GTghmxM2snJBkGSpiToYOT8nxEOnjl7NftVk8vmnwRlxvVWLtpXRzx73PHqTsfskz3lo89iqu6P9lHhkSExvmmn3WiSdi6VbQwZGRIYPS2PbY6VhbJDWXrgp0Zra7a1lU/Q8uPbZUoDDsQ5Pot694JCZfOD64sqJWKrqsjLgswz3VnpxBKH4Oqn30l4AHYlwmVgIBSKJRMEEScRxRzizdF4Rzkuk9oOIWKj1uBE3eRksgH04m9vzcbQgk5mF/3WVmYdrU94xpRQiMZjhKR+TrTxvo8tQzG/CjA5FpMmpeUnFpE77gfDoROdsh/6iic+vs9D4NB2mL5ofNsxBsQpSYul+aJtTq8c7Llc+Y7lRaKilXLOxkKgUnFL7yEdADQrgGchm0AtvSSkPkmd3fueP0pyzKYFaLYvP6grUQ80Dl9/nEM8qxvvPHVxVJ7MjWohItrni/tYvOTR6wkNqDWAYwt04FM6SPCrgoWfQKswkExOZrXohlg5tw4MtAp/hmcDmodBEC2Ix+M+eYlc5l8cL6H/SeyMVbbmOayfLxvsfPWmEmfgypMugMvoUUWekXiZAvMcIlGymUegG6YaTolXEDr5/vs8CmIBu5EFYWSa1a+GhLXMwE6zedeQEm5A+jwQIpkG2Eos8h1kjQPPZKuHaBDP/oVvXVTiFJz3dkVUeKZSRyLXmElK1zJjWcgnaVEcsmwjkU5uGBqaVIYzxnmKLK6gZy748ofkjXEI4aA/gz6FaBPloJuYrgQfxeQZfyWRLffbT4bCEY/aD139ymUlTsFxH39GexEYngi05TSefUrJ4qAHASYcp6KcQYH0powqWehnB+tzG/NacrVqF8hqjj8DA/zXxcQGL6480+LPPoM85yoe9as6sWTnBSVOwVXPvlGHGJDAH4z6bF++EObLEW1eXFlq+TrAKl5dFLTOxTBgWg0sxWpZDoejYWqwQOOcTn0CLd8NyscvFrTZIaVDDSH8poLuNG+q81VfU+IU3Prge4vloVTCdNjIoT7TAqblm/tyaoQdvXl1s9HEphUMDAyECdHe3mCwt7c3Go2iE8Ep2rhmWcA+fjF5Fgcdh7oG+c31etKcnoz6ritxDC4/7sLXk1S6re/vSN8ryZuhCq065PMMotX4zNKby7wGCy3xSAgOAmTyc4sT+t/vDwaDfgZGaRqY5w8GyDrNeyqL+IQUMJ6Iyb8x6s+o7+I6B23Bufqitxb63QLZAhz22ewxO1Xm1IzI0SCE/wj2vwVqWYSWuc0AqVRjY9sUGlNAOpNJp3FAk2GkBJnBQf4JChPs83G9X7GYhtJOQGkTfGG/dqFjFzjogeBXXXSLL8LPv9AiDaJn49mc2XmebTXOkWJWxJBT4jgNhonijhyA6AWcK6qSQ5UHyKQbBam0x98LogHyq8E01b4Ur9oI0qz/xeGgdqHLXnnRQVtwTjoLm+gMzxBp1pHabprfN8IsPtiEFyDhhXYeZIhoKilN8/v4sQD39w8w9gNrbdhCQIsL/b2jJGMi1KCZLcGGhHradFFuqEHS7JMVK44tSMKz793nnFT3edKrS5LaFJNgt9KRefp7DuPKPjUOhiG/JJGpRhHbpUBHB0lmOu32EMGt2aHt21dv2PDtt99uOKTwl2p+VUB/fBx894+6UyTWeGGctA1c6hjCZMW4ISXdtxvhAPpt8orlQ4xQeI53vuaous8zUdwb1260fviieDTzsyzyTDPZwhKQFYVvC0inU0wQGtAbhPjC7QbBxO+qnZs3r1//HeEXjb25oN7EBNge37J2/6i7Cr+Q3fTJOHQSIqLpFhWFwezeqiSlHdI886OihefwwnfOLXESTjnrlcqwCLQA4d2IMBY2bBun19YHx6KjoaGV3cQraibDvxg/lDNxOwRuV2tqN23ad+TInl0/rVmzZiPhKOPAgQM//3z4cF9fTf3LjPqampr6emJ/4tdD41v29/vdUP2DEVBNujtGAVlONhcA3l0tRYGJGMdmAfnNIqLA61ikzmn3mTrhoSUhrbnlhkNo2cOJCNH5Tq/px/t7o0JyG7Qz8McfOMCwqnLvHu3tb81CeFft3LkZ9O756eiOHdu2jQ0Pr/P2eJs+AVqaCLW1Aav08c+3bfvhm28OHDw4sqwLWNbdPXKQMdK97JeJX8ez/Z42IO2P+vDekq+efL8wu1t2V8NvxlNkWyngZhAPuuX5k7FKpz1n9ISzblmcwGZ34dkgkxlksA/LatkAfXGA3VXKvIKSTmsRzg5p5QwB3rRvD0nvxh0rVq4c67ECQu2ircAiQgv+1Jbf/+bjY2AaVH9z4OeR7u5ly8C0RheEGvob6ps8rwiULNsP2cm6+wqvL2K/uYFWe5uRGXEDXDR3jVOS0MaP/mBJdSjqFoNML9Xk4XYA5N5mZkAK3pHyitJkQhO/oBfssviyaj66ceOPP65YAYa//nrdOq/XCgQW1RLNIJrpDQQC3CsvL3dZ3p6xz1msocMPd7ECr6+HaIP0vhpQfWjLfn+6rS01GGH3jysjqhHoKGh9Bs/kN093DOmRsgSojXOOu6TEWbjhplPPuS4WpRvpE/TDnRpFFUMNExqnwF3oaX017RGOsQRvJvHdRQp6rOeTT7Y2Q2jbv/qqnQ5fQX5BbzPYZTC1ltfrDUgHmpwpt8bGwPTPfTUvf0F4ub6rj1X4SNcXv47v393Y0ZaCSPvIxqfwmEqK488/DZBAaYfygrTQa8rviCx+9AWn3cL30jNuO/76z/C4n6AHogkN3JsFa6uHsgP9/b1Bv6LfQL4JcZCMDBPFMK4gwSuHx7AEN0Fkm5ubWxTAMgH05gAyzm15OeS8qRzXA97hMV6qySwToYZIA8u6foH2XvvbboqRgWmdr+Q08vtAxTFTzMkqrM15NJMh5lfPwan88F4n3sL3uFdfua8sSv/GVFtqYMPmI0ePfLdz1bertw9lWwcAMJ6L/lYimPndt+soJBja+WvSzut+/315U1PAFahVCAiYTHBs3S8oLbVc6JeWllLPxfSDZ6J7OTT4mOjvvpdFpkl9wyKr3wuZTkOjZKC7YzFmmlwsLto9ZprlOf7koM3Ac4S8TE5Cv/WUQ6qHpt1I7LLORNzD+jqV3blvR2Dlxl37vlu/GWRvAFav3o7QBrCdWsgwU8wWFuyrAFlW7e3tUNR0yFXOpQr3lwqvUzxz3+IBnLqYbehvKHBS4aVgWutvFupuUt41RPTuBR0pdzCsgnGcrzwGnlF/LCdUuZ2ISRQ1j+c4VZUw0Yl3XnTMvgwbzr1gYYyUVtvSxqHNu1Z89fvXK37cuGbNT7v27Nlz5MiRTbnYt4+N6B/JxhoexhorlhWJoyhokk9NswtsMlwAMY0ByzL9UvRcRDyIBgKE8kDPsDB9uObll8F0PStvGGSwx35bsKAxHeSsiypnq0Pl9jxFZGxkV6J9H2WoMfKZSZzziY545P6AySXPOfSW3Oe9W0fPzCWev1vz9Z9//vnll5988uWXXy5fvtzr7RkGetDSiRdDuAK0AM3NQi1zRQyyGmbxBJuqZVgswS5Q6fWWiurGJRhj1v3Ms3ohWpLrpgAJ9QEl0jV9QPfISNcvv26BRHekI1yQDL4oMV2t4phzl2xTvvl9VCpKZGQm+GBxSx13w7sfOmb/zTSeO5NBRBgbO9wbjvz4+59/fgUN3Mx6WJgUmeVmK42Rnob7C4hnBJ4F4A8dCLRLd0SiLRlCN+C1wLNlcd8intFgBvrEM6YEwHNtuXcYRP8Mg4ydrBq2yJbt/WvL/ip4e1DduvSI8tIU81ZuE/tNgO5VAt/zJhvUM2Ylgy55VDskOcnyjP03LzmU52srQ/6qNIKX/at+Wrnuq/aWpgAg9NYaoAuAWTaaAnodBsSsAm+Wdb+QKz2i3CJpVnyjHwhYJM3ct9BhivWPgqeQZ13etFy0tyhvcadH+n6ZGN/vTrWlg3GfKQwl7a321WgVbfQ1BPn779+HkY26RUXzbAgHJWIUr1zimH1WdlyTjHuQH057spt3DAeaa1kaIV1Eo+YYp+wEi3plSQRseprks1R19BRmVIYANVXbZdxaOBjVzqN4KzbKeiDTh+uhvEG0sscmxvurlrZV9bLqllQ3qFb1v7yphlW40deksSUFGQfmytLEI+JERhOdDioqycH52BLtSTdCTIbWr/DWLlI8u4BcnuH9EM2sX0USRXbtZtXUkAVIxyhw07f4d8KtvJZGzSQs00CgB6ETYlqcaazRI5DotVXIcwZ9IUCW25AuFuRNNUae0ZN9BFTsh6k8eU6eect7NHbfeQ40uK+84bLrECdJt3VkerdvGobVLMLnYkk1PLuoU44hGQ+4eIqSU5FQjGiNjJav86jpy1VZmUlj8Il4W3a/mt8aVIPpA30QaXGlKWiyd7wfHmAmygUwwp1PpSwBEx4jiplj2SSiKhjn4ZnKW7C/8MKbbi1xGi5/5qM6vx88L3UPbNi3busipUaJTzCjgVGiWPOPvhhTNp5zTDCjz3Vf62vhmfk1PMuo4VmIboZDPvYDe1j1NfUs0gf7JmCMdaTgXZkapQFKPvF+QBhlGrRpxEjysfOMUuc3nrzrxhKH4eSnXkogwJnqWOrPrtqzbmuty2IeWPO6DLhnAfqCUcLaopIhMcm0vra1lrT6rwC7MoZGqQEclKsNBCj1UQpzDFETzkx3YZHuJmNsAVLSUXAju3tANKnvmGysToJfgPcCschr+ws0z8lzrx9OBxdcLHn+Tsc9jvDkZ99p8DDPvdt3/vR7e5M2ovgAynIlUDwhHtfCyi2PTw2JfBoJzZdrknYtvC4zRfWN6FvcbgPRUN0oQKhZdvBgd9fElt1wrwZlA6Cwp9deDMR4Sy7GZVjxbHOVZ+F51AOeKQX/6UO3O47nEx5YEhOe+1evXwOeLcMzDiJzTLRlqXE6FTrEExaeZT0WoplTS/HKB+nLFHGW+RLxapYA6tMUnOl1nmzvMSK6niHG2KG1o+lGCnVrPnOVM3tcptw8n2d7zwz3Q6AznKXtfO4m51T3TpUEvlvmdhPPAxu+27i8fbksnKxi+YBTkTUzpI4YUmRZroCIH08VTaxVNU/J75ca/uUHRZQLuXzQPwEX4iY9Y9/wIv0yR0wO1uw9tHZ3I5eYgFOhTpiWM70Rd67o10yBkl6/R/D6ew7k+bVOn/Dcumof8wwnGDCWlKXTENpZVp4vYC6Zvgpq6ilmqr01lyT+CXBfQ/+tVhMS2i0k0VN+dHfNL+OjjSk87kF4NjXldqNLxo+dZ0nEA4s/vtlxt2k+943FcUQHUOiV3blrx/LmpgB7POISK3kGWKMaebbZV9qPFmcYJpyGTJrZJLN1OJ9BXrk2ySxR4YQApUhIdWs/mrIav24Z3Q3NbSshB3c2nvVQCP8dE89RTk0CCz+6yHE8n//2fWG6p2tb49D6NStammvFDKKjhpJQItKszzwqk6RVThIfRDnr6/apprWPG2vOvj5zejrQs+1Ad9eUHz2y99CW0bbGwTh70XTQ1M3qPM3Pc5xuJcY8V750keOe8358Zx14XoCw5+pNO1YiTGIY0jDK1tjhwrMM5vMMsvLt7FlbnaL2KkPeZdf6+NWguqjnhwPd9eAZVndf98H6iUP7UXUQjRuey/4tz76pR5dVvHOq43g+cSFuxJJuXJDybNizksJhLouLelhtWlqN6qCkXW/bNLGxz1zT453mdEa/2gRMpbFPEd3dEqBM5RecvepDSgNJyqrGDGIaks4AwZpns7PvnzHtQwqainuBuiWXOY9nPPXancLuieCqoz2B5kXlyiwSM8hIngints/yjSntFNvjYGbeLC+xpTzuN7Psb2whV2aNfXOY8tHgGaWgfXvHR1HsG4yXGfv6n8A3E9FRtT4nP7vQacW9F18TQ406SsM8/TuPUqbCJepXmdzGKZYWTDCTOBoqhQ80ef6y9G1LvJ5qmGSezUt5TKeo9RtzpeAPB1AfSIWgVOVd/9fa0arGwaivSDwDXMzOpQavX+Cw59/ceNr1iOtWIVnlb928A1JTq/xgahRDJmhpRi3DNJ9y6+VQCiDVfkbhC1mKYhNCkSFZCNRLdcpaO+hiB0iqsmVMxcVQ471spG8CBWMdmQhnohlF4hlExxY6jOcbH3ugE84E8dybXb8D+WV7xQ9O8z1fQa5yNtZ4qVLCduVspkg73Z/ODcDJe+d/gMCirT3kXIFnSPWykW4qI1pKJjei2MXgGQDPBDxC9npn8Xzl3c+9jgL1NBJ9A9u/W4HVWcuYFqf789PHxvmdEm1pSSgl1WFehVaQO9UWHwMkoQ2DHV0tz0ahyFRXbbNFSUooboB4nhj/rSM1GI2zD223uwo0ucOKZ1/dOc7i+Yp7PliMGBDx3Lp604r2WpeONEtrM8J0a59i1md9Kd95MlOkVY1Z9VEtxHUqqi8XlYGgehay36Uwxeo5/IlgST3C3AvS2IxjePq3TIeDwnM8eYdjbt3LuPSR1xZ6PJR89mS/3beyvdaykWTNGLzEwT5Fk2mLlgLTWmtaay5JNJUgfYEY/Ayd0nD9gITGF2KKddUjb+XOKEusCEu0uX9FOHads3i++sW37kNRFHj2D+3c9XV7i5Wvb725FT8yap8i3AFoZw5y6in2Nm+qaHuv157VNvMCi5q2fXO45osvKCgGm3vv+G+jmUyk2DzLcwgdtSfj7AfeqMY/Ld2xNLh6/U/Ms92CssS4mubOmil2jayRb7rpKfYWTX5rstumlFCZYi1bsUIfJp5Rc9Ct8pODxec5Eq+47HYn7Zr8m73rjGmviuK44t5777g3amutLVGLVmuVai02rtg4444VaoGYoDjAGWOVqCgBXBEIQlBRUFEZRv8KcYt7RRNNXFG/eM49977zTu9rXXx68X7obd+777bhxzn37LPODdefHo0gPfe+PPv8iwrnoAzykjgHaWbUJUdGoMyjUn/2eiTg1sqCZlbamfRq07dqkfsHCjm4DYyf30IIUcdEDqSw5cU5mTr9oYP8FCK2xo13XkF8e2zukxnEGXDlOE1F3cg88YolZDtLgqwcCzmaZzZ98iO8oZxNnCj5r8x34edAulAL4WIXkPET/NAYzt0xkcIapcsiiqV03aFk42UPnOEnnDe/5hEMGiohzh8Bzmni02792eLTlfVnsbT6I+atPaM8Znu1+fMbn1PAwaMQEgjxBhFwZsRQhV4OnE19qXjmitvP9FPXss2vv64hEkH9+em3lxYBZ2SWRFAwmwhOSW5l+rOk5wBc9qRUm57pEs9BmsmB4thY6TLRs0qw/QAkMeTc6Mz4GEwlGD+0XPScQw801QW85mo/4bzFnkfFIpha1TEw/8dgH+AsnY+cISWM1uJElRqTy75d9UgnsD28lJX9mLAeBsb5gmqFzgxIgIe4khKE+KJfcllwNtnuDTef5CecN0bncz1kmzaD1XOwD1NuwgSxSaKRUNog2PK1zYyZnwvRXFzycmnJWeGcTndDmO/JBuePEed447Lh7NQRO+yui3yE87brXXdFKtKONd0W3hycKrakOX8GX2z9meN9/tlM2Tok2NmSmVzNH+wl6ULijZfQD30B4nwtJGfksXYMWD7/3bBwNhbu6y/3T53PvfbZ+tCGRrCGQQrd6O+QtY5pVE54R9ilP7soL1hObkzX0u8sZ6wghbJ82GIN4m3lmRalVxRBhdY4Pwimz8/adZuP5VCiGefY9Rf6B+f9D77x9FgG6pLAGffyR4kEoMxOZuC0rD/bFmoXCI6SXBW0cFbjzE+zkManPc+VcEYVGk2fgPPJgDNKx6llwjnGON9xnn9w3u/8269IKZyjY3PvtDo1gYzziTLPyfhI13kWLPlWlNLxatX4zm545afxIj4aVo8KKb0i31Ypm0GQxNBnBTjfBsEGUK99mXBuaHDhfOfR69b4Zex39c0NjUnEOfn08JJObjZkhHTMnoVqGm/g1qZsNzmdbQlKBmnL3eCFHmWFXc62F1tl6L7x+W1gK7ntngchvveF1+MTyeXAGfOzuJ5r7u5L/YPzPifdFUvGsZ5U78Dbzyuca2sTCTY/Gk+hNHpZlFebrSWc2f7FM8lf5JRAnKWqDdwcGYdjXbNn3g23SGC6PTBuzKuDcoGPfvtqb7w0ATj/6+FFz37D+fI7UnHAuat5bHL+D8KZbcoKSRFHAFc9ZkCxG4BEJNiuzTPJX5SaEw7jFd4NH+1Wj7pO+yozFBEMgMhN8UPgnCScKXVyGZAGnGG3duWBfvgG/+C863l3Yq2G5q7mp0enZ1w4a3ewp/BlmzfYVOrljApnm7phT13iQu7CUp5k9VVdWekWkLiVMwNw/mlZcDZAE871Cud7/YPz7kffrXFue/nNRSw/E+BYajI/2p5jW1ji8Gtv53KWFtCuYgknTisUbRHODhDH+CETJwbBBsuGM/PtekXPj9y3Uo1fxvaXPqJw7skPzM2+39nax+lsQTaCWbMtJnGcrx0sQkQoQ09ksjO9lQ5QPcvvokgEiBN74z1jEvvp1bFlwZk6RqDh0/RPuN8/OK973y0G5+FPHutsTbjjtmurs+wEa1cuvKR7w0qasqMSXDi7sra8VXCDcyEAjNvg/BXgXFoenM924Zy65SH/4LzZjddpnCff/kjh7IrQlu5j94wWD81uw6D/uvRp0oizwlRKe3jsxnmStbywst2TBipXhQAk1T1KphLwQPcSzv8NaqNX9ZJeFUnddKN/cF7p9lOTCud2qOuJOFuVvjxZdxiUXiJSfBt2s3KUu1AjZuGKt7Jd1TLv2cy1FfVn9pJ0vwQ4Y9Tnx1+9sCw4xxTOMY0zFJfyE85r3nwU4IxVmhamlwafAZyNkszpEpb+jOrRreSlVqQddgllhtqRA7uczcwl5G44KKg3QTgL73YF1yZRNUQPoQb9yscYIlbKLAfOhzn0HPEbzncdCn51wDk6CvVbAWejFNNZ6ejNPCsQUQ92MmW6cR1bpAOoEUs9moOxrd1uvRX+JSiFg00o9IitP6uLOk82+N6nYBK74J5vEOc84rwMSGs5DIe/+PZ61x+ZjGDSTfLlWYWzpmPDUaXHmJhyE9xLWJkyHApqPWqYt70b4hzmVB1vr3bQjhrFrbCa7xMa5+b8suEc8yfOd55OOPfOfbSIOLNTWA2pP6OuSyJYQpUL4kwZIWR51nsMsjZOczgLBwDizLvAANDZpeEW5dzyGVxOp9/4/IfbnnDo+X+cq46NHrlM4zy89NiLKIexJ4L4shDCDNnRYQpz0MN4ZTRdmWwhs3fI9RHURMy71IkUPEsbZ2UsXVAlxTTO7aVGN17/42zhDH2gI/UQNDQ2/MdgncGZzkDL78wWDw5F0CDiEktUZ2TsqP5EKKxwVktoF1a1mYwlzvw2USDTJ+HcW4Zz7P/zuWzshP0SsA3v029DECDqz6Z4I/mdRbwQlwPS9kueAR7DnK0IIMHaWfuGb5Bngz4YAlorV64PybedpRivr3C+9p5vICVjrJxvx/4LznEf4rzjkYfFS+B9zj89v/hBoqW1jzkpzGnBbIUkxTP7MTyXyDrcxq+RdYtyYaFnB4SCXsGfkWhVqdAK599eHcvnM2WQ/Uuc/ao/73h6LF5q7si3Y3117BhnOCmSIStLXAy/7BLNWgtjq6fIt1Fg0iMsytUlXDjzUnzYLOFbln6F9IxBJRBSsrw4+1V/3veKnMI5OjD9GOKcTgh/EpEq6dHEpvmSELHpGaN1CwuHwp2vq4ezmO2s7SO8VP/XmCV8y5pRDgs3gYkb7SSEc6wctP/PZzfOlyic2+OTiHMoVInphtjZRJe86z6yH1pYKnkXXsJ2TrEUH7R3sWbF/cHEDXZPwnnCAMvC2P/yNld83KAhFYdUjFJy8s1BbPdotzlwlV8MI161Rm8WS80S4YfG9cbtTLsQ4+an3H7nsBbCankXdUu/y5pUaBpUrPkH8FcxPYvxP87O2G2fNU+NNSLO2C/hub6iOwgQZ2O0NBpvloL9KodZw2pOqTXx2qI4Kz8t/M7Iwx1FLmB2MbcCKLq5zmvqaVYHeVYP3mNw9sLtf5zV2PK0G07NZbD/SWRsdHaqqIM9EyxkK6br4JylyExGyuKotAHHC2VFvBAOvs84c6sMvTu8t3DOZtmLTTgnsFRzVZxj/5/PCudj7ju0MYk4R6EvxlQr4CyZsgzWVuHXrO7qorwy0xnv03rnAcPypV7NTwdECwXri4NyK94lke4GDfqeB7HtpObbNnT/68+I80EPnZ6MI87xtrmP6goFW6Nlp7LMv5FKsa1HlxedkM0QxLfA9Sr+Z7okDHF6hCDP6vNP77mNcGY5TEL3L/Rn3+G86yE3Yv8TaJSeHJh7B3BG/ir8kQZC+uxqllCu+dKslxjPIi/RdaO4Tyxra6KKZNgqta/oXcQawy0H55ccnJPLhDPrz/6JG9r1/AegZAXWV08ODBPOqMCyLMxB2jK9EXEh8PCKrUfjVKuspEy86vCFV7v1JOPK+KpXtZ7iTSgajbN6DM6fv3Ibnc/JtrYK4P3b89k/cYDbnHn7FSrIoKt38u2lPoWzW+SGT7bdE2E2S+ySkGHLiKlx5mBO2UqWh+ye434Uh8yLJpzTb7yHOH9fHefYv8TZP3G92597zSWAcx5wXgCcWwrKFlkrg7a5+Bd7kGnWfNo4k4l4jaQkVnM2tWwuCMjTxlZ2XpAfVUKcFAyDGmdwZXz6oKHniuj9Q76difsN59UvuhlL0ADfHluYB5yLdSBqW0Uo+JwO2rfQX0zqbdYoRQHPpghGKXbvysXz7Xhf+aj5Yr6qcYYD+ks+n/810owzqM8aZ//kY0B/Mupb1TU2Ov/8ky196gT1sjXaLiqanQj86kmPxMLtFOqqOPMW/MX04uCchQNa4zxRDefYP8IZWJy/8qtWv+p6B+dpwLlYKe1FKsmCg1LQgPZM/FXGTMDO1qkY160Tf2Tot/sHBdKhLDDuez7+1rJv2xD+U3ou+SlfcpXzDM7Yn+zJFgzetvskWJ9l3VbKa+aKq39dzNFSju0EH6cVNJO8JHGTOg04sx+jGoT/TH8uTUwAzqf4Befj72jQOM8Rzkgy3uUjPGfQtg2EwjVNYBgXJxdztKqBGr25Qgkqo1dZXwxD/ZdlQeBmP8by4RydAHr2TT2DVY5mnGcRZ4RFSVYsbFeb0U+h+xtJ1zQlr8tiFDhVSqH2qirpcBHPL75VdZoPg8vqmy8Z5/+AtDyfsa17zjf1SVa59M7DCGfoN/g+4MzFJWTaS4UZhS/Fsu2+/R5yGWpHXlp59aqStLX1xYRzwIXzX6P4N3Gmuo8gb/um3tAqN9wtcIZ+wKa4hO6sL8mIncpO/E/QtChUWIT1I4kA3RL0DJq5SMbAfXSwtu0QcfzNYVug07k+CmiFs4rTr9zrBpsq0PS3ccYR8039sJXuFThj32dTXAiRdjedg0vCqUwSUtY4ETlYTLOEWpS/xSkfKMuLRa7frU2hdhAYx4fZvm6qkkFAP/7e51iCu7mSPYySmhvwlVp+/wOcfVMPcLX7HpY4M5sUONMl6VRmSTgs/c8O6/dKYsYXu0SRLaI7OAvl2dmlTt9Kp5vee6k6zjFEj17B2PUPcIa6j36p77naQ4/EyO458PZH77e2FpUtWWq89NYkQbrdxBwRJDOU6b7tZw46oUeG61PrE+9iFXIXZw7TBnQL6g5lGWdP5HKpRhiZZDKTacwh2n+Jc4ZwjsbPvvlcn+C8FvR9Vn6MjgFIfkacmby47qNNx0SsVudPJl4hlzFRBmgXzpvjEEHLj8G7iluceI3eUsbZWw4DmDMTExOl9nw+3x5NjuX+Ds4a5t5LrjnLLzg/QDh3dEzOLxHOwTBzWA7T4ohqkdnInQ2EH5rLZhuc2d6icA46rYM5sIFd2Nau7Hfm+CF8FOuUhN9gnG1SziQB5FIpUmrHAU0vqgONOOccnH+9/Uyf9MdY6/abEGdIx9A4Gz6NJyC+xRcTOR9ECTrAGemqQyB35rZaE5qZvdkmNZq5viuEO2xMKTjbuxrBHzYwWwYRZxDEfiB5u5ySG5MT+TyUIc6XonEc79bnse5+VbGbcY5Af4wbD/FJ3wQH5zzirO2eJDGzx5gzmrlfv/AMV7V3hoU3mzYSLWVtwc/O3qFhxQ8hzummx71xTiWhEwSMLijO3TsG4/X6DqtFoQ0z45w79P4j/ILzNdSvvzm/MP084szKMgytDDv0zBF7xJo1PbPcFrJm46qu0/TslH4UUSs0a3omLdtoaoqhGHqWP6TOG2ek1hicyiVk1MmxtsmF0blhNUbboiVsdeVN0ObplHZXZWJH3XeMf3BOqdYYUGL9+cEVyu5Z5vY1EUABd8lPW6etPmtTqmmd43ADaQJVq4nbi9Odz2f+IVqr88IZleRMvqOjK598emHu7enZ39/544/nn//jj9m5gd6OHmDdDdX0aAfnw06991if4LzhzYhzPeA8+uYM4mx5jK3gemab0iJZvWgjSVpCDreiRYMc94mf2YpanlhtbiHOBcaZbV+5xlJHV0dz78DLb88uzSwOTkFD4f5ienF2eKD5Z+yBVBnnmON+bjz7uvsO8IkctuHNpyLOxxHOrZT8LJVhNRvmyk5gfYmXVp2R7/IjnM0TZqsoIMqquH5KfxZ9cqSKni6Ebn38U8YZUI7FMhP59ny8bWFu/pN3AOXBKfSZwhic+WhuDDKAJxpx3V/hnLpig/X80ndww7tOzblxLpIYJGxP5R1AjRymU+tCf8m6iX7ZqayJEl65dK8W/JhbeGV3cJSSukT2MHBpMM7ItHOZEshb0ba5N995/7kXX+yDc+JWHOFQYmpqdgErE0/EiLtXwzkau8w/fYE3vN7BeXZmsFBg/ZnVVs50Zo+xmYNiKc3sfOZIQoWsXq1uWjgHCedg2ekflvZtdR+eZlsMFixinIFIc8kSKFNjk8Nvzjw21dLSUsCi7Iqe04UVK5beHoh3dQHn9sCZngectdXzSP/0+d7w+qNSBufFwdZCQlggmUmTWmtrxoKjyroU1LTbNEUgnM0jsIb5Nvftt02oQbs7Q9jNugnodwhnxbRTE0CvcSg9/M7M4FSQCkuni8V+HCtWdL4/O9zW0VXqBaAr+LViJuum4VT/4Lz2HYcanH9fnCoUEp6SlOmfYJXqrdzXpqmp2/ZDc3Ik2z35UdbOxW7SHgr8NyhZOwyDMzLtZL7n5+anX54dXLFiRSHU1PR4062hYv/40NDQOADd+dzMJ6P5ruNeH8t5a8+IM7Bt5Nxn37SJf3C+88hUNFKfby6NfrI4BfRsFZ0wRQoSnElBMxOnRc9c91E2RVCrTVFeUfeA7hI9m0vayy2Dhah6oEv1xmYZGme0gU0Az24fGJ59fqoAI53uR4hHRp5SY2So88XBpeGn4R87nqqEszGTRK54ZNPNa3wy1n74RMAZjPwROJ+fa2H92T1rl7SXiAWTdT7Luo/0lk9UFvDsEidGO4d37OUW9UnwTBfRaOixKmic0TqS78EMoo8ee64OeEMaQB556q0vvnhNjQ/fGulsrXvszdGxSE97o7dxGxi/wfmyu7f2D86PnN4YLRmcO1vSzCZtndVLWfaUs9lKKiVkKarbQZzC4R3OynpDtLGsXgQvgHOLwRktnT83YxnxXzrxZO4HlL947cNn1fj6668/fAqY+dQ7b09Gf+7I/BXO0dPv2HqdGp+MtR8+vTECODcDzovPtbakKyi/5PMVmqw9G3arqwvZTmTZjQE/SE8FvdK3mFYL0u+sQ5PUTMUrEOelYeV/RiNYPtI2/BH+xxZakZafeuutL4CQP0SsAee3gHPXPf/my71gLMnFvHE26nPkxLvW9A/OdwPO7YBzPcphgDPTDtMQUg+JPx76MdO3CBIx+hWiI01pQo+S2R2sndMCvYvtd+acEY3zQC/Eb6dKXT2RtrlPnvuxr9CyYnwEMP7ii7dgINQI9IdfPDX0TGJx6e22n7ui7IoWOOd6kxEaR97sJ5xPJJwjLwPOLQUbZ8qsMcqRucUzI6WVZi7aGSKc+RFjGidcGecyPZsM6TL0SPqdddyoxrmgcIa2iToM/ZlngD2PDz0FCIPsBQPIWgH94WtvjTyTGFx8c7KnI9KbsnAWyc+Ro27fbP0anwyFcwmAjr780WOIc1m7P8JX9xnTJ6Nh3nZ/QREMFDZWUxgmBdOpyKvzIFkL51Bw9keJ0COuWyFsrSElbyPOYM/M5+MvfzLz3JMrxoFn4xgaB2VKidxPAdCA8xcj4+mpwY9GwZMVb/wLnE+9cQ8/4ZyKogMvPqdwDnk2E2TiFG4Fe3Y7l4WlEobTDcvqZsgtrkS0inB0C5MouzqUXhVSOHf19DTHodbdk63pfkAZtaj+YNPjOLJ1fUNvEdBPjScSdc8Pj8UjpYw3ziZZMnrdfXtsVeOTYei5XuMcEHoVBfmw+xBoWlAiLyV65xL8QJ5sqVS32XVdS7uEza6ulnVUnZ+VJiJcuMTXuXUCLmGcmwHnOHRyARGMzCJgF0lkEeemJvhnHX/qC41zKFGcmR/ojeSTuao4R266YXd/4dyOONP5HNDguMOkuW8RzjBRWDWbUri/jb4IIHDdR9pSdqs0fJ0OZhbU9ZZ8DEiBkNMzterNOCc7uiA2+e13FqHiMDDq8RXYbg2P9O7uMEhwj/cD5yacwcW1OL3wdAQk7uo433LKgf7D+V3EuYA4s3IsiziWxwsJPTos82+Eii3kbVpCF20DK9+SLaT5upVaSTi3xbt6OppHP3nuxdaWVjRkh5qAkLPq1MA6348Hxke+AMUKcIbQhMdmX24rdZVSlXGOgm718PH7bFfjk+GmZ+LbIrmmTrh7kW6VmwoRlUHXoOvW6vtSqZaua7MEac0rnSZoXmRIoRHp7B6I5Jn8/eXe437uikO72x/7QCwrwsCKdtms1t6BnoP9hPNI/62A8ydzA/U9jDOPBpNcNZFM3nnhfn7CORWV53OtrNgoyy/CEOEcfAjzKS4oUZIfLSEuUSG6iOUwQ+qiB2J56QPCeSHS9fPFbWAHe+bJBP4apZl1d3eTmbQWjulwceitZzXOnc999PZkfU/eA2dj3Z6AtuF3nbS/r3COeOMs017CwSo4s5xdGWf2O7MRuzwIX+IcZO9YJZwDGufR+Ak/fzcKKhW2caHBgr7COVscR5y/GCk2pZ95Dkyfkeo4Z3INm+7hk6Chanzbra7WsidJJDrzUvRzEM52x0B6ZdZPW1XJs2GvtnfyjShYFNJy2Ni7A/Mzgy+2tPJ/l/K9hHGhoednAedEU6gTcY72lKrgHM0cdsVOvtGeCed6TznMkFXIFoOsCo1CObbkMEN+rq4q3iHfzhfhFa8fYslhcB1x/mP+5YWBuY8SRdXQn3AWjzQ1Ec6vvTUUeFzhvBAHOSxWGefGs49ctcY/Q/kxAOh8hHBOaEqrlSeujsRklUtUaDT0xSUvpHbm1r6JYm0vN2frcJ5eyPkh2nXp9nqHmKJDi++8OT0/OwP+ZvigGYJb1QZ5u7Yfcf7iqfHg4w49lxvEVNy3KdV7xXUr1/hnEM4qzkDhXKyrM39u1pvJ0sF2EatCo4jskkUnWNMlfIMyCEyuY5ZMuLqOcJEirdc5rs6pxxZnIK4zDd62AOErq18wziPjYcSZzmfA2Q4aMjiffouvcAb/s2pSllc4twLOgk8H3fpyJXsnF3XUj1RaynU+eal3oBJL1JKPy9n05CkUWjo7OwuumHLpQwujXjX0xbMfvjXUH9bnc72NM7aKzcRJec4deufGNf4ZFE/C9Ax8W4TlKYIhM6XdrN+ZYch+CWIJe60BZ920SrZWIJcnrxf6My7AD1Ix5x0AZwS6pSUtosrdXaS1nQTiDMaL2SY3PbuiuNn5jDgfdtM1a9T4Z2j9OW/O5xASArsFcciIH5us1H2ZQiuXMvGRqAavdmsFqU/jan7Kk0vgLS3lpWnoz/Qc/xDSnxOEc3+giXBewPMZoTVAxzDSl1JuojAuufNeX+F855GEcxRxbi2EHJtEub5cLaWKjlOW2mSkD8NjhG3clZsPZr1w5qOau1haVUNNtg6NALN+ng3ORbRvvzYC0adNZCdBeVviDHIYhfRGIY329Juv2qHGPwPjeqMRjhsKuWyKQRmsXb2eo0eGjOocGOTmrzQ7u6lD2mRVI472via6ge5b/fw5pBu713rnABm+3T8CjskvhqCPSza9Au2eUcRZ8G0M0Y8SzsnMUQ+d6ZecGxmnT3GACambSkmqkuRUZxXXtiJ9mAil8Usqx3YUeFa6pGXAOHedFdk69gw4jz8FAZ9PjYNvI1hcgX6MiIcfI5chz3M803jTKVduU+OfgXk3nF9F9QBlno047uRsUmVxwKswZgbdplPvulIKZy7qyKp0pRIXdJ12ct4mtE+0Yo1KCh2FOAMIJul/vCkcKKxAv2R7uV+yIWaU52gydsWeK/nH6Ml5dIyzrNRpzRaIiKvizzBkRrr0XptLvJu5Qq8CIbvEBe/CS/RvIAFe/5d5GmBw8dAXGARYBJxDhZbF+bZkXuBMKTs64ybaeMVNG/lJCvPAmdip3TeBZyukiDrvSz+GR4ca4VT2sKbKJXBRlriQP6BC19mKidjBEYzSH0883gTadsvMMISTNEucz+Y+N9HUUddvWOOrAXnuhDPWMyB6rlgRW4pkHF6tFCWTFAfIsve6ju6X5S/zfiJvzsrO0yUuWJeXS0iEq0URDHEWtSqlNAeL+hFnjBcLh9KJuqW5ODhvoH6FIOhcb1yLYbFH/NLnhutW3BRTdpL85DTVoSFiNdRccQYUu415EgapYIasHO+1xxEvuzF419PHiayvicqh3vRVkNSsVWyuVSm1NCT6IohhoDwnarOBQgHiPV+urwfufJisR5NS1FyCesyHXX/e6jW+GrKuFOJsy9k20wZsmSmbtziMxCT6DVara8HyNu3KYFoCvcHX6GnuU4FnZzWfAuCUxOiw10aK8AEamQ8uzi6ccByUjQLtWeS3R+sB/tJEMnPZpnv4DWeoE8c4W3UfCV4pR8nMGu5soGjaZY90ea8rp+yws9myf1pb4WT9ALpvfog5GsS3gNFzCJLp3hqqhYCxdEvfY0vzAx3NkUzOjTMI2xmFc3Qid8kGa/vI9cw4Y7+bDhfOgqZspi1DTZCQFYdNaKK2+w3iYtveBUM4m4X903AJaY0TS5lbyGoYlo0WjGEjkH/z1HjT44Bz55PvfzL8dE8HVR1yyn0qYbsdcI7Ez/ZRfrsZq92IOEcA5wGIiZV1H7U/0HYHmuRmIzYTByCcyS0otDMjC3N95nCAor21s1nuanDDwSXIaMYhW/qzdMaKvUilBavn4yCFvfXUUD/h/CPk0Y31dGDpCq5cgb3JwP4bgRE//Y71avw2Vrv/kcNUvV7A+SOss241EZRqbZD8y6wXI7Dk1eKgbDpmRUUK492kG8oeyiK23JWQc7TysJDx6Uh3TKVBLjFGOQJ2tXbAOQtS2FMj6KrKhgHnpfmFZE9zEg3aVhzJu+9Goqc+sFmN38Zq9z58GNXrNfW3K5aN4LesYiMBeyvDfF16sT3qbhOfthR31sqrdc2pZYMrzpbgp74YcR5Xkgfg/OJHwwPRnnymvDicgvn1d9+NP3K0T4r0yr4JiDPXWbdkJUvz5cqNshgBGkGZnh0ylF5sQAMlLlK9Sd01Ihhp2/wU0bMd5y1LiGkpj+gZrwv9OdgN1JwAaRtMntks/hcV+wbfXBgD43ajO14oliMTSfTd3tTZu6zmmzQMqw8K41xmxhafcELIVLCAQ7xBl/FLPGWOZlrLKTu1VMqC99UWalns0dHKbflNVsGgz851l/6cqKvLPt5UHIfaFUOJx5FrF/pefH++DepcTrATQyU99+rWJ42XHOWneCEH51NsnKVfKiD7eLudyAG7/6B5mrZgnAPupmMybshqWahw5ketKpJhWagO3wh5uxxnrF4B6TaAc6CAdWjm4h35EifRqWSb19/VyTaxo+7wU7xQpf5VRRahWK3VbgOWcew0GBmUTR9F9JEo1hiUqnWYTagIH3FeHWIUxktWV4aKs4klNz83mG0Kj2MidD8qz6GWZ557/s2F9q72jDumt8HxO0ORoTt8FUfC/eiub5B9B6XS7HIiW+0MpKlMtlhgllxr13+k+G1WrdWekkj1XC2KJSRnu2YOqdLZxBBkQo/3B7JgDOv85bFPhgegTlwuxjirEoKIMo5DHzjXT/EFso8o4Tz9fF9LQqSjsv/RU611QwoTs3jhzbT6DOLkVq21U9Hr8OUvMgp9Rd+4SM0JaNwh1CTQP4Q6lSp/lu78ZWZ6dAzqPsbKCu+XFMxQ4mCDNX3SsaoM58u5LzDg3FoUnQJppvwbBzlHrSVCcmbkwLZTSiwx+DshCe6QIyOCuYRpWUpOzryr2D2of5taBKpZKL1iCLh2Vh3Y6ZZnljBVujkpqBn6wyLKUEH/7KN28iPXFn2+R6HPd2sfi0NCWWb2iJUXtVorXdQiflt6ij2Xhomvu/Jw8JpQjum7PeO25a48i0eygHPLCqhsEMBcaFVq7KPRTKm5PSP7K0RxoLB95J1r1/hybHP1NZcQPffqfu5Mz6wsu12VVEmV2KrQnwU942fWcO2lxr7J9IyrKeWai3J70zOs8t4VZ/cjdbW3NoWgJg0czgBzMN3aNzU4PZBvL02kGhqckG1lCSOkD3v4vtVqfDl2PfP2KxTOPb2TbwPOBdkpUNszhccYhhKXvPyVtqod8BKXeAmn7OCOxsQm6lVIMDkx21MYc1eTxNaHoDyDDFZUAQmtz/z42NJwL7RCaYxhPC/CfAkmttcfR6dz8rJrTvKZP9LB+YwHLosrnJOTb78DOMu+3gioZ6d9GJYz2eKwSPSeTJd3Nfo0lyTCUeaRsGsgqfWeLJyrSWIkRDYLOPf3qf+KxJO/KKUKSj7GDjM4X4Gh+Rrnxtipax6wW40vx5YHP3Q6FOSA8zkOiaV1mHAoPcR2HB9c4TxouVR+Vk95WVEBizInM6dWw8ytCmk9gIqzqertlOD2DmxS17iuTT9wbTpQQq3PYNx23pVvQ80kIW4KcY5fct0ma/mmgEE5zkfcf2QGce6IP/3y71OYPgxIW5F8dt8E1mRFfQNJefxUhdlujmCVftXEzo7vRAKu27vb1SQxfr+IOKu9UAjDelLNHLfN/gsk5+RRPqrnaeF87L2nppJg7+2Ijo3OfpDGQX9eNEdxZqPQgOGC1dpfH7ICX2sW4b0B1qfL7CGIbHmDHfWDBM7iN+HdMpxVnkY/jCJ+RxpSfqfeeTle3wzNMRpcQSRxgjmZiW2wnk+FMBh7nXPpTWD1A5wjvQuzgwmDszI7gvoJNkTBFtn5ZLX25wrp1fvfkNOiYveFgPFrlx8IToqO0cplVXcrNBRxDkHDhD40kYBl+8nHnp8e6OqAcq8oZWuVSreGxaDAy3byTbVtD5wPP/6Rs1NxwLk9PvnmYAKBdoqEhZvAzCDZonQmy+RmK35bzFYyDe9qPxLGIRtpaf7tpZWLUt1ySTqhfygI2zOzLyd/xizJSy7R8ULqcCacc5dtsHeNj8c2K21wRS4KiXTt0YHpwboESGJOU8HaW1GVZWEp7DSTC3D6A5eIdMJ1BJ1XbKnAxSeYBZgZuxm6+48SPbNuz3YwmvWW7lZ25mcrpg9C2JPPYXzBzx3UXzKm7Z0G5jgUz/enJcyMjXe5LBetB5wjA9OL3YCzKQOibYgcrBvgsCx3MUc+esU7esv38TL3UUAEGCw7I0qGmHG/QbZvsoGduzRIQysd1TggB6O177Hpyd52iCNxhO1cYyZuYE6eeuNFfsqD9Rg7HhmDQP18vr5tfvGDBFQFqJXM2cwhEZQtIjAtfs0s3sqHtoyZok4Yz+V82vsRNYtG47yE64clCi19U88PQ41uV3yBksHqSQhLxfbczD/F/7zHJtedHYUsFGjtNbz02FRnISEjdMJqpkvZWllSjEP+ZGaybIbAt2TcNZtKPTOXKXrQ3ApYjxDMZkv2iUuHuPZfdA6CiaS+Ix/FZrEmCdY5nFMnPrLeKj6HuWajRy5DU0Fzl6pRjjgbNZYDoonjagqTRQqsPqNeSTRW3EhAtvQPelbDcFvd5CNWLLm7phkn9pjqkYXOZ96fnXu6C6LCcjrZxiTBUuc53+VTeYz17jgxqXCOLEwvDXZS4URhdqTZuI+8+iVIC6Upx2q1VMhSSwXG2fidPbXtMA42WgucrRRpui/1arUA3oED40cs3dyFzU8aQApDaiaujVpVJrfzJiv5LQHDHmvefFRShfaWJuffeQxwrqvYzIZiphFmkQRpF3HketxGScang9xSQVo9eSs5B0xQNl+UhlgZSy6zfnAp/lbg2n3PgRAWb++AljjKeQEpsKZZaBTzLzbxY0hY+djsgevQAdvc1Q6NnwDnPplIbDslrFS7YOWKEwi01VIBhwgSqqxy20HZsmU078qCozCBwpHT2vmi8lOBiaSRnBdg1U5CdTwSwjKHXu+//AuPse69t2SiUaDnPDTffL+ztagSiVnjdSKyZZ1Hl883YNUQ8FSS8TM956jaOAeldqYsXmwtQ64gXNBs76IUa7Mr44w6PqfcKiHsnfnJCPgjM+CPRKBVy3aAGUYydfaOa/vYEMZj96Pvzii+3Ty2MD8D3SWQs4pwrDpu/2drtgS+zDl2lGRews7k8qS6spImTRQa6NT75PwaBSmHKIBVFi8Zf7Pzr0O9ME3QUijd0tL5/vTkGJxLIGtfgkCTCFZP9R0v2dmP8doeY5+r7miMohzW0QsF6aH1YGXeKEOJ7CUsgnssISTspbZzmR91688uVzVL7/ZSl+9Fqc4tLa1PLs3B4QxCWMMll13S4GTARlQIyal7+i45sgLOJ90VUy7o5vjTc+/0FdEFbSvBss6juSJTcbiII33m+B+j2/JS3tDLuexYLFlkcyQwuy8hXeB39JZc2enOPvBfTEJvK0XOl51NZjBi2vFM7rpr/NOM7E/2rjQmrioK4xb3fbfu+240TWTAEVAjcXAEJY5FbLQJcY2IJmKHMkOM0FE6U5fGFGPUUQKomFDCEgoJS2mRRYNCI1gMiBqN0USNQqImxu/c+y7nnbmM6z+YkziPmffe2PZwz7tn+b7vr+2qezdtKKLWZHlW/tDcYI5ftqC1JRS/RHpjGPsMiSMvJznRw5daaB5uLuMr9LcLKIeGSq81SbHQJeQtGM5w2u/U3NG/GNjdUQ8cbFGJ8jMBYFXQxmv+zWWbH7h6pRdITAv64jUFGUo0troOrcl+aln5E4eHpJ/5n9V86nVm4zmdxVXLjlcnyZf9PESgv50FOdhplnqOZyloC7pwUx+BNbQTKVwu1bVvppQKz2anEwkruXH7oRdflrZK7LTDa9CyIjKaIFoZLRj61L1cqXzgLB9DoOuk0jCXnizOLKWz5lRCfrx8vszNZb/z7WbPnyChIG4VGGwZt/V9gXD7YO/AVJWvmh7OtAPTbjbkjus333nkSkRfJLHjL72JwLHVEQh9DTQ3IIWWnQZbR8Ea8abNL4PfRKfBTrVt5l37271k4hI2vLfxdAn7MHVdZXSxd2ZksjwWzF2XUbqByCk4b/YVldQ+e/1KInf8Ozv5xNoNys/xztG5mcFo2NlEiTavxyVyxIqBRtSf/CwZGk3ezEcjCS/J/zgPFlVWXfKEicamuFUvY+52m5o8oz0q29uHJ0arIpHq/BKMdmKjjdWszZdfWPD2miNXk5vTDnluO4a4yc/1HRMD/dEwns/2hL3YYQtwMzrDeHU+F21gSWmC3x7jJClZ6OTB8tvXss4k38W3er2Mlua8mkujuq49OD/UnR2hbmRpaQaVtI35ijZse+ySVRS0YUc/9vJ6BDL42Tc5NU3q/VL2Tx9tvRvtZxk+k0/2rBWoS6tEmuTbRfSnU0Iah1V0zCATozGprt2/d6owFotgVghF7RLTb1YQmwwwL68oqta/t7Of3HQt/vJ1kXhW0+h8i+Nn7hzrlSxpv1h/0Izn8HZIDPcxQ6Mrb+bCqS6RcoJujgk6DM6HOqcT9OAMxdOJvDMdnkmFsJbZiY7sWLBuXaEe7czWfkbQBpLquf1WKPYiqZ1x/1t3aT9Xd3dMNCs/M/2ixJyan2RzES/kclZb4GXIDI2cNwslUAmoFkc5vMv7MSYZYsGGBAG8zApV7+zojGAuHwr9yssmb/YV3rHtsWtWV9CGnXn1s7U+X3YdWlb1fbtnQmGUPi36RdvPPLdtMl72M3tIqs7iRfjZ1ufnY1LUjvQzLtRS/sLPgVB4sHduqD43FkPTWYPllobBbi7YuubiVRa0YRfefevbRQqVUe7rnhpuCGMYUIjxe6SSgQ7a3BEmpwuxfUFpoUf+1ZAoQyr5vK3PL7nHbPAzB2v67kRBRGc5h6M/z2DAs5zqnSU88adHte/asqryZmMXXff4S6Tog9Jnrq91YJDgdLzieB0nMsbARKbrEeUqMcEndQfFXJEQyhIMrEl5KmRdTPfK5LoPRHswx6uakUWFS/zpMATtjILND9y9qhIqY6ceeULZzeuo9BnMHZprId2b5ejtWcffa06JTFeHWYlkhQn+R/2OqB89nBlz8ZJb1gkEGm6qSJZ+F2hqboCiEIY62FhffV68PL+oyGTNaqqgpPTKA489YPUFbWVHHHfXE0XE8xkMToJXPxzyc4ZrIia9ZyUD4yTOdGXezEfJ/6gcxP0OQ07h5QjsHtKmeyRah+/GXZLN15BVEOlfe+8Attp5wWC1b12+j5/N2Rk3HrNK+s3JdekohY6BzxU83AFrGEjsqJJnuva2SZZKtUcZKWNa1dZQELOQ2VSR3o0baZBcTB8xJgh+7mmn+c54PIhdl0FQ0cGXv/7tE9NWsR37cs3NmtdA88UFxHCfKU/aw9cahOMezpPbKEPquFYM/3HSDL8xBaTcn8mpbtNsxildQjMUY2JPiAONkOT0ws1NvlisnEI1+7mwrPb81TEklJyf+Z0M7edO4ovrCSfkUayEwGUoipxWpsvbJUnqaEgKXHpG+iyMu9vyVlcqrWUaJLTWBBKRkqfTfGf/zNxoZ3kwAtCYcrGxDdvfWmH6Jv+B/1HxS8Xj4KMZSPCzjLSCVJt1B5Pq4qi6Jo+E6Xx5qTgi+lKyWiqk/gX0XbBIJgyUp/vD0ea5sb5gPFZenWX8jKQZOMlj1hy5SoZHkvr54ZdL9Xr2NbVO/xytsMZ6XDr+HoecUfNAmZqjJbHA7yUlpKB+5MzXFmow6oW00RNUkWJYSLbJISoaDg9M9dXH4hG42QRtJM3r39506MoFsv9DO/ipTU/oVkZWd8d8P/HRJBOjskm19amkujiWHgpTdSfs9pYRqbLUCwXFmNfC2wSgVd4wP1keiceCTsBWjr657J3X7lt5vNr/2s466jykmdUofeYT3r2yIuCub6czfFHKGGg/cwiXyGSvA8oyjWuRL9M6lLJxkk2SRRLQ6rLQOhYfEcyj6539zbur4nEwF8DHOmYXbii48pzD9zv9wrSUHX9eCcpGhIMGPrYfJTHlK6dMwfS5LGPgGjUQMgU8X0BM6ayLY0orul28RI4uAAEy9Ta/R8VevW0X+bKgYPeYrR3N/c1Mt9YvAH2Rq5YyPZnL3tmyQnn+/oNdWVroI2m68s7WgRYaKmFORW4u66NQ7maJf1gSvdgkOrEW3iYJRSQTfst5IVuwNj28iPlOkITF86gzBSNy1po3VpSY8/+zc669g3CT5RHgY2d6e1ASY90Tl4T+WksvQdWiYJKyQk5Yu3kpYF78h/VszwNKEkfSV1A8GSaP0qwZtqpVjvpyGkkOtzdPdFRlgyaru76uWouCghcs5WbGQW8ty1c4qzrgY3sXo3738jQztDpky6FsUYmWooJMJ8GXcMotVBkYuiVAr1513gnKnC87yAy80+91HzqT+CkgEurLr2/qmOxGr4qGd2u2rAqc3D/HQd+4jnCT8SAkjpoXSUJBwhaTt4PZeeJHWQ/leri13+ZbZBwnP1vDQWJO3/GzVzfOMkOhnP65yVh1d9/oVGsVSJSyIQq69bnD0lK2ZPu9WKP9HKkaHZnpiQZEOEXETNYOFlk2Z7y678z1TpgMuzjwLTAj8c9xnK8mlLzAN8u+sxPB0b9oAUnYQtbk1O753X2RSDkxRtW8vMqLYBY+tgh+jsSJcn24h/B0YgUmly3wiL6Gs/9isDOzX4io8PcS/x4XmCaxdCaEGkwCH+5pB0nY+ML46NzA8FxHJBYk8pEbt6c22+4M+tZthT5az7F8hZtUQyUuP6cnlS2QlWip169Cq5352njYYuVnma3pEouhnlJxggG79FY+INLD7T9jhuT7he6xmeaW2aFq5FagpXii5rgVy9v5H+yCxzcDN4nSZySrE7jJcAVl0M6agv2FbIHoLLHUgnaVbjlLngpWdmWJf77FJU2Ij8SdZm5QQnBM4od5bfCoZ+fF+uYHB8Ej5SP6OwLLnbDfCqVb/i921X2bMuDn6iC6PB3zOZWhUMBjctOEvNkSQ0gGohHNZe0MPtpVVavfLLvaMkhr46Yz+lSVgzOtufFI9ujAYnvD8FRnNsC+uRgh2f7kDSlHGzvz4OPWg9KVtN0h7k4lMbUT05UrLnUuw3DvTo4NKI7Bzq4oYFW0+JROgXUcp6NJvSXrYLrQGXSjN2izHe0dHpm8Bx233TOL0fBekDBXx+Dn/KKtd96SKnmyHX9MmcZNRrqnZvcORivI0bC/3IRx/iwZGlmi0H7KU+Yrk2GpuqDi+JIOoTXczaVx/h+ng5F3kZSdFx7tAz1WTzTaDB3J3FgQqZXvrtceXIXjnUntlEvv0rjJeD0o4wYdXIbE23AElTBGWykMJinZ5YSmE90tNiN7QMkC/HDqzd4nDOziwFTTpwvfj842D0aj0ZaRoV1Z0PPG36jgxdtTfmY7ec07Dp7O14GSWE9Y/esmDvCgGKmDMSvtLyu1gB/ljfzeIGWSSSxQqm3UZ+UpmXrz3R5/RXhwcL7Dl3tbt2rDRKO9c1N92WhCw89lWx5IFT7Zjjh0c4HThO5rnevtafczB4Q9V8JDm16x3Ey/2QWySSKZIigE7ZDghf217iAHlHTwkLTsHeuGfvfkyCCABqHo4Cz4KrSfS7etSNHI/2pHX/LiTQ7OqqpjpLknrJcUMyerstTzKtNd68qTOX/GIrTJHK2SuBnp9iYTE2TeR75EXiqq4zBSgh3+bShrIatparYdTdUQ3o+MQp+fehl3bN20qqf/Euy0i1+vydaUcfVNu0EZl+nkw8yQrkuZHmVezpP1SUTPZGSO/J7DsMzGbYIj2F9e4iaeBM6mBSWS4EI3arYYSya/ow/dHQuSn2++a0WK/f53PN2dW8nPyDrr6qeGQzRTYiIpj00zUwznySbjFal2sqaynRTLo03RbR+1MRsG4vTMGOT4430T4ByGHKrikxprigTzclHiXl+7okUR/q1deNj5hUWqVFKePTrdn0PMQ4bagOVm0pWf/WrERJMyGpl9mWqbxSeCrWCNlNU1i8xR52AcFEQCz/mzB1JzwNlMD2Xl3vbp0HRLP6nqBUJ4Xk/0AUeXl5tddEdBqsQt7NxS4Kxyq7GiJ0f29kMMyHhSpUHFXi/crPGR1FnEK+MxCAElt0t2Uxn/uSlMbIVIJrFwSfgvuxlzCzdUAmczjD7VPeMfjCnthwDGPgM5/b91aOWP/MKME45MVcRcduBNpaRtnheLN42BeihcacqR1rxnOhcxueIhlQ9sCDVfTe/l1dp/vJsXEEubytc9LEhDYfOj4x/es+vX3z5zHjfk6dnR+mwq4/p86zY/clVayrgktu3aEvhZ4W/mZhqi8LMZ13FxW7PCvl50nAnrS61RIZEn2yQVzI4hR428eNWhIgGATZ+bLN2jxGygKJi7MP7NxO+vhkCXhDMYWQ2BOiw/GAH4xrdu2wNXpKWMqYde3KrxNwud0PH/uSfsisuiHuaRlS+eyLOQMBbJoyWhIsVLPDY/GIdsL9SnPVLqnx7FDTNjVUj7v/zjq49Bf6b3iA3h6PDYZCeRh2Vl52999uK0lDHO6tltG7SffdCDhp897GfOk2U8dolBC8pmo17Iaa4+yt8DvpT7Vvyt+gZn86X9rGEB7GdKoZqnh+piwbxvRvZ9Fo6G9SgZ8DczE0NVys9ZvprnTkpLmRt/o3AZsXhW1egcWhmMlLH1BznNpY+Uh0QT2ZEDZNZIfY7f86VLTSld7+QpcRjrx9IXpvthOa6iaWaop3l6qikSG9/1xxcfF1eE6FlDDxvSh21tQsuKpj6v3XJoWsoYf3Pfiw6VWHX95ITB3zCsxZKNSqCPgLmHgSyQs80iKYRzxKiRLcYPSJ6nsrIy0+/eqgWii8O7J/MXHt313bt7NmZWVFC1FgYdYPDoT2bBz7D121JDn8LRR51XpPA3QYXL0DqErrjsPjIVJH3kiLJzsuTXQyHav9rPjLNxk/2RZ3X+xaNGIuVSkyXa/ZWNjeRnc7fHH2gY7J0fQgfy+28+/2Lf8/Bzpn6kI273DkBSEvswWGntiakSt2hOXrmhEArnwWCwXjX4KjLN5E8CeIqpIJdwdBxsHTJtrzulZilKV8lSkFKYUSOPoO52RgLXbtzoDYQbSYWfp8KVyMnAVDfqXl/++u5X8HMgoH4t/fR87t8729qJihjh6Aou3e/U1LCBy84pyCBZASDqOkaG0ZxEGEymkW94huzRIkTYtU6J1Kb4tbragsXII0I8E36/+t573o8+gmy3n79Ni/GPkBj/+Ae/fLvnY/rc+LkylNMCZe9cGKY+76h57O5VQ7X9z3AZTwB/Q80M0rPqIVyG3ITZGvl+v05yOYnWLQ8/nbVEBWVTmrZqLrEEOwV3MHQUISrh5cZKBRRx6qmYLsCmujsY//SD777+dt97mZnmz4KIXuHvJ92qLMJlAEy35eHVRvT4l3bU5mu1zlGQ5vWBy0hCViDI/4xEjlAA9adbOqJ85G62XvdrJSusTMWQTpEIf9eOHY1+j0syGijYhtnWorrYPbu++/rHr/YVVwT8+BZlHoRw/2cjHZ1UEiP8Te2mFC7DZfu9UVtEKbTSORpYjAYkY4hJitnPysWGfCSxRLq8f40T2c8iS/ckpNzeYvg5s7Gra0dXI3vZATuPTOLhPP7N528ibBeHKo2f6YtQ454brfJF1LBB/hO156aljHEZj20vJD9HIvlVrbOEy4BpKJ3JYRNJHj1Ml2ug0n8j3W9UcTxAUKn4rqqrDLwUd6Hlicd9Y1cb3FypNgv6FPRBG4Yx+hfP++mD755+5as9H6d/VOlncDRgdQ3TrX31BHlHqaSk9JjDUwP7PK//8OYSlUJH6vI75lRXgBcpJ8UC92zyY4ZKW2QUNhmY06TwWsN9Vmua/JzT1bZzRyMUGmDOpTQcNI1KyML3H/zy+Qvv79n3mf+jCkLjmPy6ItQ+gNIn+KWylT1x6aGp5MrYmQecUEopNOa4q/sm+nNAYWGSZdWPdGgkdDPZ5l5kZThB6qilUjxSN1bdJUe79a2yJU2/Wng2t7V1NdCFzqV+ossfhkh7buzLH75+6M0v9nwMPwdwDnsxnV8HQsBbQTchRni6bDVXkoLUse1/Xgaak3B0BKWSFprXT2dNPy36anDPUlSQXhMV+DMTmRtpRMHoxlrMvOZWrrYggGAizd/V1oZNGN1oSqT+UE/vzPxQdt73eDi/++67X+z5bG0m/U7yJCkWfDOkJdFNh5/h6HUZ60/YLzXha+xyNa+flYs57tZZ0kVJ91iafoLui/Njq1Msk2QhieMlW741ouudzDfkadyxsw177Y0bn6fPjZgNnAjGmfEPvnvo2/ff/WIf/ghknJ37FUSjo05PDymrff2S09JSpuwUkvIHMIPmuCdmezEPKGivZdNYMnnRKdGxEMyNLslXZsHA9byerda1CtrYgtHDmbJy7xK/RUPDz7NTffnxvF3f4eH8CrKqTGU8IE7ikv175+HnyD23EV8JrGz7moNSjtZ2xJqXqJkBP2tJ6FDAJVsgJN4t2T9LOhYmmBvxIz+3OTvDcflR4OKN2IN17dy5s63Lj5+W+pf+CtS1J/pQiB//4emHXnjzfTyeKzQZFkPt/BXw828ddbFHn4GjlZ8LN9SsOStV/1R29EmbbtJ+Lu8EJq09HBAkb1LD0cX/xHP6Flk6q/4bP8vWlQnd7rkDyqqL4VtvZdsnnyBqF7+3calnrUg8IQMbj2Tt+uX9N1944f2v9qmJIf5K7ecWQOvKKX9W5U+i783Y/MBZaSlTc9yv1VLcRkkMOgrg16cqE8dtqcnKnwtQjZQxYOoLr3Otm/XC0hfU56keiozK37ij7ZOdOyo9xXC5IXesCEWpuVwe/3TXD5+//+ZDD/24h/ycyVoOys9qH9YUqSutKUNz5ra8XCKNq9ly6MGpoUA1x33rO7QPCxJ6eGiudzAcrnSCsVmsbjJHoZcAk/mzMosqUudg5qPlJQpJzRBRG1uwnZ+0NVLQNtdlws1RdKnq4rEvf/38hW9fefpphO1XkRgY7lgyNQc6TDzc67a+tb3sT/auNCrKMgq3nvZ93/d9jzWCGbZYZpwZYGDYhlBWiWEHKxkQZ2IRhJTN0BBkVyLiRGmRqEBkKGbaQcmAzGwhtZDqtNdz3/f7+pjGip8V3c6BIqJTD/e+d3nuc0O8k/RKhCnNAo+qNMP/QMOuPflWL4gDPkPs5717DvTm5hgFsoibUCfPqHxFTo+0F2tZPzNEJfIux3nmKq3FdFvI7dhcw/bZp551NL702ghybeMLwJkHCsYI6z2wZ++iRU+jpEpYR/6MsL0GYUf8F/H7eLg7OE6Srj+XpNWWO2iTzGqK3FqnsiL7/0caZOfe7BcQIncF34Dr64NzBTjEmCuR7SX8RDAt62eJp29ZatOPkHbfJb1Hi1Ib3vyCC7wZj/MmRO1wad89l5anBl+t90a/M3AdXueEDR+/u8atWaWScnY+zeoHBcG10G+1b1xQSYTepFd605GyiIKiOa/cy+2UMr8YKGPKn67HwpLI+5Ru+tn+kdnDzVIO6G/2buiDdb9TKrVtEbRfUL00MnJ45CUVnFk0uhu5HDzeJU9/cwTDyLfeWrE0IfCrNz/QqdhARKIUOup0zVv3tHo/80zxEx0Z9vPKlKYknnXHeLTN5SMZM+yi7GIn5KZYnWzcu2+cWiVAls+ZJSUZR6nytUi2LKXEKARY79H9MWubkbTxebQbUm3y5sOI2i2PcGdm309HndvHu5YoFhXicU6oWZfwYiCK50cwqZJiDD7y+5K/TOmRYft3RMU+udIvRFmtRyqGPZyIm6486X8DvzelXNTjXjJ4sDdnsTQ55OmSVeVra1k8/d7MEldnpdGm+FmqdBm8M0YiKnrXUUYRzGMjLxGzQBLuX7y8p318YAvE/mgYiai99MVAZGHGHCOFB2nBR8UoRUOT1dr8hsiOJkNYfImH67BJzcX1b7n4/2E07Dr/bD+FAjizU4TtRmwsMZylSteq8v1rnK1ZR5J4EDdLnF1sw8MdAfOusddaELTFfwSpNkTCttEGeyn6nYGf16xIePHFDcjCcncbZ7KRCOee3u0HPz1anVwwz6ajoyMqcl5BQKVJ7y2nWiJ5/f+8QNi1stX5oRp2ilCOErqzn9UsAPOvKl/LuM3EdoXAjS9YnVSYId5o8XV8YnWzI7x5166R1zapqD/Cl23ISZt7ocirlZeCKfThhrfWBS5d+uJXKKp0i3UzDx7SWeAe3MnoMyU5rPUP6yCHXpjShuLKpCagYyIuvPh/oE+6yhDfRrrrRPyETvN7vUyPW/JUca5hGY9drBTAVCSvypzWqkjm33UCURkXdMFeeOEFI2DevAtv81PAmQcKxvubbh8fCiktfPoQUu2amhVLYR+9T9mZzlLSQpdD+xivVj+9Pt4+s6Mpz2AwRDYEa83DZm8K3SEBd19+6klz3u457+4IJw1rljwDoab2nhwRZ+bH1vqP5I3iaFgaMjP5A1tO2j3RaAp/xnX0pdKLwfzUI0YEbbjzS+HU+mT+TCpVud3d7RP7Wp+u9z706Ydv1SAJW4ps++N3VSr8RkmUb8rCEOC3dfW9ow+tejLMmWDO64hNW5avqDbzpDs0uOSsOX79huz089dH0DFdiQ8oxlb+TkvISGecOdD8neZDZnFbeua3iqByhXRBH066j8O82XbTyyO7xkZ4f2QNm4jasnuC0/1ItV3rQS34OuHzGkTtF5fS5DnXSL9RkqQFJtEYdPywd/KIImKtzDnKEBUVldcR5YN1E6XelMT7Yg53n/1/u+Sks0uCtaTTXFrauAV8wB6j1Z3BE1w4gEkrOScutaXPJ96/4UH75V1jn21+DbOLF54iihG33J6e6c49rfX13zy985N1b31eg1z7xQQUVWt25zZLUhdkcOetnQOHNiq91s9zbjK4u7s753XAnqjQKisr9XwaHVEX+T/QJ69ui2F8wFLX14cmppubgY54Z5DQs75wQBWSBQlbKrWFaM/9VczWpGXoGXscgBmji5dHxnZRfwR/FU7ZHBn1weg8qOabwtG+LwJrauDOCUsp2X7XLccIvq/kz0QFhT5J19SwwjM7MQo4w6Lymjo6FqJg1FcL/ZIFq2rPm/PD6BuyCrw4H/AZxd49vTS1EkpfYAU74YUDkZzLkZS+RVSg4FDC3SXxMIt324WcOXzTy4fHPjv82qYWlGUixYi/uO0DexsLqQ/2YQ2mkYEJeJ4p2XbUPSrlDKyrjmXZbW+/MjmsrUiJNHCcEb2bOjIej1+lMJtMrF+i9Vt/zQ1z9ESwVFrdedkCDa75L8Kq1ZIdBxhPTBxOkTGEpD2bZ12keG11cV+iHPGVHGtRRyloP/WUETBv3jyyaU04qGHCv5AukOX0d0JsprS+/tAXn2x4CzkYWeBH72NSPZN7yubTcP2Jrr6jw8krE2V5TVHuzPBE50XJGlLl+kozObQmZkFB1kPXnzS37YJzbgnQQjYOw4zGoYnt/WzVSiyOhYpW2rN5lv9vlu72W1/an7mSw74kfuvvZO6nYMZNCNpjyLSN4cDZReSPQIaimcibpfrRQ19+uIEaYYEoqTbAnY1IwghnSZgILfBcrNy8ozbnB9lF5+UBZ8GjDXnRT2QHh6JfogSlOzQmf+Xlcz7pvvJWPydUmjil4I1Vq95vu1UnVMyWkqk/PbHAwRL2Y62/RThysoayLpdNryFoo9uZG/6CxBNSGXfvXo7hk3bRN+o+wExBO5CSbSRhHwhJmBQ9UDvT3ZtRtfq5cn94sQE4C0gjhsv861Ir+ROt0GBfds5LBV5xGem6KugEzuuDew5A7xOwWCqJEFIi5LyEPrGYo6MQfC1Kst/n05xStiY8/IXwFoJ5bPPhlxfjqUbQFqjBaGLS/usSxJapLzG8QB8sgXBOQGcbybZq5u1a4pEgxP/w6VG9Jr3ucVTOUYSzGLrzMnziK0KUerOaOKAx6XP6vrug61riQGkpSmg6mdGdyzIxaSfZVjpJaNENtVJq5JCLlDKY4MWOrETjK/GMCvZsC5XNm3eBP4KnWVitJdMt5yIUhaOHPv16xTqk2isSYDR3/sCN+AUicdyW40x3b/q+UydXPObbZIhydgbCYuiOcnaPrC0LUG80I3JDbD/5prl9+pt4YquLiQ27iBbRBve7GSG0Jw0dXKz3bKw+//mJwj9KR7pQpv3soy+NbP7ss80jRPqDN9NIgzcxc3u+3db1Os4JTn36deDnnyMJQ7LN585uKt3Mw4cCXwh6YlM/qfNr/TORbFuYs6Ej2n91vvfxSj0jdYd4lM91SYurz75JGyKk3Fv2vNeLlHvGuQJpz+bEyozhtpZ9MCFeS5sXv98TdUH9RBT8TS+N7Pps89jhl1scGenPTfBn8EIg1rnFW6nGNvsnK4Ayg5nNnd2MKkduPMK40Oiye3r/vi1HhkMLnrCP6jAI+Ipebchzt/FHX0ydJPTFgm+d8yqvp6V7ofn5HHTjXu/aT7pxQE0iAeHTn9634v1ta3FH6/uDxBNizryJ6qnPKGgjJ1/D/i6M6D89JJo++o2SeEJItTewypnPI42LVS6OFhrhqLNzt7699x21KXWtTXSeFc5Iut2jswrSFdXUF6M7o7dcfPIcT7rvBSGW6Ux9o3llYBt4JWBYWx6r+tPTCnwp8oTHuy3VIznMT+kA8+bPNlPQtkXQdsNkgr36KtB/pqE/MWoWeELky4AZOFMSlpuDmC9dZyAp7hy4/y9TScrnyuKRXzdJOMPEfol9UHlyUmWSN9vScGqrneN8sUtKigM4r8S1dehgb7dRipC8X3lCMQpkUJJON77wZycKpWFzOKbNVE+xFIyY2rZ83szr5gPQh3L1PkJtsEAEbVRUgHlpIJH/SBAJoVqafRO/gHTjJk0hEdlxBgMrqixxdkYHNHb+YxVatT5JzftibXN8GH16SkE6SexDrUTTOtDebLQ8ViVtUEgh21qkwIpHYsEnYXMLLMqNjH32GdXNLbxu5sbrZjy2im/wNmOZnWXaVDpjfvERWCR8BUO6aoh/ZPm3veMDO48dCygPsmvKQ3ptiTPMGeg7+6wODlFXmtgTHep14TXnnTSH7bq4Ok/c85fTMjSWJzv7c3WqmaBJ4sszFUWeFSuimZQyq5PC7LvXrEEG9ogRS+y7kGiPjVAK9gKHmZNCdrMUrPEZUpqBNsVb63hFhfkForbb7sXiD2IpHeV6xu4e8AumjiUFrwaPJE9AVjSxL4YhZSL6YtWMRwRLX7VsLq9GX+sbtB68EjQ/wTfYC6367lyVEHctb/9ZnlaQuEKc3y9eFrNYiiT3C6dWpyNQPrxrM4I2liLxJSTqHDvs1+zefeAgvHnRKLz5k8AaWqXiUZvmFx8gas98AmgVxJjbPL1/aOqIubHAX4aiygpnMXLnydLqHJBz65UgtkJyP/+m0+695Mzrbp+Tmxp3dCQWJMdo2L1gJtVMc2iJtGelMOHClpxV0nFBtujESZ2W82cKs8J4qoXybAra4IIhaINtJORp8Obdu8epbhaWnN+qgTMH0tR5KeYXbm7SqjSV4GS63btB2u6rNKvT18Ya0Nm2wpmboQl5uH+BRm2u1ss1CuKAar08Cor8fZvmJNBXnXdNWSrXHypthP5Qd3cuubJ0z58rgFnoAAoeLkpASv5sWZLZ2rIiuQVzC4ynNo/Bm422aHYCZ2GdQpcLRb99rfJnnkbQpj0qWr2AcRIJzS9+lz4Qu66Ll0+zubN3QEW8O7U83U+MMyJ3nsG+aH2ynI8o2Su9IL+8LihtbrLGLji5JF/LUu5S+auDB/vR/YT7SPWzi1Qns3OBa6zraZgYsGekZOG0b+EClF8bGWNPM4J2OEzoxLiAVZDb/N7bQ63yUtqvSdiAoI0UjFfOtDe3lcSFxDpNFFBBsr1tz6dHj4eur32Ssi13a5zF/idGV0+mVHiZ9SR2wFndTqmeZRWXnX3qGXNQIvLUlAononJje3JR60Bnc640h35E6IesEYZQfzZ/lv56Rsh/lnCmISQL2miCbVLZEuVPMBddd3d/58TQq95MmeITHrTR6mSVM0qqrcbdi1UzHw43Um+GGPPbg4eOfZdcl+iDZFtC2QpphG5DrH2tp1KpxugKxp06RBtclRIXO/ckIm9Aj1CrIV2awsLGof0HLObQlpcORAlI2z9eRrDaq6GhRTjEd4nUSUF7F+3Koe6WNpxB4+scH8AWlfLIFNXNNULQFvudW1W0PGAhNYapFiSIELWPHFWuj7fJyPtrnKkvhmG0g5dcr9cDa3g1OXVIcnBFdu1Zc65xco9vUb5TKEVucQ69XJpDW146YJ8FHq9l6LbcqyFPxjtMC+xAWainVBQYeApH5Oue5t7tO7ZoCr9RYkKVsA7NTkwiYRS1aehMj7PFlVIYplqYR+48ZvZ2yl4IGA1/ibMzlVd28dnB4BFVm8xJah69FSFap3S/ssvOuuu+OeXUdzxw+d0eTshI5YX1hTSH7u4W30XkX6LYmygOJhXN1jgLHk10IKYIJjrzGHkz1dG82YnzhYtRHB3YP7D3jcLSUkyoPsHTvAEQC42wBDRIqHIWBp08u+N80O728V+mjic5tQXFduRhIGkBsnUyBkp3XFGZAhirlcyoD4oQTvyDkqK0h+eWBtWp11REKNgculDxetf4dDOaJawzQRGYk7OpUynyt3klK7QhLS764zcCCNOc2ZFQHuEojx0mLaFwGJf4dcRyzXTndmRgIYVgdsKbV5A7rxC8OYE1SKhynvF28FwPyfb4ji2Tx13LVse5d1BN9fc4P1lULDfLvZy8tPIkU5Ke+qA03NCme64vyD7/zAuumzsZ2QWX1+UDZ5aK4X5Zb3/3cp1wHwX8P5Y+UxwW/NpKakxagiOc8Z3Yo+HFFGpmNEdA7KQ6WtSloI3Ib6e3Tww1Ek+7D0tUqKegA7diBZtFsuVI6DvSbeo/qt2A5Pn23tHq4zErI8PyaH7x9zhHz08pVpq1wfmeERrTcGU1jSp58q0JjUkuyw56OGPu1NM3ng0dCw3NoQtLl+zbf2B6OTsly5VicCnKaKQrsmvCyZ7l/ANLUUf6IjW6KGTjph0rptAAA8pwZmRgTD2K/TboYMatWHwdXPJMqZpUZhLW0YSKocyWbJi+Y65OeAUkHomjDmQhJGFQkMp/LCzTYJGEWZmIsywr20+t9li5bGV22QKNnJJvKSXTRqwvqc06eQ6Jv54WERDKLoyWavbu29/bkyPcHWTb7y2QP1+MOSSyKxaUw/lzyZ9mBjMMHU5yejQmkX7xh5nKKbzMLVR5wQg1hOycHLf36EQ31BqnPv2CMzsRscmZhf6IG55xaSVLeBVoTgWy0M6jpka/7DhUx1Gzwnnh2mKvJPmqJ56M8y+qKsYQVm0ymcxIycgg8euX33bp+Wefeu0cid73QseCza3qn3l1y572nm7ahxZ5ny0vvfTSpt2PPiVaOMdN3LoDzvzrjEzAfXmMfBkG6ogKvx28Ggdmxpye7uZOwCz/ph6br18H1nxO3kzNToJZ4P3R4vsfpX3p7g3NL747ll4V74PH2QpkK5ydgbN/lZOrOXSlj3OU88KsZeUeXnJTdXU1hhvcqM6KWLUsy2aOXLM7s2EVzSfZPvSrXeN4onNVfOwLoFugcw+Z1U1wa9IUIF0gcmGK0XBj4EB/AU/WGfGdDGV6minNJpU/F/aL4QhT6VD/Nr+3f89Qa+MzpZSBfbJhXQ15s5SCUdDmjRryYulMqUrH5heHJo8pVsUvzJwNzqzwii9GjParDXPPjJbNTwtaVlCc6qVQq/UwJdeV0zh5lFU1zJF6+jr/OgdXmDddPKIbyz2gEMFYfDZSVgV7jbRWjdSWelRyYQKRKVPochjIh3chXksvsy36JeLFOZS/3W7kzI2FpUq5OJ+CM4t1M8HM2yNSa026oNDfO9B3zKxPXxvmnId55N/ibGjKc4+tTd/o7dT2WLR7dFhYrK/NwrSibNwHUTKn5ikZr6eLLz3/vNv++/X0GXEcZzkUiJgEEaSmVI4C0NTXAoAwUvraRNZC83+VCnxbPN/cNrFnmfVFBGcmnWXmzKwK05FHtm//oatVoyxVv9P3Japmvlwj1c3w5txcneVJSl7Js/vtQ5PD6p8rnsjrAFloFjh3QOIgO/S43CH7iUz3WJ+wDPfMDFlc/LLy4AUasATh0DA5T8kC8gtqn/jP19NnnIc1Q65VjrmVonVoAoGbgAaO5NEsgz4MFHcd5n4Ne0ky+kvmymOUfRHIhylkQ6qADZsppdPl5uAC+/aD+/a+Ln96dAoxm7U6rYK2mzCkslD3xS9JTk7720OHjm2MqSiKbEJjO2o2ODsvjP/V9XhoG6rtzDAbma9vWJiPzcLEebUl6x0CNHIMpwG2nMpphTbZoYzV01f/hzOyBxYGVeU78U4/AnfhoiWYZ5BH82YYX4t6aYRPkam/xX1bNHJ1YAyEucGXeTHFlpvZEhyORGK3Gb0Rbf03GDZ/Sny/Gj5stqibSYDS+hoWdCBzcn4ckpuHNzqkLIxG0M7IdJ8FzhmJyzzVx51Ksh53zvS1h8ng1M54qf2DssuSNfrKyspqDjTlY6HagOLLLn/4wf/sguWNdxVVgfcpZ0I9auwr1o8OTmCekaPiOpAM6EdQLjGPHQPOCM/0QbQxss3cxjjKyNieglELTAdrppA9sWNwCSQ7lVNs2IyYzXGGN4t1s5FwFnMwafsaj3Pn9oGdUKSIqfKPdcY4MjNTgtjahOZ2k0/QqgXqSo/aOJuMaB97+8ftbXx8YzMyMsLs4+LXlpSlahVKtTTiQOc7tayqNuu8/ygH+PTz7y72WBCjobCNZ8tUDT2APuhy4+SRI2svsxYI3kgxmyZkN5/Qxihi4wk3YjeSGbqmpL3b09wPYd3BVgVabu/s/BJ5dg1buYDhg8grWINfCRXvtVkKZ+T2kNTUkePq5FUpMiqdGZJ/buLq5OPLUkOU6rJ59rIwXxncGTjDEL59feznJ6Zkr3LwUijNZjNYoSx6a2KSPYpXXXb+6Wdc+99rkp28bD3Nn2HkzUlms6lyY/WRJfu2fQthbkmnN5wYQCrqgfAg/ZmlMZTp9aZeNn0vF9NmEss53d2M7Kco/KZejaI5YR3brAn8PWjjcWakvxzdCYUziMd/8JWpYz8pfk2Z74wUzBpk66KKCL9xBa5KubbKH7jKbACznUwms3/cTuYbDRpClE1iUUl+Mg2z0A0loGGsni5fmxj24En/MTvl0rIILXAGykp9kl6vSXZIj9GMTu4c4KvvIiXQhdFxyad5zkUmRe7DQt1FJ6igUMNDNqrexUQa2Xpg28EdQ60KzIve6cPTjKK5RgzanKn9FU/BdKJwhkQMF06JjndNTU7qPdfO94lC5TwbnPPyMn3mFZuVWs+GyGhfmQ0M/gy4H8dH39jo6Gifhf7xq7Pb/AJC+X+5UmCdODm0lay+/L9UT191w9k33Z/qBZYBgzmpkuh1BbUlbamj300Ovr2tv0f0MCZdgc80dDK2cLABt2gEsNBHCSdjBRl62dBwRP8Lcm6vLIGUaCktQy5dwUidKzYQzgQzX3J+VwWbcbCBuTT/Mct7ercRX3t0QVViprPBMFucfec3pA7jv+cxmXuYHVzZxg4ebQ+zs7GRyRC/w8Jk9v5BKyvARDBXVpuSpHo6Nbjtsv/Oqs51d84r8QgI4fUUMhLoV4csqAian1Vb7vXd0UODbx+YBlts5vlWxt8kugCwbqE7gaIBYRVlyuHs77PRNVCmMXMvFVNbXl2E7I4xCj5HzF7Ha6kE9jTDnUErcOPNTgFngcrAXmdVMx5n9DvNC8qDZB1Nf/c4S00S+/iCmONH8hsSw5zDmCsTyAxqDrZvBr41NjKtqKQsXaHW45UWymnMp0MWlGX/V7Yszzw7u8LTSft7/mXy1vpV1MVHhtnNTynznpycAtC9qK5Y+OT7zSzzhrty3pBKZRSshQgJ5MXs75OmTC7q5dxcaAJNDHS9skTx3KJF7xza+eWHpDsidjoZ5Y9IQqShriJugyQRKarSgXjSD8n1T6cmTaEV8yIz2dB5djgb4hqKFcc1FfHzwzJ8mRMzeEW87Sh6x0bDpeOeSMlu83ByVep5PU04a7SpxPe+8j8wyjr1rLvTtSGuzLz15sqNlSHBJfE20VFNIMTWJR85dnyK+NzfLhcXIsQLgmSojbk9xT1cGGXZciOFqB6K2OBmdiH9qv+m/plGFFMJYgcsUCSPiEuRucZHLFS9xetXOoyqD0wMTg6blB6rY3m/c5Y4R2UVJCuPe2U/aR8W7SM4Mbm1j0zAGYZ6OhpNMt+4x1ZCpzppY2WlSRxlhYTGBNxy91n/+m2dK3AfGFfpeJzC5rG3JqCsLn4hVpMgwxWdVeXn/d1k39DB9ulpbL8DaZHNS5/Jb8lm4swc+RHu5LrFxuZ+BOz9B1FLNS4qVKuRf4Hrt45gXiHgDOPLcvBmY67qjxwk2pl2ZPwi9MGOblT4lSQa8poYk3dWRZUhtsgzRGn2WG2DQkrGnmY7O7sZ/kwfyadRimfI5mc1FOSnh7iqqZoWkm8QETzLr/k3r07fccbpp9x8YaqThnFogDKCVfr6lUFxMuJQwmsMNonZqeajR6eGJg5gpCEMkKR7CW62jFRAzD58xAdbVixT6kUnTLAzAQL+2zuGtryuwJGLUUTsLxCykWUzehABLQbtj+g6KBm9x6xYFmlIwPnR5SjIDg5OHT2W5Ff3hKyJMcJmgzMpitlla/Xy0Ir46DAUVRxUZNsA2k5EmaFO5XRsmK/d/DRWT8sxn2bB25WNsiI87z/tlDP/pW3v2x+MXN3mR/0vZqgqlJqYtqJIXwOEE/PcEbnBsUurUJiPf3eoa6L9WxFomKQ/xD8yKSH6AHAAM1KvnJ5ve7pbAPMAKqlSdDmRfhHT73NYjUD2k+bNG9AdMe42Ogqqkn+4OqsD728beH/Dla7lcdEGPoyE/X2yDX39uFX6jQqPlXFR0TLyZBFnMjuYkI9xp86AZpHBJy6oyjMGqpHC8h2bT2tALmpI/HcCfeq8ZRV+lGeTK8P0Sa7JZcvSfDMQs/MM7pnO9NmeBBSPIXS/TXV0DqiBM+4MMt/jnD585PkY5deLjW5b2w9sG5/Ysw++rJEv8j5C6dfXSzcgZFNrRDQWtNEEo0ybBe1HYBY63QAc++8Qp+nDkCqgLUXGll1njTN4YZ6maqfylIUCzvxFFl5m7tPiHwA6OiMDHfAn49dWFacL3VAlS74hQQZy0cX/wisM1513TZtDcmgItcDQ/yIzh+TXZdkYosichXXDTLu0Ki/zsWNTqKO3LofxI2HcOJlENGp50XcQJajzvfGDyLBbX4UWRukzikM78S4nbEDAhvHNZikFW0rdEfy6NKvIlcU+p7i1p1reM927retVfeXwzwXzIt1Z0J41zjbzqgI2mjwa0mQcZylYM78GuvyvOfAopxG90Tp53D+F5tPq6koTrcjDNBqMp2+5/+azb/h3OfUF56VUBIQo5PxhVutRNOpNoW0pT2IMNFNuLc+Q8dh6rX742KHBAejtd6MJqmPuy2VhUPFIZjRiTjHd39vZvh0oD+1tfVVeiHqZZ18JFLJZa4RlYHifxbp5w5udmGapuOCzBSGcCvDm7m7ig5kq658uDrJavrA2Sz2D+cuCGzdiayPS1zmW48xAld5pfA1GsItYh2Xi1zw2Mquhwi9GSSUWPFrIU0MXBJfM+1el3udedNkqDzTAKGhj1O6t8UqNCEnSlK32jyWcRaMpQFRkUJXfEdTRO7v2jLf3U/Dmtph9zIH7LoZh9rB1aydF64N7BvYNvdL6eqMCP350inz5608C4cyUfxHKDGcpBYPeskrFBCO50KR0qJadIJvu3f/LztHKwp/Xr30yw90wi6AN40vuBgP0mV31XiVP2vhG+9pwTEVgEbdn5N2/f7ZBjRUdHStbmPhYQ0FwshZpC10nZThrtMn55Zedc+W5/xb13zPPujuC9trJvJMqzYoFweUF6XrX/IY0pg0gGeUy0XHZVEcfndqy48fO/uUwlMX0gRsFamCtW9P5HvwYT/LeJaHPFWKuWQomAXPldaxg3kDGxGX4vJnXzbTHrqOliz9IvTJTdfd0976345C5cviNVfGRGexpniXOBmKbpPglKRWetT5IpWVAVTJ7bnYyZOHSZ7EdCqydM8Jsnlhb4Kn1Nm+EeqSYeodCWfDSs+584KR/hZ1T7unFmtmcyRzqWVW3usFTr3RY+YTvH3BG6M6LzYIY+1E9hky/7JnYtr29vbMXwVm0A+9t37592/j4xNt7dsCRt7S+qpHTT0Xu1fcpho/oZMNq2KYFoQtjfyLWzVvdQAWzVHnmKYCKgnb7/oGdk5WFbwTX2sUiHZ4NyIRzJvGFYu1XxmyUJ5fHR9MIg3C2EYx7tNQXEz5LXRTqm0Q/nkYtMi9kqWI5DQtNDy5Yfdc/fr5x+7U3XnLz/RFO1AKjAaQJ2yjFy/z9/ecVJ+kjSuJ9LHGm8NcUJfMvKvCIUZsnp/pe6drx9sT+8fH9E9wOIkzv2Leva2jwlb1blrzaqHgDP3j0nam+nZ9++T3KZTgzS7+4JwfSRwFvsW42GsE1EVXbxa15Mh0L2l19R6rNP7et9c90R3o4a5wzDR3uC7N+Hf2usazBH70uwGiBM4wBLLa7BbjF1BsJGbGLIhNRlDgsIJ3QJIGHgITMr/juiy86/bp/9HD6wbB5BZ5e/FfTW62v3lgdGrzsyQ5DtP8qszkZUx2OszOZuECMejrsiTrPRcPDx4eT3mkd3LdjYAewJevqGnplb+sSPALeT6NMJqsv9H6nj1gENJNi9TIeZSG5Bs48aIt18wdUNyO5trjCICTzuRS0Bw4NDw8XFgdFSgni34LsDmfMNDTFptU9f/SnJdngC2WARyLgLJmUlQlYU+pt4dRRBufoyMewwiEHuYgfVuEFNVQki+bn/YOpRb8xdyUwjW5V2DXu+77v+25tUSQtAqWrLQUrbQNtoavtQCmlNu/VZQRbW6rEtiyKAsqMETRqXqJDMhqX0bg+MsanUXzGJWM0ImAebqPO8/mde/tz+fmBaYFR7yh9LW1p+/Wee5bvfOdZL3OW4F2woJnoyzr3SHUxqb3YZorP9Q0NVBNKnGlHX0x5k8tz/fd+BQ+8cPnTX5PWp7Hee/nSBReGYMHpwrp6zzXaytjJbyMhVhYvc5i5xZbII0xUGy4Yj5uZ7y5aeJhuHBi8d//m33durt8WzBUzprF64maR8oSzrS1MNW/v/GQ+o0qFtISjEmcs8sdEPC2u83g6EFJlYgszU/0g2rBeHR0tqEh2VJes/7fUome/6MnZlaZmN6s020CV6WuezFqjnrbzKW1szmIbWC2oaNtIOIsG4sGxkC82P5Mb7fkIVeM3NzfMZihFYqTw+9//fs6VvACAgfCf/viXX//ufdy/ZtEyN9XSD2G030dGm2Kxt0qiFKKrlkogmDOHZCfi5uBcwREi6kf9OAPlixd9pWCrDc02cKGNlOpU4kxLyo/hkuPMLkU8jXSoD+f0an8PkamGADRTkQS3CGTv/1ORk+eEi7nuHjMzPjT4x+CaLCY1pFAeUseqOktzbkEDnPmWkHCWNBQHU+r0cqX3Xtdtn5heW5vFDDEb+pY/gPhy4+rVS5cuX8GB/Jdf40SGuSZ7zXxsaRcT2PwHhxmLiVJAPJ2XmLlEu5TXxm7+IvFCr02vfeK2XCEaQl+kQPimOMNowywlV4dsrQNZ8EhQnCLclEuBs7hki8hFg+fHTL40ud66vnE6paXuaVd7fuH/Ul/wgQ9DloekeTk5yBLsyC/E1ZTtS5m08bzd0NlU9EqN4wpNgHMAOpxOLM+sdrnGp2c/tHXPFWzgO2kTYxfzffw7QpN64thuBqJ7mS+BM8FM+m9clAK+F2cGiemE6Hxlw0G/hXrz9DuHVxYzobF6+CPCCUsNXrwY0Mz3X7c1rybAIwFwR+GsoQsGqeyyZsQ5uQgdHL6wtZjPDbt1tj6uIqkjVn/HyvNf+X8XTT/9pSg1Y4A7wWwYmp212TvKSW9gMGCEeTIawzM9uuBIOSq4GvRT7njjw06F/JFyu216dgJtjti+f/kLwfs+ouRSmEz8AYqSgfZnxIGMJZxtKW7Gbn4PxVNitGiNJPRmqoJgtNFdm2tra8F82pdiX73GcD6vis1curH5k6VkCvGV9wicxcaVX0q7nPluwBpNHB5fbLna3mMDEVbqnoYW2cgLXviwl/5/pUIfnJhpstsZyvSlNHTnsmltqK0lpFIRTcqfbTb3dJf8UtlPKehCZx587zFNema4tW+W6a2SnIi0g4Eyx1lsYYEz38+83gz5NzLab2WiFELKmUhCFEXfjnn94P+C2jlt6JxzagPnRH/NTRe/G/gFjmJu48aFqt6favEwvPg6iDM2tLqW5haXDOe974AXydDUIAocjFvk1vHiNCd79wxAt+j+9/v/WY958OPhgfHNDHU8i2skn4hrArBJWl5+9ZVH7e6efPg8cB5U4CyV7cE+OJdS62eaXNPbJPfFcKU4CVjzxay1tARphJbUKCfFzbdL02ml4gVgBn33hz/8+je+9/0rm5vbGD9m9dEfFhFVPc42vcox/VSn7fpwOawJBYx7eU0lzoCU71z5Je4ncRLYTfDHTCaNH/13c+1BfMknpPqGu7t96omPeMJzH/J/0qjzqOVJzg4imKfXDaMVawifX0Dr9WpYWsBb7IIfXo0DTHi2SpylTY1g+pw6VhpYn57Y+P07eHFCbFZ+Kfwu/KwdyjyiIjFHHje/BzxtCpplU3SAMxEUvvA9KLTeWLNhvkmK15sbwJm/xkCxE4zGXicslVEreEJKnPmvlJe0RJbU61V5UKkd1IYTMx09Q+uUC8WG5kycgcmSVfv/kQpF3WLEzFCmETA6TFF1ZgJI7ZlU3hoZTr3Qi5bgqRh2g4islAJ7rDjt8Vor936lb/sa9CZYTpMglAy1YonbeDxFlD8w/m5nohQUNNf2M9Wa4X5//bs/Iw9su695aikWGuT15kacbcrJexzVrYnW5plkingkfJM2sJ+lwHof0CpjKAB/VRPWF6vtQbtUnCaggyOTM/P/D+OHH/nwJ3YMM+YIYB6fxpjz5TjxHE1SaQ71HG1idaB1vNc6NnhRFsMorDdWy1jUme9///o21KA+yYDGTpUBzX4exPzDTMtRSna+VRqCIJ3Pb2atOV/98Y++fWXz+vYGBrR7Pee4t9CQEwbGkye88PGdnffOFbznUkae8mQ/lDhLv1JcqgSFjFvvWnnapPahp7apB/Ufqb7h6unuz7380f97qvfDy5PBVh0tYq1OdK4sOALn25A98Hpr78uUMlkrI61r7c5QiwJn5aa+OOaLVHrwRu/5PeoUMN38jAbOwq/m9lu+sznM8LQ5T5twlvxtZMDQmvPnz/7re9++OjF9fWukYsV89rqTneIFjgFnr7Ny+fr2T5aTJmSAGHqHu2KiHi2/5LAKUy8lRMl4D8J4I6kI6QsmUKWr9W8MrCz+r/2xJzxxctSFl8NY+Jae/kohrAmMhZAkYjBznD2RmXbz+si8cezmOCPva4omqgPmiW1EV79DrEymm6+j9jNPjmC8L7hgxDDaIyDx+Jlao2n46/fuuPOe7aHWzslyJNp2EWdEI7tZUm69GC/1m3c27kv7TW0e4CzBpcRZCqxriIpLEU/XHijlTWC9iVq0MDM5ANcby1JrvutafeL/dBbaIx/9xBcEXRTYG/rQHtfaW44gsQ+bLb7kwHksFCv3mtcHljUBRe5JabzJeketpdFxjMe/84+UAOOKBEcu3tyMLnYMu4A+57u4mCMFzZw9yPwvmgeMaGptfWg0n/DjnK2n3qwkeSIytObA2Owse7UmfjQJ/ojcFZMyn1JKTHbJMa/hLApcRkANv8YxjwxZ38QsG2HJpzIMv+B5D3vp/6y48Yh8L+ZH1oy2zt2ejUVD58YQTnGjjXfBcA7Elyftu51lv+mcwPk4raaAzzrnGvoQZHapwZU73Yevd0iLKhe/uP12GO39UyeZgudb0TN7NzqwQNIeMqBu5g98DngJo103ziDxp4xLA+MWey7BPBD1fpzVCuNN/3k4zvgP+b3xTLz/LjA2lqIueWxpA6nD1mrT7oGufOJlz73f/2I95RHPax9ww7DwVOfwCtST8IU01ZxLgXMqPL/i2u2ZiavqwRkJ7xaPb3Gq+SOf6LsKmTeEz/vjZqXBhslGqhMe2Btvfzs11wBoUZqiPOcX7gadH0HzpmF0ZSniRW2F4ruT4NzmjVU3rpvbs0kkNxg4Cp6QDGe1ZK8Vl+LewspLbG9EKixv4jJMTOCDrZWm21fRN32//8F6dLWLzwvQ9YG82DqV8IUuDnpEfChw9jur7l1XJRIdrAtnxFdjjsWVe6enP/GBKyQaJFEJDrXYUnKEMYxkOkLQ34Wb/bdv3v2rOy7b1m6sWQZm0qrURWkzt+BfgziHksWPb+9ezls1n2sx1d6lst9GWiLjqT54KTf14pSmaFoLf7XNmJmvjpjRqySp9eOT7lz9X/hjD3hhRzejFJALZh8BLQOpTkoQiWiS45xK+SIznbvmFdZDrthGCmcH+h4hYyZdXL33Kx/4BIntIjF2uMWmkPkd6G2GA4bsCBiD1HRBi8w1+KK4/tW7v/G9f//+ylafZWsAhVIvQqO6U9pK/YLoYi6IuvNCWDsIfoFacDql/SwiY/7mj9rPEs4yvpEoZLWlPOp4AhInzB+z8WNa5+qq/td53jDaL+h0MVInas2W/hlrxsgaUGowC5yNgUA0me3ebZ1cdLTdDGdKRMITifr9/uRipf8jf92C5YYrpoyXCWQsMtk/B8pQcsTiE6jYKEpwvtFUA9Xen951z/b2rK05V9L7jKhOsemvjePMXDf0kFiGNqpJInnW+AUynpAMP3H94KUy6hb+GD2URdNGdThRmhww9PHSNBnv4OgLnveghz/kv8kqegTieXhgrD41oQtWI2j2bTN5o17pXQqcQwFNeGl4XYca1tgxOLNbgTOexR9P+rT4Qlfv/asNGxo4K+NlDjM6LtjBjGIzIOapToqokMxGmRkTTSDODELp2rh7ajlJQXPddQtlfySYMYmu9XHD8JKGUmHqfe90zyILnLGOwpmvo+uZMN7E9T7fookVp6AqSbwiiSo43FGOv+7ZdcN0eqMNChvjgZESRcdMws/qFl4OswxnrSek8i/0r+m6ZtKpm+BM7lFInQnH436vN5Ms999m2Ljyx0/CbnPZINHWTIxOZrGxmWn8OrrgWUaE2t+JAf5W9Od8A/pDd94D/0s3kJspOFRjF8lmnxhn5N5ngpCqqVpNLR653ZKMt4Zjzm8h6I+Mn4/FmepY0C1C9wZTF3QZ9lQvXEFkvBdudXpMtLy+8AVEKjCbLTS9aSQb13jQlSC+yDKcTR6tN9ExrRutWgPHbCdO3h8Laf1xrLDfF/UWplythnv+9GEwd3lKTOgHfZ472bDYxOnESVxTvyBzTczvT30dtF1UphAy97mbSla/lilSwGafDOcWRAGOYu/WjY2pQqZt0ONloaPAGUvWjyFdoS+A/FLwh47GWWqTB9Pbn0B78cQ0ScNyFZvO0d4nPfm/U5d+RLWjUypQTbj681YK+0yaKF6c8lVrqayjnxzSNU8WPMD5mNoutaVofeFkMu4Ih/0arbXSbbdt/P59xC9gRSvRIlfby29613tIMR0LyS/met1O9vqrX/juz77377uubVHlfmCqnFZhPzbkfylTYedMianO7d33ZuOqFuTs6IRSkP9Ef5Uyua0Rl4SzLOBW4kxfI/i18EkzTsyFghc0tKdCFpxa/m9Iej/yCc+jZkjEzTakYc1IgvkCAaafdRjOakYpSc/pWt39y1qKXI/8LIFDCjA7ADNWJqqNzIy4+zZ/j9aa/QwDVpfCsUzuF7Ve8Tnd2Mpo1LkdDfDU/04+9j1bmxZDsKm6pA+ryP/C058UZ0ZX9JeCtr7tXEJlIouq5JFwzIRxZmAq+m+4NVez68pClzANdDdyx/DFT84jH4Vi4HgfVyFzjU4+8RG3nj72sHw7uLaU7ByHV9KdRRWyBcVmyYopcKbYP5lHBbozq8GnfSTO9Fl6ovFknHazIx6OQqq+I9i3eeevwf/7JN/NnJwN/SAm+oaQmfyvmggYQuUv4zo1wP/721e2d3d3123UKKBOgRwAQ8JBPhnO5xEvxyZ3rtsgFtYC9t9h56tosJL6btTK/hvxe6RED8dZLCpZgsDWok4Wc3bb9No4aht8Rtbw6jNuNdBPeHlugDnakJaZdTXNWLVUbAbOR7MeTQFHCXk8+4wPYCppd3vz3WD7/QxnLMI5tjTZ3Ld9hSbtA2dutGtVZqhovwsRM0Jm4Iz+aFjsb34VwfLP/vmjf3//S3de29iceL8L7td8UhtAOVRMHGscZCw05hvjS8PXd4KrhShobwIhxeLWWbmfRXxdS5iI4qTqiAWcWTA9ZvKCQNbUwwrT2NJ84PTzb2kojXpzO3TPsGxDODE6lpJReAswQUe9a9yOIMFfbA9aLNUwaLFKqsFe8dmjyTj24xxfnBv+wPYVCL+h82K/iPbPP4ZGSKD7Vl6Ugp7fB29/6xe++8sf/fTbd5K93p6wmaH9saR3wEEc5DyWU+LsX5y8urvdOx83gikDgBTm6/i+G3l8LX6vVh+D816fDpzTZHGVpAWlPGhw4AXPu4U1LNSb4RTQMvTNDpmbZ+L4FNhpddRXEksVavHOTzbbhlbjgcHPXRQ4y1ozkAfDu4ljSThT79XIbRPXMOMCOPPiM4m+AeYfguj3Vmk0NELlLyMl8q9/QpTmat/0Gtpppt85QOXH0HkeMp8MZGFrwENPV4Pbuxt5vyoAeqPCaCvBPjTjKSRMRAb02MXupmWtBOHFlWHbOJJSNQmyYNdjX3m/W7Ueh3oz6YGxzhoXerO9YxQ3H/mu1WqOs9pZGbWN52DjlThzTxv9RsZomLtgEs5ICHW9c+gaahnAmU8MRGGKFBxJLJ3kJyiSwoTBr95NojS/v3JpA19A1PHuHYbFjlE3iAiZT44zXltIXfw7AvGPL5BnZKwPZ3nQzI35nosmYV8PztQ4nRpD3qiUG7DzPCi1xne/4EG3xnRDquBJHZ2s3mwZgvPXX/arQmMerSw4UFoxwhkuFZjZ7QVfSMJZEbaMGaMZh4RzmOOsz3a880PX/vSXtzGcJRHtj33qU58iqU4+7wCSFt/87q9+iiBqe2f8E7dBwqd3tVKaT6o9bcLJPg3OxHHxxu7bur41nE+ew/s9NMlRR98NP40lPgn+s779zHneaJHXxucro6S318fiK1fwBS+8Nab7wYtzA5wkhLjZPppPj42NBUxq5oIdh7OnxZhczFnWRouYgg2c2ToYUoU0AJciZ4KZcPZpw9aljo/Q3MB3AGdeg4TR/gVkACFHwXhB4PxhWBWJxV1F3DFx21fu7ZqqZJcL1rg30HK+Dp2o+kQqjOny33euX76v4EPyU6SDjjtcFTjvd8X3uWRYN8NZw/yx1GCLMZOoDLtsE33c70bL3QtvwY5++oMfD+Xd1lZOxtc1gQDdwhO9x71bRn1qMzmg9LjeDTlAJc5SHswXpyXstg9i5cuTX/nApd//kXAWRhv9cbw5Dicz4igQgu66Z8Ny21eCo70r+fKCMxJL0qNN2M+nxpmXSf1LTRd2JpqW4yo42/uc6GNxPmC3+UOkPYzrN30KkT6tSQB7TH59earbgKSJhVP5X/D8p5w5zq9PrLrsxOC1QI+iD4GkKYXqnPd4l7FGcTP5I3O69WA1ET0cZ/iw0TDgYTiHwwxnfzScnp8CzhhcA5yl4VPvedenpGZmTBaDWO/3vnRpe31t/J3dkzOL1iQAhgZ21J8Je+Fqnx7ncxSTxaYQQ+qqca1Up9IeGVopi89YsvhZI4+f68FZw2lFqfODHni0bhuE6mvTVabOPI5+4JNL7bqaVMGseWQuoaIBASJuPmY/49PxJfOuNffkckaGs1SkGqwdzvHa4cyW3wcB1BXXbVfv/Mfv/vBJmtBNuxkTLngzM4B+16cw3vVH376ESP4r96JtOBFxZPxRr1od9SFA82kDY4inTgMy1+X1+Iqja332dhDcPIwtoyw2K9fB0IoeInpwxP6WPcUx+W5uFzE9Kb48N8IadGpx9OPPdEe/+DkPq/Q260BrYPzd0RmrPzQWYkT1mzokSOqAx1gKTrs6sg7ZeE7pcB7D4RzHkiBmlxlkuvVzPbddpRL0h9/HJx+85VOgBsFqs0QnRD5/dgdCqT5zc29+0ZkMZ/z+DP6PHzjqM15j4FQ4t3CcW/yJlau7WxheFKj1RyqLzcrF6hWyfhsOsygzS0+hPnJT8y0vqAxa0iBT+ZEOxoAsNh0LVY0XPvosaWOv8pdHeuyEM1wwm2GF6s1jIm4+ZhHOJlCelobJdYsBZ/mGQYoMaVMfc8GwOMwMZ3/YEanc+07C+aPAmdIjqDNLzTQYXoJU9reuYArDh7pXkWTXGMEax2NoAeaYw48kCUunn2o/nw9ZKwPbNy7l05pzVKci5BQ8T8WSQJTztQXRu46n4GxRQQ7ea9FJRcCH3xP+bS9ZzxDoR83Pkfgba2I3DEwu+lOBAIub68FZa0LJaqHdgkqLdZCVMuRFKsCcof3r89FerCGFzZnhOF9Da8Yn2eSDt/6Q6sxcRw4RFebyY4rvbRg4MR+J+3zRaNS3h3M86QiDP4JnPwXORHsIZLLD5s3tn8zj2VL0zRbkH5Usc1lH383+fhspnj7cJOAhgnskqlhs9EbKD901JEG56R6YnHn42fVJP36uy23mPVSzEPdzmJDWoBddB84aNWMxOiftZnN7oo26qATOjFpg9FEdMqrCF7YGFStMAud0/t73my/diRac30rjapirjR/opfnxt76GBgtX74zTh4fhG5LJSIafnQKQD2k5GdBCpCLg1ee2J7aC+XiIuLxy8s9x+U+hAynXgxRRmShWKp5CMgHyr0dNpR8j0SKVoK6PUwTdA03PeM4zzwjmpz5vpNNObRfUct9ejBrR+nt03Kw0YCZPIFLttNsGliHVxckGe7mmMTBIHGE6V8PYhLgA0IRzBsDF8vd+xHzhzr98B5WLj739dkqC1YZ5v/3tb/n6L79v6PvQbf0lZ9hj5Bab/i+QdnhZJ+JJjXYLtcGq06Xu9Z3g1LwXdapDyPZHZgL573ksxS8FzrK7KFSpOM6oYmCJXwpKUapt0LuQ6zZw3hj6NSqR55wRgeT5L+ik7UwyGj0dpRi+2h7EkfXiTJ5YW7LU7x7qyWrHzgmcmWH0qLy+TCaTtM4XS6VlZywcBeDcboeT6Hs3X/j975Ad+Zg0MRAaFFB6u/1TX/juj+4ct7lGKk6cxHgMYSxQJssNlzs0dmKckSBBf2ey1NW6bsgtJLVtIW295B+REpNMvHiI2LySAVfijD/kjeIYA5lBThXklKJAmzE+P9c5ROUr8A7cvdmHnY2Y4zMe221n2iMTa0P92bQKWSGGX304Y8HzhVBNz6wu7wuh7Xg/ziktKEIIhCLFam4Eg+4TDlU0w8JogA81drv56rf/if0LBgGoftKCE3b3b+64Z/22Echtab0MZY60dAmcyeVOnRzn8+jbGCt0WcbXe0rI8KZMgsKn2JxiHdt3w2CW4yzbzxLfE199BA1KnPlfNKWQhVzooMiHjmj7cO/zz4YnBGVWTvqzWXoqGGRyjtTRGsP5nK9QbZ62zcVVbUJHjPH+VDhaHRi9OTkMvaLujnyCO2PAGbdn++0XLnz7Z0x6m1P9+HxXjC/5xg/u2lj/yuRy2osciwi8sfZwDvtUocYPaNEA1GIM5y+M21pzCY+HdDxFnZEHTSKErkNyiFt5Ja9gD3pBN9PA3cCKSr+Ss0GJWhkIxIhsg9BHR1PjX30GpavnPvyFo0zM0TIxrevGQeWBQ6JQzTq+dgOcvdbS8PRQTu9LSTizyDlgou2rx+A2O76eOP0xTd3hj/oJLmRKyl2uC5e+/7O304LVRkgF040jGmN8f/X99xr+ei/uHdXQvQ8izePxqIl59CfE2ZRcat/eudC7FEa+U73XMSNLfhxHOTjIzz+UD8aR5vfnMXOUpQF8UVyl74WiEMZMN4kdUxQNoO3ukec/7vRDQMsdrWzZZtfd4OEMnguo6zTaggwYGFQli/07O+2LDs9+nFPUdRe3LvW2jq9hfMH0+m5f70LaD5pYnHDOlNvdl4AztVdwTVYm+gZa5we//qOvXX3/h7qW8YEgKmNLabrj4HlK2c8Gcab6RXS59+r1638vx4yfG1P5ovLi003zn+JuymKzMnUmSV2gYOAjY+bzSqlSxb0RRwcGTb7InHl8iBcpg5NLDz9l9eL+5ZVRPuSij/FHvKB2No4zSpPhQsf4+Eg2beQd5nyfBUzecJpUlfps9uaRjib79FAzRiyofZlwGO8V08F7YLd/xbmcrETFPG4c1p/9wTWD7iuTBYq6gapicZwz6tBYS2M4i5y7Ub96YWv76n0QUx8MqaJeuZjMzeoZyr6b43HmbrbKS28nTOlbXBOPUqSSPVp/scllQTMMFaP7px5/qkT3S57zjMnRIBfTHjJ3zyRNHvwFemeN4exJGX3Q7R3vrjgl/UemUhFChWNxqmdofFrXkV10zucsmGY252RuCA7o8FIHRmB96Z+MT0AlZ95UAy/sm9+9YwuElqqe7ipCKtklTmhH1BQAzo332SBLp4qX3nt9+8JPlumkMqq9ooJMEHA69k1CaNn5fFOc2f71U54/E2UGXPxK6eB5xjAcqt2OvBgrXTW/8GEvOgXOL0rODLjtzNWetpBI57mUSbzk+nE2oZ6XnLNMBHOLXjbzjWs6oUyVLs51T6zP2kZKSb/Kl21GIb2/SMbYX8PZrrsL/jbD+U01nHE6f/Zn396eAAM/rfZxmGU4kzEIU/Iz7kP2vzGc6a4UOgfixd7NG1tdpTTIFFLaQpA11Qp7fFqcteRn+x2xWJwV3RQpUbmXjpyuz5kfGB+38ZacpiXHs04z1HcqiJCKyJ0TwZX5uKmFoshGcVaT4Kk2POOyuUezfqYLyHm8pow1m3MbJoaaQeciKZPEKrS5Lles8ajGl+E4mw13fQ99chxnpMPeRPVI6BPcuTPRPbcYV/kUVjtMXxNfhvYzdoZxjNvthow2HhJdbnJvXx+gig2cRYKJb9z9/TVqgcRp7TbD1RdmeTwYbZFTOwJnYyClyhQmW202WG6ot41WF09huR8/NUKDa6iT3da17MWTE3+kcZwp9RktD0CitOIgnAe5VK8qUu7d2F2bcM3p/Ubc0uJYhtbeZm8xrTF6gVZmCTPtLHd97+t7OLO68wf/hnlE1yiW12e4yxYWxpr5MBoNYmqEVpT8DDSOMxTgAxBrxdT9SSua92tKJKLYpChC1FGCvhnOJiMcsJgV9RfvvkFYSpzZrYw1FkLufcBsw44Gzp3tq089Rb6zv9PMlJb77GxKAL1lSsY1jDP4EKqFDnerbTJ2HosEAM+HomDiY+SNpXtqwW8KUBI0mp65vLs5XC34tFHgjKkyQbPtaxxnJD25KAWGQn73W3ddnX5nbj7tV4v9zO11xs8XnfBAHSc0QVwX0mIi/3ltMgvButaRcgZFZ+N+p1oaNcdwPqaCrOT1Ku8oMmBYdDTH0oBZvS+rcmTiHI8JtKgSc6O6WZ7n7u560IkJYY+X8p2ztlEknqQUb/1OmIgjQTZwrgzoZtudY0zPE1h7I9mfbG1vD43MOMNwINE3hr6b+fadPld/Ng67jTB6carb3nfnj35ByW0aKQvDzTpsfnnHezdgBSJx3Gd/kiTDqlY442JIkkRxdMdjfm0AsVUDONMETMp3GnZt7dmICoezsKDymoJSr0IJofT7o/pspOGEOJrjYDw5fBp++5HfHtE6HWrxOObngmxaPElbPO9xjzkZhSRR6WYKhHC2LZOJDElmsdR6wzhjmcg/7NKtdy9CwP5zTL8rXu7YurG77a4kQ2OglHjJFIXgrdls5moajhiAmp8bdfVdIZzf/XY2hao2qv9XX9p4/wfuLfGyB21bCWcvxZ+xRMGpT0a1GqRgIuRyc5zrzY8g3xlYGB1au2GeCauhp6vxKnMcSr2KIyyZrO9GGH8BpoZz8TWAOYEXqzLdrN7LccaLMrWNaX3FERIxoR1tzxWffLJE2ExvkOc7La2jWYfKkyIxxxPjnIov5cy7PVk/mzPZonWUf3Jh8/pWf94ZDQQQrfEuE3921N5HjQ8ZBKxIlo64hq586wtffxfHmXqcQfH8wo+u9BlcHUVYdphq4X9RMJ10LuencpOTMwuRONXAKPlZN864D3BO+az3bYxvbkwmSNvQuC+/KduHsuLyUTjL+ugOSI1JNhtflWgmCSPk8PNEjLoOnJmEgMdknQu2kuAmgqv+6jNOoFTziuc8qWPYzfKds63Dc3pTrYu/sSQJlqQjNhYuzF3YNVdimkHgbEqinXhnu280S+VDj5GHIalz2sRcN9zcrNUBAxZNVPrdDOf3EM44nCm1jVLVv++Z1Q3MFbBhhf/lQNSJ7vgFdBcawJ/CxHRnGME18sQmDLSpF2cS+Fcnqu/d2bkMOhs7qfYP7z5EZ+KYTIn4PS7lVCNhtJEDo3DKGklmEE/R7TcngYoBpZlirhO5DcK5uf/lT37RixvNkAzGKkF2OEMAPLi6HKb+J0m0stEjmuPss+Z7dreoURxGG6/vwvXdzeZKGp9uygQzhIW5wSHKKd+4cN98Ep8AcO5iOH+TcGYTA98Ipai7f/btzTV7Rymi1WQYRzTMd3NUHY4sVkfsrPnGFuzNRhwUiBOvpK6jWQqpYvnuLYg7LsZNF8eMIl5WxrKiBnWkZyKTfpRwFhsb9hy3+ePpiD4d3qN611UcwoLEImuBgDKajtQOOha0jarJPStamASPl82IZPlOgCFJKXkbDq3wklKYbFPu3rV0lCFEb/Iv5DY2dza7oA7TRhKC/JWjvBTyW1e2djc64AEZtV7g7JrYs9sInoHzl5ki/nRwbjFGPiqnFITDPi+owYvVrk6DTedCMLi1dbW9spimOq42QOm3+lzt820qR/nvm1tbw1mHOtTGZBqOoveoxTrSwh4sQYvdLxltKuSkrWm4YCotu7kOnGnx1iskFKvuIUYisruQbHpIo6dzJNvF89o2XU8lZhT5TsSmWA3jTHH94si6bTQfCbX5E/dd3d0Z6iyFMaCNDeKUqN4gNJbc65aBuYTaaNQ4gfP4lW9xP4wnw97zt6/+6o5P982OlvQO4ByukcH8GqMmtrASxFaedvfmOvqv7lzfbIauLoBW4dyvC2dS8GR5sN3NgUok1bbX6sxRbhxnyRTgUh4Ui7qFUZNJRvT6GIun8JC6cabHw33wqIsjcKFYtqR5ZeH+jZILinPDyKgZwPsLdhR9Y+wt89fnjZJsA/9zdeOs9aAZ3tk7S8Fy1Ju4b2Abn2VVb6pJdde+6EYiYS2OTFjsTUW/yqjS5/td49ewnznOcMXe/J4vf/ZHd13q+0DHciyjpqiKGW7EV5l0eWrAghRqz2R5uVz6ycbOtm04H6FksTEkkmLHG+2WFGL2y9vXL1cL/kEp+cegaeisEjiLuIrw5mZczkPwJ61Wa9rBU9qN1YfUWryzlHWuWzc+YSE+d0fl0Y9sMEXycvC1Wf3C3DQTYV2/UjyoAc48mG8EZxMq9ekVQ2uwvRSx3ndhc2JntGT1pcbwWQoHhbRMU9ZVl87WOZOMGo3WfL8dOH+W223ibYP/992fXtqwfGXV6ciwGgZTrfF6Y4WZj29sDg0Fc6VEGBzC4uTlrZ2tfrS6e+vG+TwOlMLkFoZoTSVQ0kTRWSOrSzWM8/48iUpEZ8IF08LRRjyFaF8tjHYjz448N95qD6bPEJ97oOmJ929MX+yVHcOMRDKx5p5z+tvOh7xRTS0e1PiAs0jN10sGBISOmR6Xu3m1CN24XTSyJGFOiQW+36qhu8RRguShZRUiQaEIw/kHP8bId/hhfOr323/5bXR7d+ZjLKgiPRM/Xg213m7e2N1pnZzPmChA982vXti9vgXeAv62py6cQV2LWisXbkCje0kD5WGSEZcFyQ3jrFB+PGi0VSDGJRYi3AVruA6IE9Q0eFGVzo6iFYfrEU1ZxxoC+vmjnS6uqz2ajXt5tkCNxfYzlrpBnNU028W31IVnHeiFHndf98p8FEbbw1IvQtUBjC4/KpXTQx2LSXVA4Mz3Mzrnvv6F7905belpKjuifqlq4Q1HFqrDcOw2+isLcaZZfk4bX5i8urm59ZNyLIPQnzfIHg0yJ2trcKBsXYcXmDa2hfCNJjdEKerYEM6i3iE70aX6VDJitYJ9zqV9G89LeEG9NfoTU9SKYyD2Z8ey/1kNeNv3f2HQRUq8ON5z88RIMkohIDufQa5oEGfsWfS7J1ZGzSiNoxUvmI/4Pfgs2e9EdFmjGA1M7wzP6KMpgTM/n9/zQQxh/8G1dctodd6v9jMqQRS0b5S9Lm/vbF7IFeNIf4VMbAaYbzF3eRNjXRdjmlCq7aYRFZG1I/dd3d4eH1mCXDzx/vhrOr7Ppu4+aKEbthc3M6Otj7E6JN37BHkJLWWMHaXuVtQgiP05knc20J/x0sSKndUvIEBfjYSQytfuy8SQD9swzhQ0mSKlptY1DIed0OWcHpJY0XgPcCiJYhRfbN9ZC6K4kUrLcX4DOiTv/tX379l9fwdEWVkrrcOv1vjhIpu3r+9cyi2FKYDyoOINu9AWX4Ky2/ZwpYAqCXBWbOmDsy7VkezwdUrExjAMIwRDI8BViDqq6wZD3n+Df/viZnjaCavjkLi5kfMQ9Yz5XKeFTznrnsw2UJ98MlKUJNI63kcGEs0XsiRQ4zirOc6e+OKkGfohE51Ty+G2lNS6s684A9MBnRL9pG3W3p91UErcNbuH85sQPP8Zyvhbu66VhVgU+FK3TtSRKPVe2NncGKgW4mo6CmB7VDDeqWgsO7rT1wqnO2oaxDpUP0wy2nCu9dUBpOhGkYilzm6VRjTZyEjYjeKsmDsoxc1IaeuRBvPjqsIFa8hO0v4xr00Qhainf6qBzrpH59vxGKpToUbovTjG8BDJvsZwFvoVSILMmXfX1w1TzkwIuSa1lGsSY0Oox1gTr5gnDD3VWAjUGIEz8mEQqfjZTz+9tX5vHlSEaIZipqjfmsf0/xtwrSMm1qvLY3ycNSZj5L5WCOZ0YAgPKVoNHo3zuYtt6nj+0vXrOz15hzqA8EIjlvT6BA+wMUvG4NiXEhNxszMR4fVmtfqEOGN5BqEaWO3hONuDw0962dPqDZ6fNDXKcB43wCXRUp1KJrbs9fm8qsb8BuCMURlRKMatz1pGyj7T2DkaZSbFLASNpLpiMvqy3RaLJefURkq9bobzWwlncsO+gL52y/RIORkmapE/Gk06S1227Z3tv89YfYOD2IfYhpL2FgStOtyza50IhiHvKYYlKFwwbHWNtfT37d3tnqkEWpiITuGVjQysgS3c4jozGiL6pkuOMzfhtJtRVvPttUI3vpgnRiUijaM8Aj0LXqCsRF5VH8zPvP/LuzrZHMEh+2rBYeTf7gM4qxuzNHiLxgAUwrLN0/b2mYgnFaCwZZ8KopA2NoW0C70u2+zIYtSKuUmz1/7NcX4jpIW+efcPrm0Z3p+bzzCKs8/nWKhialLfpZ9k0/A9A8QTBsSwuWTQ2lTppQ7Lug45uABv7KJ1WNwcUluriLd3BvKJTCoFV1sUo0T8rCg614Ozcu6gmmyY1xeHC4baBa7Anp8cZ55cUjmn7AZ0v8Hldk0tvKy+StWYM9fpbmWp7WA+FjWNceKMDGewmRvFWUvV9OWRvv5SRHNe6iVWTFFVU6naWh2woYTpcC6t3Dt7j4QztTx/4/ubQxD8tiLjCQlQbwatgxPrN2y9i47UeTaDBQvPpsGF2tOSUoOVtj5u6Vo0tmGOiYSzwmgjCitdvrG7ZphLcjkOETeLS7yFenjbx88flN6tz5FOLDpjfg2rN58CZ0ppeFItjtKwfWiW9CyQ16qv3+pp2oUmt51Ewiy6kbKfqCAq+dAOb63Hq0HXEJ+OV19pAn1ExdXluBMmr85qUD9vS2bbDbv2SmS+vA/nt77ngxi4f9f2kBviAiovERFii5URy7hto2MprklRmpLwrRlXL2n5m4zzvQbbeE8+qW4TOMsbsCEWBepk/9budidysgGaLSTFzQrRRvp3ZDzdQB901JG2OhPpcFSNXElDPryy8Mnqk76F1QEb1y0ZnXrSg+sy25nyCEieEAkzuHsXVB5S5ZD3+XkpgG4UZ/5BxRPLVtiqWoFgX6wifBwPqd9NmXcNU/PL5TmB87s+iFLVt65MDw1UFx24a9SPuyGemGjGtEOw4hDjC8eddjalZlrQqLlxfRNFRo8CZ6l04fE77+vpG1/rrKDFlmQsBflLoVNxnG5FHTolfDdrUFrTOyk/ItP9PAHOHGkEkdp0ucPA6tCtnf2rD3tRHUmxh6TzxBeyjVMtX0/6nQfFo+BwexvGmS+A44X0unzQAF8CZ0o/9qCEmc1mZTj/7W7iefZ1lUEPRWo4rq8Ep6fXDJOJsOdim4eg1UjaIBQWYUe3XdToK++9jomQCc3FmiMmj6ewfIlK8/Xdcd2UHkd6yiSPm+VDEaSrWHXF04phNyymiiLbWXCC76Jh7/ikOAtpyMCgB6GMfbaP1aF7muZNr6iDF4bWRo6zq6kUazukCRYRdMM4C+EcmuUmj0lFqMIpRm2aZHl4zTYyV8mvdo7X/DDw/77MeJ4fmZyPeT3aaKy4MmyZtnROLiKxSdMOiXIsbCUu6QNAw09uc6e1eyYOUBnS+3namKGkCi9PvXdjh1JsYS5a4FUwr+Wk7dq/OuJpMX9QpuObiUX0BLNXNlL0FDjDCmnC2WEb6RCRQnc2/KI6xFqXpjoZzuOd4JFg4qNXcxY48zcEp4HkSvYELqWNIV3D0pKqznzTuKWzY6o6JeF8O3B+N3ierZ9wVyMZLVQQClPmoTUY20JmjGzOvoY0qRDopUYkY2YmyCY2h1rE4EMxz9kTB2f8+s4Qmop8HtTCJdt/gKQte63iLvX1QQs3k7dQoXbhtMb8FF7tnflYJ3fFiElonM+5DKhDk+Wu6B9Vh1or5huypOfEcN7pI5y9SpxrTING62g0L9MkSaYpBg3wKJP2uzqyatDRSPNccIJwfsu7b8e4ubf85kvmj9w2ms0gtRBP5LunpydaUUE0kXQ3X0K1heGsoSkTcMVcQ7vN0uBDtiSedpsJ7MTLO9e3UAs3hlKimV19IF5WvFbxPeAo1dMHrVZxnnY6UQAhH3VX2bfmpDiz50fQH6lAupknxSaLdfANHjHV78adwVFoL6e90I+S72f2ARLTgGxjg1l9Hl1w10NS+VAMGmDjkB0znS47JCybej5w+QfA+XYMff36F751pe/9X8kVEOc5lqe6Leu24TlQ/D0Im2U4S8/KhVtCoFBhgskqyqu1EFoMvoN2z8e3tjY3Osror6E8vkTPxJLHy4rXKhlvMQThSJzFfDIji6j0iUQaTG3j/i+J5oQ41xZkLlGHDo5THVrn7sjX0RD9oHbMv9BRWJVbwNiBwAHxAq6rEEUbNtuXDeKsURCfNcpBA2h+ixaboKnjGh1xf+DTwPljIOdjUvcdG9Pvb67ELgZ8+hXz9DpNM/S1nQtI6UXpvBR/yes1MgLihRvbozPpAMdZ8LRNzrnm7Rs7G11LvlAKaQJZ59uxr5V+21gfNBazVJl0IpFAHkzqb5Zw1pwCZ43X1HLRq88PzLI6NEZoPP/mqjPPGw7adUSNta/oIeVSS5Ko9xshaT+rG3bG9v7xR0v7Qh6rIhWuSqDvelwX7PzKbQzn2z/4ZcbznHbnio5z/kJ1YGLW5poq+ICjR8RTcoEuWpyY9vGd7QtNyxpG5xyjRCdluzXJhfveu7G5fXmynDaOsQSdWuAs4ir5a200nlYL26LFgAnmaltj4f06UzL9ihMs4Ix2QVV8ucPGpqVAnfp5T7lp0vOxPaz0bNEhGYYTHt9ltmRiDJwJiKsnccZkg/rwUzFgAKUtY6TUYcaX065756e/RefzB/9GTZLb08OYRhWwrrhBZqWKY4pEN5WRjqjmG01w/GL3mS19ukocas2ggMFmU6ecSl8ZubqzfXW0kgirAympp2jvtOT4HYiXlUMGsY4VcZTuimcj/kjMSodzmJE7Rax10h0teFkhiKRC4oBJf5rdwcc++pnHK3mGnDnqhLWBiweHh06sIyhPjSfrRGJfGZOqRZQplTCnXBjxgnrG14DzWzHOBk2SV7bHOwrxjC/bCYZ261w6imQnUJYcOOnZ9hYrDKHvJrrUDzPf5FSROkqqhY7mQDSWD85ev0F1SA02Oa83i1ch7LUsNyvefH3xtMCZno1i/kShEAlznob0woXnfGKcSV3TFC41w61iipAwXg85nre90GsGzn2z4HkuRxGwKI8DEUKeAOcaL0Wo1spjVUmaNpSxVjpnUYOx3fZpwhlz5u7+1tcuWcwr1sgCKlTrlk5o4hgDYx62Cw9mTwXQKpq0C+Lo8PZudykGAfBz1JJr8lmJHTq+hQIIorRUyMMSdMpgV67zKHRoDo2nVfzRSpzxKOZq+8I4nFGk8rMH8h9ngTMLBDwpzWJHj2WW8Q36S7HnHsvbjpfbuU6FYXgloW0J4UmUOIs+hJP5DXxT134qfR9ykqPx7PA4aaExP+ytmI/wjTsuXLBjiHNixd23vo4kpb9FambkuByIaNXSLZ4WT9g5uXljI7ecQch88eLn2jKFajckYCcGqvOOAPxsPKa2hOaivIlCPLtotlEORRCtG4o+dkRR6OTUFxKw2l6tSjzb6XHmHymaHKzVUcP6OOE8XJ1/6PH8/FI/a6paa+3KW0mA5XDXglchTrg4ApLdOqiyxUuYKt9yEyn39zGcP/XB93zqZ9+2mTvb84XS8Nr0ztaU0+ehuFnCWBGNMyxqBVrMrJ25dH2zuxqhAdAYjb94Hwpi07bOuUTYdB4pUxX3NySca8ViMZRbljcRHBiO895JhJ/KeFrKD+EMwOHsLOgRUjGrIMP5tK4Y3mfo3Fiy3GteZxTf5tzME46lGBQqIxxne24pBqoC/+wVTwqH+zQ48yUiXXmsSlLTRm1iCvkdDFaE3f7qF7/8TfA8x1sHkCLraN3t615F3BxiPSI1AA5tS+aLsf/nf4I5hCOLwNyUXK5+/MKWzdY8mXX6WcpM2kx70Ej4iCdUxtPKoQhYEjlIxNO1tIEJVjuOGhUYJJyMI89rn4ErhjJsJlENrjHJkmDX1ANu1ofBcXavFByhlgCxWxU4M/lJ7ylxFkgrarvkJQfS+QGUVDnOf/vbV7/7g2trupFcV3fr9I0LFeuBuFla8micL1agjVWaLWu6fFSrgpa4becGunKqTp+xDQe8WhbeiH17gC8kj5cZjAeGICjnQEv4gSYD2ULkwUDv9Gvl8bfA+XSuGHgl3iSo3BOEs7u5/1h9gyfM5JrBGALztjNvzVAjGVA9bD+fHGdlol8RmxKLcSxebuoZwquGv/3nv/3t7l/dcW36/Z2jPQaLYWuyQAiZxCcrauOyiFYiTptS5zLL6Fro61hcKCJgm9jevNSRL2TYmOV9H/cBfpB4WeL60fXoQ+4trLcWMFNIpY8g3yny2sKbPf0RDbMFPYhem434Q9A3OBbnp861BxnO48OlmC9E3/ZDG0LPDmda8liUfkD61b+w2jwEdtvXfvRZ4PzdH33pwl8/0Gq2zVqGVxYzAUkOWyZgfegYfV6406AxsG/c3dTffcGAOS4/yS/EfUZ4YByR2sfNH3uYfRa8g6OGCCreA66L/U1FKma1k6S5IDNpZ4UztTYZI3N2HRFEzC73Cx9+DGP/Ab2jboPBAoWhfrDVQ1CGPSwkVJ8RziLFJmJRvtDyjjze6ND6+DsZzn/+5U+/Zv/Eh4YmptdbV/X+FLiJHGPFmSY3vjz5Sdxxv3VVh0k9s+s31qd1vUtpDdh/1HgtXHNaEvdPxM/8mvI0qCeeFsNjIT9iLSQYKV995DAo9SnqGZxZNwbKvt3GhypMzr/0SKX9xzy+v9mls9DW713wqcAI4CGhEmf/GeIsN4T4xyVBY8UOsM/f+ekffOPuz979oy+9V/eJ8VlwXHKLPi0ZGmG0FTjzf1KEy2fuaJFF6BufHu/baG6qLiZ9YA3yYrOkCyaWIn6W52qV8bSMn82+ejKekNZI1QvnfIJ8bY3qMJxP63LTo8gI+pZ7O2v8od7ykx9zFDXsZU/q7rGzpmf7qpNErbSHzZknhhj0IM4K5/19N9JikqCJKfN43zvfe8f3fvXL39zx6QsQJVxDTXzR0cY0NISbfdSsbOlZWdk7YFxo0o3vTvT0zhSS0QCLmrnl5Uv8l7gui59lL1MWP++7tzyeJsBZ6EwhVWEBVtuPexyJ82nqGTU9CJWzOkr6BsC5K/+wo5pkX0MdjWbKnZk7KxETqxSrDsc5c4Y4C0MnyAYe5GtjlR5kSi7cdcdPf3rHXW7QyccndKihac+PGW+WeFVUiOGNWqvD5nH35FIEhAJM2VGOMVDLZc3l+U656y17djxovySkyOxKlVhV1BFxFhZgtaMA/Zj6z6lw9qpS503EE1ubMHA+4FHFjFfFKm47TeRHRbCUpKSnCB3ldvtMcWb/ZLEojBuMqj87YANZdeMa1lUDjK6hM7fkUJnwwqTdd/O8257WeyC+OHNfLl9w+LSMNSh/W/IasFInTMXBVcuuy4cIiuv7TbuK8p3E+ysUeOhMxeqzx5keSW6IA3MD+eiM7t4j50++Xj9H/XN9s9RXFQZRdl+Ud+twFmUi2aB7OAfLXYZxjHOenZ6eHh9CnhIC4PFUbSeqb46zeFYyEJ5oErQstOAws6+SHe5KmykLyGX5zkN0uOW/levo4wcJOrKis79WtL9VOGPEoy+W75xg+uvBkSNHRL8UnCuOc2du2b+nIq9UN4TcIlSQ1GcUQe8f6STq0KYQaADDbovOda/rIx+YgAcFNzmpaWvzcJtYt63g98YhSdOPNKHBMZgKEZAd5+6q5RGxSvT8HRNPyzP2WEyBJOEkcQpZ0fmsPDGBswnxkb/cb7HAj0aq5AVHpcRetjzJcbYNrC74Bms1WWVpFewXTJjyas4uglYOvKdOq1ixOtmeq5ZWmjpt6+NuaBXBn4JyW904i8WVj/E/8jqkCVRYR7lBR4s8sltuEk9Lt7MbfQ7YEfja4PHKis5n5YkJq6g14d0Vci4dNa7bXQOPf+DhkdWTy70M52mwXAtRgfMB3SstmSKHnzglgmpwFpDL6tCI+/2RwlKpqI8XsrkL632YtQOetkm8lkaWxktVzDFRZxZyITfbTvL4Wa04YxTxtIweBa2/mB5W25ok+XTplFf+lVMkS0S1hJoHI9Vm89AQ4wPmY4fzex9W6qCxc33TBswt1ABnFcd5vyvGw13CmWY4nDXOWPtYc0j9O5fKS8uL80sro70lfZgG4QnD18hiXxwxt4a9qXpxlsXPqsPjaan+LPjFtXKkl/W/Uv1iH7lAfbY4C5KriTpQIK43TnxAjCY4nN/7jEqXmem26nqLMe1gQMZmVu2TytEAZ+hcyyhiZ5cEFUd0wJhcyFZWl9IOfXE+5lOjjnXCrBEPhbH4syvTAspagtJ6i/hZfv1g/Zm/Bx46ozGStjN65liE1ci8jBNQstBvHC5Odk6w4mTP1PLh/N4nzY3QkARMeJ6ifljyt0UoKC0WTPqZaJdI7ZzVEjjjf9BITzmWKx0DpTjKAH61h0f0J8JZ7ikLRKR1M09I7noTUsp4WoYzLlk+14+QCr62FRk4owLnM3LFxI42jlEb0TBvnXT3lg6fg/PEyWE2LXTcNWfNGFGsEqEgljA4WtKACeO8ofjkjHHeL/AQajHqKyiszKWNWORkGCWYGsaZ1n4RR0WlWB5HHxuQi3ynPL5WxNWU1yar7YyARCK9dgWDUumKnRzn1GAUFRtkQKg42V59/KE4vxDicAbgPBSsxHzU98xCQ4UKC53PJKrpU589zvtjUlgh73K7q2+6V29M0aQhWnX0HtcTUCsrxcd7vOLxwipINwiRGb7EvaBaAFY+1S8y7MOS7nA8zvT4E+IMlX11fDFnmCB+71E87ie8sL8T2xllDLSdRU1ww3hJjb8R4f4widlkDeezXfv43VpS4feXh6EvPRnBudMSYOGo9nQCACJaP2r4wXEOgPxx/L4ihBa88VoZResNo2WOtnPct8c6ubldPg3OnpTKr1+x97EidHPXYTzuZz78sQM9NNwGBJtsRoM8hUquW4iLPZwxTObW4CxiUHgxHhSZzDpzNYZxuNT8xBUn8VdPiLNsEyt1KG4axB4bT2uEnoUEPTlhTqeeRJdFDp1+fQtwlqRdtV6kxAhFHeZaPfbhCh73K1KJjqCLdAwM5vaij8awqw6QevjiOMduEc5ShMpVeeL5HnvPQMnBeAWonpCTbyQS7okFehTVbsUE7pv5QgfiZ/XB64K07c3EnFgkHiVjd8te/dnVoemvEmxgRpkNfTamD7hgfOZBnE0L7T0uGmKkc+cWVCZqBjpEt1Dg7LgVOAt9Hq0RX7RY1dwa7F/ygSREauQRayQW97NXcBqhB250CWl5nVngfGwmQxE/8+ty5SAtqEJ4yYBZH4k5fMxLV6ToztzlJraBx7vc0aPj+oDtRe9BnJ+mXu5326FXMaHrnEpQ/6oIBfer7nCcaQqY/xbgLJaWWA6RVYuuuXdBjWp0OrG8iLXgTPq8oobb6LMLQ3uAeS1cMqUv1EA8jZ8cZSIXQECdcE4jFcZLGoq46kyzn/Q4IsNpC1PdOsbXN/eXMwf7Ml7kK4/azRCKBH22ag3QaAgRCsoo6JT3BM4ompsEzmcONqqH2qhzss8wMJXQtkUjhWI2W8Za1vM/fAoBAOEhC79JeptiaW5SEDuQ79wvysuabDThtFUPnJmCZ704n74ObWrzWCvoM2KS3COl2AMP4gzlA7OZdAzsI/n0mJT0VISGe/s5mbl1ODPXEboGhd5xw0glEcWo+mKxuLiwsLxUXCik/UDltA69qBTLh+vTDcqe5JvH03Rlz/STQIrkhJFChXq/3gxftwpnT1sglu11c5yHK4mD4kPPiZe6uV4F0yVJmfaHgkJKWsI5Bpw1twpnTh2C/NdC+7ShKevM+PTZbBHsZ31hcamcTcQ1qhMizfesUrhMxtvWCNNcXzyukmfXeG4+jPoFcLam0WcjIjBu3W8lzi0px+JqkOPcvVp86EGc0/lmjnNPbznekjLydy85RuLrSiYOfljsFuOM8pLGUeyf1uVQsXIksuUFvd6KxpXF8gxmgeOIPiHOyvhZqjOLJpsD6+bWQa64y/naVL+As51O+nFV+pPyZz9DT0yMkGpLZZyVAUYq0XUq+28epa/U9GeCmNvOcT4gIb1H6gHO6Vjs1uGsZim8Nm+sPLrWOjWvj8USS8sJuNtAulAsLeqRLTZpz6LnR5nEFG9TFlcf75LJlaHI1PjJCcMiZ5tbdb5krdJn6ImJkXCpgC+d7Z/oI5x7ulYeoNCTmuM4Q3htMSxwJpjldWiOczoWvnU4q+n1Yq4omubMK4hMrInFgjWZtiJGsS7AglvDiKJPhbNMTEbG01YqNd68/VNGHmBxNKy2nnBO43SWWQl5Pf8sk5+SgkPA6yh2EDfbYHAN9x7E+f4Lq0EdwxlK1hlw2EW9WcK3FmhqgXMsnca5Y7y1OPv0+e41exUDYfSFQ3A+XWpdwdOWx9N16zsKJqNwwphOK6GsJ44nBday0RiqeqUET5b69KgxzkVH7CGSsHj+IxVDvXt0OuA8NDqj9wFntVq4n/JAk/QXIpG045bgLOxPG/r/OtdclXTE6jyIc8YYOj3OIg6Wx9N060Fa+XE4H3gqCp3RTcWcMGvct88zkPDjP84eZyyuy2Wtuqj/hvqsnviop8n14co5N8e5PxuJYtq6yAFqZIGm0chxBkNCe2txDmPy2Jp7JpmOOOeXcUpHgHNavwic0wxnaZ0u0SpIQaJFUozzruFcVzBU29IInXmdipxt6puTekOElRfUobNOijFygymWb7aThIXZ1VNNv/bFMpxLvcBZB5zbl2JEGtrriMESgabYz6AjnznMwqISzvHipHs6WMo4kpFCGZsYS6+fX5pZtjp8RuIcnAHOapmGxtF6j6o6cebONvR4gTNT2Nbw3J3Y9vUVrUSipnGgob+WHXFbJoCz3bVifd2zD+oAMpz7MGhANUh+mEZZf+ZXOM4wSWLdgvN5LJntcE03l6MY91soZRfhj2FjF7P5xRgSTHtyemdgvWW6jgq9xzrnJexzpv1JcsKo7uyg5PA+yphYdTzbCcuv4Ftlih2dFiKVmM2ThdfLWJ+PqLZjP5PSUG4+rIW/LeblKdQbJJzVtVd0C6AGzinMQbHPDhfxJzP6chmJMCfsN/IkTgcLAkRN/CyIpkoNDXF7vfMSOM4atLQ72WIkT4GzrNn5ltWh1eDr++anBgx8pH9u+aVynFdHXExEXzeVyGihhK45TFRiH87W5F7l6FZsacSB1sqofWJkGWenOllYLC4VF+nHvDMZZQ6gqImfcnHsZG/3GG3Km+HMhwk69VjUH8kOfiVb6JbVoTU0cgYjWEd00wznjvLLZH2Tz88N2wGzzWaf00Nmj5EAD/Jg9uNsBc61m24NzoGQc6Xb3Ne/SPpDmMZfLJWyWItWRxROmGz86pkUTuRi2Uq9R8HXPB5nPpeKfO1ILONV/ddx9kJ6SItRR7pp1jfZPvPkR8pw7hhgOFsgfBzVksaLVFc5yLLRcpwhtSFBfyu2NARiEpOddkvHPFpwPBoSTCzMFwpEhEbsIMavnq2bz+Un5PVlXL9pPC3m9KtAFuJ1qghyJCoZi0HhaZ199pP30xljxRzTXdfpRiry/tgH9Tfbmd5jZyXt1YK+wUBUBJbM35bjjHXmOFN3PhSV0aabS5iw2DxsSqrTqGet4NKeKc4cKf52ZdqUaqU+xWE4c10hmljEcmGcXyB8PSXOtyD7yRXTUN9bdY+z1OfwyjNkJLHnjXYynKE9n1RriZsjhi2JwFKKn+kriwS3/Nt6hov1Sy62u1zuVT10N3DNBP/GjxyiCRPIpE9ahKFnxx43CqkhRUnr2HkJXFdIxYZfAGhi/2W8gkpUe0xDO/YkOKtZ32RYX2V9kwZdd07WB/3Q5w302DGyymIeLjkYZ0d4HyJ+FvsZ8SFwxjXxHs4YZxNGlbe6MOASCl8U/LNxNuxrJpxf8TGdpYaGMn4Wb//oeJquGU0ajOFnOHN+gcBZfbjpPnuc1TjyjP7YzECfjXBu7nj5U4V+62uevNrpNqOZ3OIC18Qkid7L1A/FOcVxTmfYlVtiuglOb7nb4hrIp2sqo1q2BFNfIH22J/S+fue65yUIa4AUCdELgLSVyLwC52NM91njjNx/NJwdsWAZWju79vVBv6RNP4WzEPqtFndT0eeRcJZbL+k80ao5zmGv4BWdNc54Bb5S0OYemUnysRVqjrP4VikN3xnH0bih7nkJ/Cd3tq3YzDzlWftwFK9VAeXZ9kPjw9P4ik0kKGTQ9Yw+9gGCux1ITLrshLOhs3fRS5ZSJfok9weUHPIwxzmquUV2W0tlx8yMG8IKWQcXVuDU/QN/7Wx3NC8lH4yX65qXgB989ko4jZ1M/c4RHGta/gke91rp1rPuhyalb81Czq4jNW7Xf5g7t57GriuOT5q26SVtmrRJL2mbtEnTe3qxjpEQMgjwDVs2xrIwFtgGX2WPMQYsHvwyAhnZWEIyV8mSbcnqAzz0eT5FPkr70E/Q/9rbh8XJYSbncI5nsqapZ2BgjH/ea6+191r/5Vl+71d3nBOtVTGc7MI7fdJT9nPgzJNoNGqIQleFOLNUpf1xGEXbzshZGMIK7fx4fKvCgTCZzvFZN8P6Yfp5CYoy1gmrBYE4KPva1QIGzXM1z9lpnjOsehqdg96xd2ltu5v+s8oZOcyS4Dy7edtyMGdd/jzWz0GscceZc0rbwiFqiS2WzucqnpPRgeBMCHRSiba6bv5W2vxZM+vhIT0xFu9XSHoZzZFYBCSar9ljHum6H8WZspXg+Up4vUJXGSudA3WE7FuOAVrcBefd66pLcubpAZxQqpypbUhy5hTbPs7UJ+RKY7gRalv6aXU93zP9grBfQ4Pz55fOS+AjcZ8P+xkVhQXdYg4ZXdsyQROu23o/tI90cHfi60fUleG5LN9xTo6mxrrbG2exMWet92JvBs4aiWEOxWzkvO+COHrgaOW6pXK20Khi5V76QX1HdufMmWYhCikSkVXV8+zs2Mzm0fwpk/4wh2Gs0ME9FP3uZ3f6Fb9KDxck5yXoq/tYqF4zPUDDGX5blj5xoY2NnKEHGGk1QzQrrcicLRwQWruX1s9LkJ/nV4bvIwVnOvzX1+ObzqP5UybFezMzkWEzW7kKzYLzefAjlXOksTzmPNUpoKRfgtPMm/8yZ3ZNquSBjZwxGbLcX10/Qm2L0wBnW1z3y9UjddMZdPqOCklsx8jcGAYLqW+DcRfHW/aEYvgCSH1ibua01DWI3lRVnZKPa+q8hPBqow7O6vgKSZrzZ8HZmRpzPihq57bYydlRG01VjpaHJYU5v8oVzfk0c9bMtuV8Wr2PRO5cBWRxhZFP6qpFHxuMPYrz03TvelNyXjvt33GuX5I0CTjHm91SQnBW+7i16ofg7ED2IPy27A9TpNnNWakPlyuVqVFNQf7M3uJVrWi+2dA01+g1KsePQoSJiv8oe3bX4bZ1nM0EY9Y5Y3j5Toj89my8OXxD5Rw8Js6hI9JWrKmcHzrCl5JY4FyVnBm0zZydBRSbVxb7GMVulLPTfs4wTf78oEalfF0UMe+XkirW2YYpBp4rf9Q+zsVgYwHD7kEVLlrl/GbsbFdyjt4Oyrn7nO8uZHWcg7U8newxAVs5J92Xu0frq62IA1Ehv9En6brN9DtrZ58KkQoE22POiMKKCteJWnLd/HGT66Q+XPUirwLnqcsfytPt3/2xdb47N0d+O3vdioDzi6YHaDjLlhLnZDgXoY90FDqJ5R0ZP7+XXqnr5m/8wvyZ9R0VGbSIq+dChMQS786LLblu/ri5fEWp9ZtzFcF54Uxw/uzvrlpfnXPjOa/mM5Iz58+cLz7E2TkRzqnW9cpR4LSQduT07T3m82jrsPX5s/o4DlpKSKmk1fOchfFifHwebZ5zYt8RqZ6Gce4Jzhs3Ql/q1393lEY3myAPyfrpM/dBRrueiSSLuEjJSnBWj3An5LfTvZuVSuC2nnIZ56xMjvOX75/1GpUYjVCl1SySZ1bK5ODFaB5tnbNCukMH7uu41B2CvpTg/LdkvX27MuZ8HEyPOXMypWhO96DKzJwntD/nZtL9m+mK97pUZM4WXLft+bT0yvxYzIsiT7qULKDMU+2H1gwjM5xHW+fsz+Dc+DwaCuEKemllccy5iLGa01S8XbnYvCykMvt+5kym5ex8JZwxccpTmT2vJX053p8trGgbT0O1nFUljzqSqqDgjPh0fH/P9fkveK6GXDf/VRP3fa4i9KXESJs5z8ZvBOd/pN2dE8kZc6vqKmc+3dP6bck5Vg1OwG/z+Wyku5gNhY8jTlxF04de34pmu59Pa/QdZeVFzA3OSJ7v6sIU1ml6iSqOsXWuOE1ydpYvV4Qa3FJ2Z8z5oEpz6Eja82inUcIQe7+meJtjDrkVpXH7Rt0G6hXrRDiXOxvRUPQyL/XCTHF2TpAz59MajcpkHrmz5ByrR9JO5qy8lLMx160wfRN1GpHG9lyAbqCj259LzpHW8eo0SbiGKhvdWlFylouZHjmLmCxnNh/uWy6317yeTtolOub4VX69rhtGK5p/4X8i2KakioQ1ZP2fIjjrVIss5NEGOXNBIprUu8thr6g0mP78x8T5r+X++aJHcF5fGEaSmEOn7fbmxzHnultKb0yIM41WQ2vn2txmIyU4k/GP+hpdN5+ScROD+s53i35OmuOdlPV/umVoJo+2wlnqAmJoWXS2As7x6Cc0x/8X/6yNrqcE50BocSTmDap5s/aROccmxJlH6NXPsmvhnWHRN7Z7pXevL4/m53hX30uck6K+AMG2cHPlonroYOC5GMijzbop6WP8fmf/ZHqugiarcHyxlfk5ONeHpxtZHIfBVgcHSi7n4/WsWdciDlOldKh/SJkAZwWcE5nC9Vo8vtF2+hNicpwIauG/vx6uW1HzaDIKtmlfJs5SR+ouHtc/F6N5tDXODnDOOaALuCT0H8NTfT84/yHYaO5EaTkHvM1eypFI+NQgQq/i4OMS5clwxrcD51zwNhxfmxopuQzNJUsWneSKENh+LVy3qgCoSB0z2e9MSZV0cnz1rHsuj8uj+UOG20oSGVf1ZlNwnltaHjl+Cc6xzuouONPhyUmrCM4uNaLUyjjQ19PIB+mg6K3rdNlaAsiqs4nYCdQ1VvsuTIJEb1U+clCkf93Y7Zg+4bSfs8Kck3mh10qcRVOVoRpz867bFGeciPkxbDJ8WBH6j8PiL5+888fq5eL2mijrnjutFh1QMtE1P3NhicqZXZS9nBWxufirTW/Yc1JN5GjYKuIb7BJ0PWagQdNwwmm9YFAkVTShqiqjMLqUzxNnMzXmCsxAHs2cDeq5JoLHG+Eryblx8BY4t46nNuPInlEFelpNuoizTsWB7zFSNeLMLQf2XlkJp0PzthZD4elbN7U+xwbD4bA9GgTzTjHDFmaIs3PynKm+gK51qmPMavEFL0b2uBZcN3M2ruOzn6l3FuNS/3G3UybO/bPllbg3BM7xG7dCnB2KjrNDVa9O3+OcErftNoc9IpXqLayHt6/dCYeUMmi3h0OaxOmTnL8GwdjYXIqsIyHM4IyXROrC6YIoi3k0/9ko5/t6rpclcP5gdE7zvUOV9dm166BLtiQqehUHRSB3PMAZZitnfM/BxlEcNcaOg1hjOOr3Wv02FEpiZZL7gH0NgjGY3J1pfqQs5oWRLpyuztOePFpRDJ8gSM614UmUOM/OohvxTXBuX+96wPlofTZ6Xrg/Vkar2qBIqAeT4sx+G4t2tHsVnzqupjBksjFAbhobNBqdYUFqlilfgzx63C2tUPhAs4uE0VBYvce1mkebc90KjDjvlUenWcl55Sz45pO3PxjebmYF57nsWf3emCiegjquglOlK2EqZ+4ms4+zH3fc7d2rtcXjXrkw6LRb7iCWTL/d6MbyRZwpfi2OQAVnWXQh17Ks5009cHZlMY82z9kpOEcGN56rMWc3ccatZDRMnJc8xyUx0Z6vpzSiFZJzIUagJWe92pL1/NmVwDiM7ubV2urxqODutXvuAlmw1220kMolSITm9R+BKuMh3hF62wO1PFEgsW2Gw2YljzbN2Sk553vX08R5DhMSoLf+9ncbTc8acUaEe1nL5Pyae2dt0RD2I8oimLPTfs64cU7mGyvgfNmOxVo9HD5ATrRUqw4bfXe5iOfHnCfvuo2ISAXHR55y+K+OhU15NP8Vg5xbZ5syf1657hHnTjMrOcc3L8t7zJm7TFTq2DjRRIR3rjB4KbXK207OkBpKRjrTF9GTDjhXW7EgTbqp12Lt7iBWI86G/8EJ5dF8HEHBdky9wgiS/t8DnC3l0fxB/pMh3UzorR/vHokh/tO3I+J8uRodc97tRPYlZ0WvGyYkaEhyWGIW0gwKKwzYx3kvUSx3PBfR08aoKjlDYV1yrpZSgrMCe+2lROMkkzy22gz7cGWk9TzaxI+jwATndLCzU5GcT7vfefL2h5D2jC8R5zXmDJM3rdrWT0cxTZzlGxi69qKxyF7ODv9+rli7jKLGeNgi6e2q4BzE1O9uD7dBCR+/kq+rlEh+R6ngIbdm4kw6jzrO9ubRBlMrmkewl0KrQ6WCks85z0njXcF5Tc9Z5auZQ++j0x/mzF2Biq2cE6nS8RpqjPvuWrAPBVeKwmLVUaNbxb/oZ86vbUWrneHU8Q9T67ZraT1nm/Jo05wzmVSpu7C+Ljg3O8T5bCoefpizduSNlBDXcE7SxZb9nNP1s/gX08fQNKqPjofVQr3ubo26nYY7fW+832ssJeI6knHyIaxQ5sMw08+FP28X52JtOCU4z3pWj9998tMPzxcE50PI+zR0nMeHO8xZBB7S8P512r+eE3ecYxFXvtoYDnqtam+EI+5WLeniu93X47o5qZIVzsJlSykpZFVO3Xq2MY9W+PNGOCdrmJMhOEenzn5MnJfD4Lx+GIouN/LgrB1F71C3aM1IAGEl3BZyRY9tnOdzKD4mzu70vqM0GGISXRt6zANITUJZkbPI1+K6OQgTQy9lvRDX55sfKmiw3vP+TESDnMujVTEPBXNvronz9UZ4CZyvQtGFrsr5/ghrhTkrYv5WVeVMx1P2c57JpYPnYXAOJp/lDnDi2Wl0h11szilFvTPllP21teRwvRBxlodhPpduxdmeR9PnDXDOZZyRwWqAOHvXNjDf6Kfv3+xAbIg4ZxeHB5DeHmvUagf0yfxZvIWBecKc87GbJeJc3NpzYupqi95ZBVUImmUXX6PrdsHE0bb02+BcwDWtgUIIPsw06brNcFbAOec86DUF59m1jVPifIpmScHZs9pOz2R4rJamgluKMeZFl++EOSci1VvBOTUz71dSB5FyCeIJgrJGdvH1uW6X1COhY7B7h57EWaNLYncebZiz4kskHOnqiRecsT/vnGg4TzdHKchEqA0jSKB59qDMn5OR+gOc2Sxve5JzuXcy98X0ZTC1v0+a6sXUQcqJd5km4Xt9wZjYyKT4n2rEuSbEKrTNsPbn0fLRQG10wpGKnVJxJ9bzThOcf3KyrXI+GUjOMO4/4GkwLnAWR7lf4syj9Ky3JRJnf7nfnP1ipVNI0eBamJOUenkZ81Hrq17RXJMqh5GR05b1+dRupnJmSHbn0fRBo5xdRfftnOAc38Vcup+pnC9CK6d9PWeFJRruOGvjMM0Ks+a0x5xro6YXnOupPQzqEPVid6tZM2gZ9hryaE29ENyb+L8Y3eoIzgpztj+PNs4ZEWvweilAO3R8c/Gb4Nwccw5s3vSKkrNmjfF6Rqky3rtkes52rudSe9X7xWajVCTOYmy2mjdLxvxvvWLXzetZSZeRYfJ6FkmmdtC87a7bPOewV3KeEpw3x5x3r1vE2anlzJINslRZz1kN2WzYn8ech+C83a0lwZkCfR7DK81pZW6/PfuzE7ozvIPhsooO+7WcLbtuy5wxfzBAor2bC8R5VeWM2elJcNYQUzT3VumSPPSEMWedJ7Uab/vq3UXv891hmTjzhEsLutt259EuFyJS3sHwWIjc9dsYX9FGSokscEaru5h5El9ZBudPV1fuOMeUp+CsKz+jX1Jf+mHO5Elt5dyY8j7faUecKmeHOpJVm02+Htet6s6wY8OLUpecDWwphufdWOd8lp0DZ294eoc4L97j7PrXniPJQQAHY7JKJl/Xc+bWQNs4FyB+9XxjlFf2coIzm4Wgit2hdc4k0sKYKRTDa2FgZLTpeTdWOCv1Y88StUCHPbvEeWpa5lWBlZN+8eme74G0RXKm+5mqzCXIeNQH5+82ce4sgzN6+jI5l+EynMmvaK4vELozIgATRk2F3D+nmq3BmHnOPkcdc2NFq3t2+9uCM2oORD3JdqecyWBImVjRes50idG6zzkyGc6u4CU4L/TSSi7hMlWGM/kVrSjqOx4FYcwZ/XOKa6xjwWpDNgdjzNlYs0PpciUcqIBzdEVw9hBngA/MnbqhAbPvTwrQ+pF6OGvui/IOaSTR4JoM5w3vxVQrraD41LqQrfWv09f/5e/q/wTnQqms9lXpkkyb8mjznH21znYcnGne97fp3HOH7qto6uD6ziV0pWZy8plqo265nlWpUndQcuaLdfYyr4Izv7FeQzCmirbK9Rx0q8PnNP1KNufR5jn7/WWV85rn26IOEHW9pAe4fhjeOHP7t3A36WDXzUd9RSxoSiJkF6iGM3sZm/y2Bc6Tdd0umGhKkfszvRJSvHh8MqtwRmRfHm2eM0BrOT95AxfQK2toe5+tXFRmt7upvX1o5CaTes7O1EGZukwe4gyzkfPxhvdqkTlbSIZt/FIeTSiHhcqiV+Ishwv4fDLeNhKKmW/JMc85EbnjnP02DR384WXTg4kZ2KLX1zEZuqZs0egEXi4s1VBM52v14LjwbXKc3Wc7Bjgrj+esWOLsFD3ZMAlaikklx2ezME5H7XHd5jkrknNjd404LxFn2JvB493ZWZlcoQ2iG3n2dA8vcPIeZ4Ium6nSZaFbUY1NjrOjer6r4WzJ/9oaratK8wVOnoM894Snp4jf2ey6za/nxkbUS5zjUcH5Fx99+KNsfAmuO3R1EYo3W67cHi4EnZqdASavoNMRGgtcRY3HQ5xhNnC+3g4crrbSDnC2MIDR9hXN9X9yd9ac9NMroeds34p+xHruLke9R8wZrvsnzd0wXLd3HZXdnutW2beFFS0JcjOHnBYrnbc71moVyszZhkiMObdutr2Hq9XUJDnzF5v12+TSJGeyceUrnZJwvxLnKzataFnCZWo96znDvtdorpHrnvUePccYuH7yX1sZvwPBGP9TavONX06zjvX6wYc4O61zVlq3m96jV8DZ+RjO6PKD2x5zLsgkk2rXeHQ03+vY8lyYs2J+PQcO1+9zfvvdT3eycblFH81mb6oY3g8ley6BUbiZjgJOEgWkbII5C7POWUFdr9I6BecmOKP41OrkKpu/Wtb/Sc5kUr9VKLU4tDqZ0hy2ue47ztK+8mzWn8jrOMO+8aNlcc4NoZLKkecGczKE607qF6uL2BZREViHBPEkODt74FxpxoT4NkUFVp2v9a9mynL4r+TMh9voe9YcknAllfXnwpw5IPsKzoAgOC9kmbNq79G52BwsdPG/o2iz53o6jxVNabRmSXPpZ63GnBWYPRe8EP1P9k9W7jiLTIZ/AsOqWvbn0fh7qqIDYZacY1IBU9HWKHJNKsyG58Kc73h/1beC0nF+uJD13nHmFf35djaMPdqL8xJv9qZF178JEvjheFr+AgyKOtPpdCrJzsSew09lzHl2/cSddEGbUMhMyVHuLts5K+Y4i+FGRXFVJTnDZH87FrD6VFgv0xbXzZ+UD8YKSoHIr+esgl7dpWCMlLgPK57TYXlvZh8X/UWt64ZptPk4CLQl5CbOg+bKbOg06ARnvzAfogrQ5rptPefJu25VF64sFR3U/VlMFpCOmvUymYgdrlsC5tfZyP7sI7/9MOcfd063x6776nkg2xykfBiWwXVErLCvHaPPnK1v0cqY81yAOOeILo7hikmKIMeg7Zz/bKbdUzZJFmmY97irShz/0uSfMWdJQ30Ui9uWXm3m7LCD88e19ulKNAzOyKPXA9GTbqE4T0IWDFFd0zIk4fcXmT2hGHN2oys/50InLumT1CBupKozm12R1iUieX92kPKMylmWesoJT1QCSMbbKPtZyyua92Q7/Pbvt8qdhRWRXc1ikz5c2rmszc/gPtrJeTQZD53kNxnM7vXsTvpncqgYb43aw1HLXSvKIm7zQrbWJSKZs4JDEpWzevlcU/UqZEKjCcns69XWdrspXyU0q4/D2P780Qdw3Wvh8VF3aGmxW0pBL4Q1u3iakwa4MJ33sbw/+zOOiJuEH6H8OKBDJwoLLIRiVoMxMBQdZryeJecDSp/VkxEtZ4XMiuvmGNfMelZ061ljv/5dedjcjC6N8+hKfPm8l/ZnRDkel9Wyyc2a/2XrnpTj7dMCls+BG4hHg8Go22i3CnmXDMasczbn+hkz3LaaPDPnsjj15KBUEzQZ+N5GhiYwZ6fhcxI9Z17R8/WzhRUZjHkrzw9D8eugM7eFtsWH2o55xKJOLMXSeu4hf16/rSOHKY2OOyRoMGgcdxr9Ehqg2XXrEs9J5tH4rDjcT9fAl/MqGHXcqI6GTz3JeFN7/HPhRc5Zm4F+SdcL4jDeoz/+2Tc/3/WITTpUwXyF3fNRHVOk6BCU60D18T7MEme28XoO3ZRQkOYeddq9Kq5B+5A0aAcPSJrZpByuddfNa0RJqvW8zJlKt52uF69nMkvPBX9g1VDewi2tZ5lHn2BeBoEG6SNvdAqNTrmnVHqgFplo/AxHmXZxLtL+HLgpOWlzHpLuI3nJPnQfSwfOhN9hOuS27rpZ57FelT6bOaslvRKGdn8WzCx2duq2SC1n0/sz23s/2omK+2jv+tXh0dyqml+9eBS9jjPMEue5AIZLllr9waBaKNVV3cdgOclpnv7eaiKuW1/BzhWvos+9lFYEVD1nFbPVFc2u0xhneZKl56xf0b9Z3EbJGEqJEI0Fostn/UjRD9KopXiIMyfv1heYKzEv86qbegqc+71YoU66j6zvaZ6zVYlIroTMy0MS5iwuJdWTBJ3f5jN/y96F60ms+222758tCte9NBdA2F2JnrZLvqcz+zm61zDA2UIMjAJyZ5843xbS9Vav1XKz7mM/VpsoZ+fLOftIz/M+Z1WMWdW7hfGMRs19hj292iY4vzQOY/vpu59+gvwKS9qLPfrKu9Ls1ulKmlPplyr6W+I875TruZCqVbGgq6TjigXdIr8dSSbA2ciUVfuDMXklKZNnsjsZ8qLaV6WeLPD5MDtvS65bgdnKme3H79/uhMXJGHx3iMa/92u+vX3o1HCPqonhLObPPW/qxXKwNYKoZ71ex5LuN0Qchr1D0XGe7Irmum1Rz8uchc5QiThr+6poEUvjaVdWXLf8ehN+22mUM+yNbnMNmEUxUeXii5AHXXaZp/+e8bP0uqKPYqyvMI7DnPl6dXg5cpdKJQg/tjudaoQaNM0V7VsPxnhIAkSp5ZY8Nsl5rD+j3P+rWsljCcfCc+EU2lgcZpwz7Dvv3UxNq/nVVWgW8r7ug0Qil6NUOqnrhrePszz3vK2jL6DeayB/rsZafRxyD+piUMMEOSsv4Sz1PN1kzJkunw+0nOV65qETLEH0+OdC69k8Z6rrDXAd4AvtW9XLKbReAbSIu6HPfd3PO/ZQxe/jVNrAcBZTdu/cEz9P3j2EtXFIAt7BiEOEByY5W3fd+Kg6DIM5s7i6U8OZ8yvdEOhHPxcF9hjOu2tGOD/56Lt/2p1eU6+kLw7XPTf9mmtfpNLKC1y3xVdecan1YSduqNolS1BwbXS73QYFYSm/36Z+aNOyiw45yV712sxZNIGzXgXr6knOMNu6Rsxw5v4qPWe9ffzd7vWGZ41AB0LIr2ZXFi9b5aI/k+HxBboE1NoKA2fU9W7L+rCMK41Eptcf9FvoeSg6ZemQyfTXeh7Nuq0v4cw9E+y3nYo9XSPm82eVs5f7bl5mb6X7t7sesaCpFf6osr5yOyz55me29nwPRt3WOeeoH2NX1G+7cFEmB4GJu3w/UX4h5wm5buZMzyRWfRFnmMpZ6lfAWEDz8Zydj+Us+5+96wHZL6k37UXlG9//zSeYbyWPTI4OL2ZXmo1C2oFUWkzU1weFirXOFseYM/puUlRDjkYfqe+p+Py8DZrcoq0HYzT5mvR5NdH2mLPCnHk9C8Zs1ly3ac4uyXlTco6+nDOXdi94qM2OojGSNdm4pslwmfkMz5LSLgX+kxXOqNOX9WHJYrHolIUaE+fMT1yvz0vtNlrOsRgNxZCc78vpjrGrV3zEy7rrNpc/+8EZuhUmOEOi+2ab8mhZT/T8i8rSQqOUnP/3U8zgZokL9jMWPCn30RFnhUo9/Rj7jVzOT5Rt52xwC3D57tfns9cmzumi1IdjzmRj/+3g/NmK6zYfh+FlA2fo0BjnDNDf/3R1JyozrNDRIUoEF89GdbQ/ZWh8nRr26/zMoznHzrGeRV9swkceiHCzHIQJf2vddfMhCTW3a7MqMhqK4dDmz2BsZT1b73/Gl0gdGuhKSc7QoTFm3xtd7yK/kueg64jhMOWzV3btzdC9tOqm2M9Y4+yKiT53oTfk434XhyHBLdtdNzEaN7e7H+AcQUeslrM01X+b2p+t9z/zsHQXdKWyknN22yjnj//44cmmJw7UWNWho6uL57O714OIa+/pTEbUbHHY8SWJf5h5PQPSrZjqHUhdKTL+QWHG+yet59G64TZB5kzI65GkgzmzsUw9/c4Mauv9zzDirBTOonPEWejEGbR3vvXdxu2OZ43ibtFqF1iabl72Skn0xCP0Jhx3nHVe/HF6Q2P9MOXOMQjP/ao4K8xZUevzpZynlnP+hZwBmcMzS5yVR3GGvuea0HEVuo+G7XcHg5NdupSWkXfl8BCDkZBi+Z9uoeFOvn05X2Qv/gjO0AP0Cp04vIF0hTjOV8JZM2PGoZn0o+FcehFndm9GhzPa2ufOer2k77lsgvPvf/fGb3/zCZUILpHc2PrVxVEounrcq6ENKqcm086HVvQjdB8XvM+Xx+tZy5lfv8lFYvrvRvX5og9DyzkWRO22LCZ4SWeUOl/ZyIq23v/MnJOq/nZ4BbrMpuxn750tesh1y1y6EoivwHnXqQ9LDprlFW2Jc2MKnPtC31NTiMMx7MOcJ7OiiTMkw+puYNZxTjtkhPjyTkcZdTutclY9jNMg5yWv1N+eMskZV1hnu3NkIh47vHj+PDB90i0pe/96Np9DJSavaKcFznVwZr1eLojmnBTfddJDBvm7yWFVQsRAfyspi4Zeyhlm3ONa7H9mzo6k+wbzMUKYg7KNuQlmQf/w/dupzahw3nQOiuac6dXjAZJpfy4n0iDJ+V6IqDxOZ32nXXYSZ/16fsnLagdn/YZPFYDowxCQ2SirAueXz9RSzF5CW+5/5nk3VXXeDc1BMWvv/CDYWd2OkvNGKk2ioKGl7MJxr1TM7G/NZMbLTaC2xnm3WytmwFmzP7Os4qQ585KW/Tbl4EOcSxHB+cUTfxSYisfa/ixdtsFvhPlVSrp1Qpxn5Vwj0/bzf3zwk092o+NraTjv5xcXge3bYV1JzGyJnju1ZJ1bKU1w5vkYcg6KLt7mDG7yk+dYdCRdY8gPc3bCbNKotN7/TPPo8r2mN3A3p8y8/fqdn33jtzeLahcW3UuHljyLZ213JOnKiKvpe64WZppzrd2cBed6keQUWAuCH1/CWZkEZ8ju1GMv5sx7i90alfxjmeacjAwwd1BwXr5lzia36dbxglzRsqjo6DAQ3ThvY+LU1pbQKVIeEX0w58HJ7BebHeoC8bMWhPyPa6JtvYc20ofxYs4PjsG2uR3faab/2ZcT82LHnBcwL/aR9oPv/qm5sRlVk+nD51frc9snneoBjaSV6bRZzjx3MNI7nfti5bKQmkePPZn4JvLRgI+0nzMqw7g+/35Rr6q4BOO6dosr2qqeAc/5xvxn4pxdPGPOZu3jD6qN24VpceA9G6DWytDc2u5pp1dPO3L7+2pGxMvL+JyyRF7OEXWrnCnIVh957uDEOXMfRjEvdNV1nFHsqXLmeQkTGtjgNNL/zJz3iqXulJzznaV57o+2n+dq7Rsq5ZfOG0nW1fMr7/RJI5jOPXv2bD7hHBvQmJs7mDtwX4e/8JzF0uDMswjkI0dir4izQ+23Ufvn+PIZnMfKl7rDTbs3FOYM+2rO/r29VL2xPJ7b3+yA8+NB/+o73//JydR2VtQJCtBXobnpxfN2ECNy/WT3hMeNr+d5mvNNnKtp3Xrm3eCVhdwEEBWAcmLE/fXMytTsayb3xIz2PzPnQmejgtsqcD5pWOEsz8capzs48lYbdNbXA0sYE9+ooih0Ht7bf7f+jM8d3E+kC2fxL7Ln1QPJWSbN/Mi8DYzCsY5ZM2RQ47d5Esy94YzKRJ4Yx/OKIc77++ng5c6Y8+nwOxY5//qfH7z/I4Cmcn6hXnN4cfE8FEUzVim5Pz+DAQycPcKMxGHQvUnXBefWwT5xHjPmx68KxWzizE00xfGQQe25p5zsJDlLm2QeLX96M5xjx7tH64E5cL4dfeuJRfvFOz/9y28/bVJfvHTelE3jpK15PAqWU2i2FoehKmgD61kB51TpOPo8ejuIgDO/aqxtzW/vV8JZSY37qtw6zlJHXyOyZVsebaHPPQnO+erZ5mElACjTN31wtmwYmTO8lfpyOAr1erFRo9nDs3DddecdOAtVWyyN1DWNOdcus8/XTtrlfTUOI1NYq57T1clx5jkJkHpU2yQf5qyeyU4yjzbRd+N0Jn37e5H+9fTVUQBQVs5b4GyDvfnB+zeLO9PRu6PQi6vDUJiuLEtFX4KapmF89f7yOMyfSRQjHc/FWrNb2wNneY8Aw98g4lwDb3oW6+PnYQTVYU6a/Rmci8xZgOYnZv/JmCHOMq5HcBQZ3HouDonz5lnszSe22DtvBvudmwWPehSKeB4nMVHy3u5aSkGfzp5OsEhvko0/53fmGysX8cVGiTg7fD5ijDTWJ2E7eXisATFH636bhoZKzsEXcdbepVkY2m+NM8flua2ZyOg0enEYAo/t4yA422K//7urhJLQeFhm07DAES3q7BQOQ9P+radPt/gq6+WcfTm/kupuXsWnOnXijCs2H205LrwBfJqrDENijtY5y/45UaGvzZ+ZszDayg1ydk6ScxJLY+/pVqR9onK+rFvlzMn0L9+iq+nVnZWodN5Cqmid7kqOR4V8ERffJLLs+4q6F+IM5ahie/cqvHxcyOwn8DHqvKnVImmaKTNuaWGIEy4VAzxR6VlF+qwxyfng/pwbXQptp+tmztJe4CioAlC81M7Y2XL4SsRh253aW3Yw5uLfYPtsdXOcYgXguvHf7BpOTrqtElqy9vb3c7pFrXu2ouRltHMY3jkL5vapkQ53CK1WC61MBw4fC9W/Ms5FLOdWrwquGsySM4r0+R6Dj98nUmjOTZnyQR/cJPHqZeahmu44KHSgJIRhsXCuu50IONtof/bX+n9azK5RnbcwjDJ8fnEVyC6fQ8svsSfup7nY+0HpJMFZGWxUwtvX7gQ4p0skEddoQLO3VHTp6oYm3Zwh5p7E+r2qW29ouhlzZcVH5kxmax6taFQw9EJyMHjD+WfonThwN5rZWS+Kw4hzIw3Odtpnv3j73R92rps70+ONOlA5qiBXR4XSdbdaJ3mRRG58QU32gvXsc7UWEa/fxnLUAF0djKDlSuLMVVTRiq4AA5wV+zhDAZwEj4SV7lsNaZWCp8NSQ3z+yXfkdo5J47ohLX/psWUflHJQbzWup1aWkOPOEuedYfGXT2y3tw5ijduNNcGZSosoocZs6fjO6eUomHdkZqiFQ77nH+IsN5hYczbuOanmcGQCfbhhHzpiI5KuQLk4gdZynvA9dPEA4UG5HJGWZzvAfJDxUtZoM2p0w2x03boCJM6Xk07hsZ/N0MLoXTZ312jOM2GGbYwcE+D82d8+euO9Txe2p7MQ8hYWqFyh2Hs2u3Hb6dXQvL6XI1gubsDTcsaCzgVPw/HoaivhirgHjU67hb2wR/oVrTLSK21Z/MT7J5OpNFnqy1bEqytNO+RLL/qo2JPj61vM+ffUbZjI7PuK5Wr3ehkyBldH69icYeH41Id//ezJROyn3/uwcY7DUMkZCxoW8KLP5+R4GKPpZom9ferWeYCzAs6JTOF6bW1tYeCCPsmg3W6JqaytPhQB6ykkWq+WszMpzPllU3Qn9/J3TvWO3EituWKhH1qdEUiEsXhoIKK7fXy6PB1HALxOpSRUf53d/tG7TyZlv/hrpHXZhCoV59Prh4eHWNTL191YxJF5+mwLMdZDAnMOJMr79XN4A+wr6WAb6ttuCMVhRkYQIlOxctrxSjnDXC802im1nGGmas0Va/3QNBkSi2b+6bNne668u30+5Zmr4HUW91RzZOHNxd8+mZz98q03333v0+bU7jT1TUs1b4Be96KY+LxbLaXkPkwji9h/M+fS8WZ0brORxlMfIKMC52C9hPBiWK0xZ2M+buKcH4AxrtiWn1fx2xSMcbYix4UKQ8lLLTY8gwudDQFzJSTX8lJ0e/nz3/7syWTt7Teq3fPVbZll0fU0WWB2ybPTPG7HSmmnHxm17NfRyvXk5sudjaw3e5mPuNt9cC7gZLlghrP999APC9Q9zI9Mn0/bFYxxFOATyfKeX8EB/ODyZMNDAsswUc07C13t8M7t+99/MnH7ua82QkPWWhxLWhh5b2TURwH0cIwKB66Zracipaanzj4PnCPdxWwoflwuuwc9WbCDRV3oMWd+gSftuhVNjYNExr99CY4vX0kLs5ZHa8J6irBnnj3b2nPk66C8OQt1zuc4AaOVLDDH17LNxgfvPJm8ffbxd5BPn58sb47vskgM4RAZdRhr+rzRwmgJar1HSi3SYoGbOM/k283skfe6BiXX3qBPEtxAXR01cNwCOZBXzJnFJ+5doCgGenTVu6sX5tOK8hjOcrqzfNEUjMfrI+bdQPC1foQgW/XY8c2F07PGh99izBO2N/N0GroSD8uIDOm09C2oDj2B+66lsXwRlKkagzBXZguyZdmL9dNSuY58atiqCyXXUbczKNEILrnGXh1nGHHmNMlAL7Y0py6ftuS6x/6OMii4Qlzy5Ou0NW6GVX9NDlsmU57V4369+NGTV2a//tsfPvjwJ82N7emo3KmxVUMXFrdZgegOSEMjH7fiOMkZp9SCc6p67vnvf04KkA4T8xIQbldHXcqf5bpnh2dYxNHWElCDQxHkaajKmfNpU89R81UuGJ0pIpH6f3vX25PWGcVRt1mdtlprrdraVmfrNnWujZKQxhpBhtQoQswFU1RaRIIWEdv5gjdLN5hCQgKUkZigidsL/ALbm32FZa/3HfYdtt95zn16sXQbdpvFtr9ut/5pb6/8OOc5v3POc57NUSS+UmkEQNPPnj377hElOdmUHYagO3qh7uOBoZu6E0VDfd1BIqeE1e4icTgWkmQ0IUVfyCImo4LWw03es0N+2z+RRXNTfMq36A/kUzt7+d1d0Ly3HlhinsurMJfxp16xWlnmoQianuZ2J9l/Xd4zli71CLyAZarobW0gLMWKiPqg2PpEDlt47BmXR8klDrarGnQnj66B4Q0Iau4uAtPCfwul9chq0BcS24FFy521NZESpdbehSf7+ul78bmt0c2tuf1UIoFCRiKFIGyE3gjaXvqTDbkZRUmvf6o3ywd9scRR/jMezbJNbj7Ai4TuyiW4uVg0OINUI17CaSSXpV62usz62Prq7aEbuteBm+0Q1N0fDPa4PciAaK393z1FjTqoz0V2VzDpA6f/AvMPx0dn52I2Y+LJkuXxQmBudwc4IGseEUFYkSmdWH2y1BkPl3f4RbGe5mcfZpQx9btIJwOisAw7IBWVoNDLivUPryBCbF6UXQ6P2zj4wXvNNbXt7brXiZbOxKHb7hI8s6K+LyV1JrI7hfCbJOGdO/MLUM47E3Dny3RCK2SVPH6XXV+5xvp/2bM237G81UMGjsUt3mVM/WaQIsF6jFSDmBk8d5DNKUGvU80nT3OCE3AaQvFsZ4uuEnB1JUV6HhgDuHT59NkvkNSOEDZnkQF/9cPaHYjqYf+in5YkC9oOthCPYYfeJL2bCWUflCX/yH9tz7LeXMpP+Xqa8WIwVhR0PecZ4TX8NV4Vi28qH0nDX09jYshPUFEIvRhWAMaSmOjTVQaunemvvpCLG8Nmzp6ImIwSsmNOuy2ahv+exSRFvIPnOSlKGPGjZOQf1poMXi/PrN7VLQPl88z1aR6DphFaMtzxaFJznkDDTReW0Nayi8hLj1eODiHCkGxpyVbEs8Z47kJ3f9u1Dl3loGplLxYPIXUi/TfAFRYHst9EtX8SAvEBalqjw9rgR0Ixb9IdnlAdWuK485ZL9XTxmJXS4Y5acL2M84UATGdDi9r2TraghCm6VqWyCL6YZqfowmts0FUWugY+rrvQZAzbvQ6nJBuRI3wRxtp4TAjKnmzhnIw74NlCFFs4AJGe8nj2yjxXBopCuFH2BhqKmxtHAa42IrMwj/Q1qvAZWu/QGo+88VPpr5EPcTnM9rCtqRVq+bKuAtFWv5OKHZqCzyU1bdmhQovVZXAjKMtP0GRr1K5IMGob54ESVXKKeC7R01piX0ovC6VBANEC5N9CRjCPF0px07B7OD0hlWXkZXV4bNFcdn+3/oyuUnHl86WVvbTJUySpoalpscbb1RlU0CT6xDcyD/f9YBxhmVY7KFWfp4pn7QeRu3X4S2TQosliWQRdcGbYXo/gmtrtvFYsyCg3gmGWyqo5W+36QgTtkcsVacoq2ntrq5q7Bwf17qAZVi27gb+mlOj0GFbqXEI9rJ8iMgFtmS5CWVN8hyuFam2kGPMMsJ+WEhmA97rtp3bmnUQ6iQ3mMxgMIoQymnKkVKbcplFp6v6wvuZq+6e6ygckNTKiXl6n5S5qeKaxGW/YdBjDuYPcaAQIZwayNW1ZRmqMv19RPBOKGo/U8pP4Cedp0jconsunsrkoVInLKtwcvygqzXfHxNqG5Ga97tSgoy+wl456OCCTLnyao7L7Y2Z3MpFf8Q0vr62h1IqiOi/VxBz/Yvw9z5XkuiXPxelQi6g/4SdcG39ooVFlEMlxGw49wCgQADVlrMcawLU3FKdNipM3dKcHHdfOtHzYmi5EjUGZEmVR/VREZR5jPE1RmW+ReqH4FAUWlezIZYpMomKX6OI8JkH10rJ7ivpKaQzKXiqbSWL3qcvKLwK9DDJ7TaWosE2JF66/V91y5tqV00SzOk2SWhXj+Olk37cqqimrRw68kN3fngqsguzbCMEfIzc6rrpx3oojUdE8PzdggDz1YwKPqccJ4ivreVAcp5Y61JPZUTNAM8DNm8ZkLLU99b7ulKJ96BZp6p6g2etw8RQMWah+hkHfVjOtR/s43B12PQw/B2G5yYJL9IL/Qy6DHfzJUf23iRRajkW3NXgWdffhRainub1IrKBQ7n/6EYlkUVGGu5ZZTUReXrO9p+ej1s6LfQO6U4uujnMNl/qrz2eRE4Wo1kYNQjFSx7nTHHSb4oV0lg6QxfHus74lzn+TF18G4MplprQ0ZzXyWnlmNz3JT0rgGGPBv+RbDUyhHBfJpg8VG/JGLtHJd1+oZK4oc+eA1xNSkpls64f9l9oazlVSbvMV0bg6l8qYDCyqNVXN+QE6usUe0kcL6URqD13dcOMjFKpujt8Bxtk8iGr2kaUh+UlB+9fVeNrCEfVj9UEfqkY8AYpjlOynbgGwC4j6E1CskmcctHBhZEDfNd0bgq7exvqzrbm4PhS0e+UEUW5JYAGJ0xLJsqOHmRgsew5r9uzWItk1AHuRUc2LkAT8Ff6FuWoo7feW8ZYWcyHh6V/cmt1YEWacSSq2ILQT1+KxY7wo2SUaNg2eYMioxD+CTq5qvFrJ6ZBX6fum1YoyBFqpgxUktyZT4p7yBCE9sZ2IoMUb3d3Cky+wGIXtqFD9ORPPLaWleJVtTqXATTQPfeQZxANgnM2Sb3bjCfw0GhqzmcOoyY2QCwqDCznTAiyRGXhD28h37WxfPEU6+Ri4ubY5sroO/21mnQVIuikxiin+CFSQNaNiptfjVuK5WGKfHPmGb2nhNkVp45CjhAdwkjIul/58uOTXK2x/eeldbj/30FSBGMcjEKjsNmnhVDV6VrNp2HAYwoJanCnKhBWzEb8Aq0M0z2HvyvxQl+6NxM2btVfeP9N8nt71RozCUE+VB9HMNKh+ivorpQEhKc2esFsfTebSsUQKtr0O44YzX1okwc3xrcDkS6BmUy2M0X+GpQgvuRkuHE4LrYcDUNmGcbIxnVceyxTiijHkMcOK73LQgZ8CERfRXOSsUYAyRZOH198jlfz+tdrLp04nHw81fU/WUXU1hWmhvsvgwEyCPd0XlCXFWkZ8K/HDHILyfdrHgbB8lb05x+XLov1Gw+amdO0yXgfoyowB2ofiW4RlgYcA30q7m7iTRYxEEkswNoWB350UoulcMmqyhUGws8hN35PgLj4GMiEh5TAWOdieOLUi+dgY+gyquvOTppAdJuCccTpnhGVLfMG2zd6PYxiyb47TyLzB9jaxTdbtlztIBVRqANADqHyDSrq+FEQx/sMfJI6J5vHx8eLbTFIA4F/a8qHLCS46vxNJZBFNK1SoEQZMj4pnLY63GJDHCDlcDocXeqKn6aPWuosf3xp4Q531X6nqtpaznRERt9hCvHteQqzXmtwkcJhGxfdgOGQ0RWHdGRAeoR5wWDhOqAlswMhnfVu8c93vX+BcWYlnltBKZdKxs3LyExYXQatvluYhBRBhra9ju/Y+0QsLjismozvsMYjEj7oP5T5DBpQMq3xvJuGJzlf3s0bueItoVnHlFlpZd1PgmlSIsygyY0i9CfsmaK+l2EzmUB06cS4o35ecr4D1wAZzDsZ5MzuHU6OSV/5QDhVSuSWb3QgExK6vue3dPIanpCKJWCZXSEYVIyShWWhCSvMQHvHTiEe8q0GzZpc9pBTgq9dXVmt0bzHaB3qvNladPXu++/rgYI/RHQoHPQbKkLp4UrCkXZo3wjRSo+Qe77ORk4mTFrWZwHdSGHkW3f+CdAw/WV/nY05WiHsiPwDARvmCKzgFeO72OsZc5feI2kiCTDeTO0zGo4reFsJTUSkdbzh2MuIpAHLTclsMIBy1eAPaPeGQ22hqGrzeff4sKeTet8+K/wItZ/M7ZDvJqN4tIhvBszAPGaMx29MAPtJCHXqNeRk04wUOhvES24x6Ij4eTyaThVwuQ0jHBLLikpWXNJDJ5HKFAkiNR6OKSW+00Rsu6LGDXIfDxcGiFAUEctSqLNZ0sUozCk+c7aHUXl2z7h1eRO/kArW47iOZRIV4dVAwUOLPCYJ3ti4OgwhkZKTMpLULYFl3OQCv2WA2m+0eXA3EoUF86PU6fvzxeyf5D3lTkvLwHAAHV98B7ELkXcd+++037dE0WL//3uBWkpQCmcKG7uXT0A9y8riMoRg1kNct1dXdF2JpWhNNwpfb4cqPenIpw3jVBi8gRkhvhhYUkeGLaVts9ojloIBwnZmh/+mGP4/d/Z2NVZop7qcCN9VuKTwI0yz3I6jlJooTbHoTFo4/0he6IY6bz7xfc6X2cvsbro//A9SsIlO8fSA0alyxUQjkYF6AYqMG3aDoRWAhZZMGeernzPq9b775Rnwk3yb3vlS/JX0yvl6K33+niJDBliuTH2ZPyKaIepvI3L3d8dbxcWNoaPLzW30fX7xY19n6SVNTT09PkCM0wCmMkWnXYD0aurGPBcEM2Kiw02+/leWj+2yn+ByfSdBARUDe8tdfrfJ3gRmC0+l0ERzUYu3uaWr6pLWzDsq479bnQ9iZ/A7HIvpGV1dHx7lzDQ1tbZcu9fejhB1JIAYuHAoBa3PDnRvYn0tSQDMxJC6aJmOwXYNHtl/8Tl+S9ozPJOjvajwDMuHBQi6oyvdkgfX7PnTxpUttbQ0N50ga33jnqf81ahd9OIaIMhYgnDLKIJtyykd1N13kldbl42Ls5aCUh53VOlXJxbQk1Mn9n1/RvcN/i67PBnohtxsbq6rqIbmhuYGmOGSYOxQKh1kJAWavgIPgUgFXS+6WfiuGU8Il4GB4vWYz7mO32z1kv9BpEGqmaNPg4PXr3d1CEFc1Nl692jsw8Nm7iPpk0HxxYnvvgFMbEMMQwuzYTXqSwe4Q0c9vAOKOruINwBd8iWEPAoJOANJbpFxy5JmRdRHJVcxvrquMHchvKT7DGeS3qciwKhLRlKzcj2Qp9yEYhzQD9DZiPASEBed2cQnyl4S1AgqtukAuE8uC2vyuqJWIPocRCzbNvDPd14mb7e3tEN6EGqhvAAq8uYVQLfDeUXxQhKPfqVaBv9kMAUyoAWqBy5fb2z+tyBDrTypD5cABuqd0AAAAAElFTkSuQmCC;" vertex="1" parent="1">
          <mxGeometry x="1560" y="-1416.6" width="73.45" height="100" as="geometry" />
        </mxCell>
        <mxCell id="NnDqqMTRhE_hOVfQ4GXK-3" value="&lt;b&gt;&lt;font style=&quot;font-size: 22px;&quot;&gt;抗DDoS流量清洗服务&lt;/font&gt;&lt;/b&gt;" style="image;html=1;image=img/lib/clip_art/networking/Firewall-page1_128x128.png" vertex="1" parent="1">
          <mxGeometry x="1210" y="-1109.25" width="80" height="80" as="geometry" />
        </mxCell>
        <mxCell id="NnDqqMTRhE_hOVfQ4GXK-7" style="edgeStyle=orthogonalEdgeStyle;rounded=0;orthogonalLoop=1;jettySize=auto;html=1;entryX=0.071;entryY=0.499;entryDx=0;entryDy=0;entryPerimeter=0;shape=flexArrow;endArrow=block;endFill=0;startArrow=block;fillColor=#d5e8d4;strokeColor=#82b366;" edge="1" parent="1" source="NnDqqMTRhE_hOVfQ4GXK-3">
          <mxGeometry relative="1" as="geometry">
            <mxPoint x="1458.52" y="-1069.33" as="targetPoint" />
          </mxGeometry>
        </mxCell>
        <mxCell id="NnDqqMTRhE_hOVfQ4GXK-8" value="&lt;b&gt;&lt;font style=&quot;font-size: 22px;&quot;&gt;互联网&lt;/font&gt;&lt;/b&gt;" style="image;aspect=fixed;perimeter=ellipsePerimeter;html=1;align=center;shadow=0;dashed=0;spacingTop=3;image=img/lib/active_directory/internet_cloud.svg;" vertex="1" parent="1">
          <mxGeometry x="1460" y="-1140" width="224.6" height="141.5" as="geometry" />
        </mxCell>
        <mxCell id="NnDqqMTRhE_hOVfQ4GXK-10" value="&lt;span style=&quot;font-size: 22px;&quot;&gt;&lt;b&gt;合作伙伴专线&lt;/b&gt;&lt;/span&gt;" style="image;aspect=fixed;perimeter=ellipsePerimeter;html=1;align=center;shadow=0;dashed=0;spacingTop=3;image=img/lib/active_directory/internet_cloud.svg;" vertex="1" parent="1">
          <mxGeometry x="1880" y="-1139.25" width="224.6" height="141.5" as="geometry" />
        </mxCell>
        <mxCell id="NnDqqMTRhE_hOVfQ4GXK-11" value="&lt;span style=&quot;font-size: 22px;&quot;&gt;&lt;b&gt;集团DCN&lt;/b&gt;&lt;/span&gt;" style="image;aspect=fixed;perimeter=ellipsePerimeter;html=1;align=center;shadow=0;dashed=0;spacingTop=3;image=img/lib/active_directory/internet_cloud.svg;" vertex="1" parent="1">
          <mxGeometry x="2310" y="-1140" width="224.6" height="141.5" as="geometry" />
        </mxCell>
        <mxCell id="NnDqqMTRhE_hOVfQ4GXK-15" style="rounded=0;orthogonalLoop=1;jettySize=auto;html=1;entryX=0.5;entryY=0;entryDx=0;entryDy=0;shape=flexArrow;startArrow=block;fillColor=#d5e8d4;strokeColor=#82b366;" edge="1" parent="1" source="NnDqqMTRhE_hOVfQ4GXK-12" target="NnDqqMTRhE_hOVfQ4GXK-10">
          <mxGeometry relative="1" as="geometry" />
        </mxCell>
        <mxCell id="NnDqqMTRhE_hOVfQ4GXK-12" value="&lt;b&gt;&lt;font style=&quot;font-size: 22px;&quot;&gt;合作伙伴与监管机构&lt;/font&gt;&lt;/b&gt;" style="image;points=[];aspect=fixed;html=1;align=center;shadow=0;dashed=0;image=img/lib/allied_telesis/buildings/Medium_Business_Building.svg;" vertex="1" parent="1">
          <mxGeometry x="1949.45" y="-1421.7" width="85.71" height="110.2" as="geometry" />
        </mxCell>
        <mxCell id="NnDqqMTRhE_hOVfQ4GXK-16" style="rounded=0;orthogonalLoop=1;jettySize=auto;html=1;entryX=0.5;entryY=0;entryDx=0;entryDy=0;shape=flexArrow;startArrow=block;fillColor=#d5e8d4;strokeColor=#82b366;exitX=0.516;exitY=1;exitDx=0;exitDy=0;exitPerimeter=0;" edge="1" parent="1" source="NnDqqMTRhE_hOVfQ4GXK-13" target="NnDqqMTRhE_hOVfQ4GXK-11">
          <mxGeometry relative="1" as="geometry">
            <mxPoint x="2367" y="-1270" as="sourcePoint" />
            <mxPoint x="2250" y="-1119" as="targetPoint" />
          </mxGeometry>
        </mxCell>
        <mxCell id="NnDqqMTRhE_hOVfQ4GXK-20" value="&lt;b&gt;&lt;font style=&quot;font-size: 22px;&quot;&gt;流量编排&lt;/font&gt;&lt;/b&gt;" style="image;points=[];aspect=fixed;html=1;align=center;shadow=0;dashed=0;image=img/lib/allied_telesis/switch/Switch_24_port_L2.svg;" vertex="1" parent="1">
          <mxGeometry x="3830.4700000000003" y="-140" width="131.29" height="90" as="geometry" />
        </mxCell>
        <mxCell id="NnDqqMTRhE_hOVfQ4GXK-22" value="&lt;b&gt;&lt;font style=&quot;font-size: 22px;&quot;&gt;WAF集群&lt;/font&gt;&lt;/b&gt;" style="image;aspect=fixed;html=1;points=[];align=center;fontSize=12;image=img/lib/azure2/networking/Web_Application_Firewall_Policies_WAF.svg;" vertex="1" parent="1">
          <mxGeometry x="4281.8" y="-130" width="81" height="81" as="geometry" />
        </mxCell>
        <mxCell id="NnDqqMTRhE_hOVfQ4GXK-23" value="" style="whiteSpace=wrap;html=1;shape=mxgraph.basic.cloud_callout" vertex="1" parent="1">
          <mxGeometry x="4560" y="-310" width="345" height="230" as="geometry" />
        </mxCell>
        <mxCell id="NnDqqMTRhE_hOVfQ4GXK-27" value="" style="image;html=1;image=img/lib/clip_art/networking/Router_Icon_128x128.png" vertex="1" parent="1">
          <mxGeometry x="3801.76" y="120" width="160" height="160" as="geometry" />
        </mxCell>
        <mxCell id="NnDqqMTRhE_hOVfQ4GXK-28" value="" style="image;points=[];aspect=fixed;html=1;align=center;shadow=0;dashed=0;image=img/lib/allied_telesis/storage/Datacenter_Server_Half_Rack_ToR.svg;" vertex="1" parent="1">
          <mxGeometry x="3050" y="-195" width="131.3" height="170.6" as="geometry" />
        </mxCell>
        <mxCell id="NnDqqMTRhE_hOVfQ4GXK-29" value="" style="image;points=[];aspect=fixed;html=1;align=center;shadow=0;dashed=0;image=img/lib/allied_telesis/storage/Datacenter_Server_Half_Rack_ToR.svg;" vertex="1" parent="1">
          <mxGeometry x="3410" y="-190" width="131.3" height="170.6" as="geometry" />
        </mxCell>
        <mxCell id="NnDqqMTRhE_hOVfQ4GXK-30" value="" style="image;points=[];aspect=fixed;html=1;align=center;shadow=0;dashed=0;image=img/lib/allied_telesis/storage/Datacenter_Server_Half_Rack_ToR.svg;" vertex="1" parent="1">
          <mxGeometry x="3120" y="410" width="131.3" height="170.6" as="geometry" />
        </mxCell>
        <mxCell id="NnDqqMTRhE_hOVfQ4GXK-31" value="" style="image;points=[];aspect=fixed;html=1;align=center;shadow=0;dashed=0;image=img/lib/allied_telesis/storage/Datacenter_Server_Half_Rack_ToR.svg;" vertex="1" parent="1">
          <mxGeometry x="3390" y="410" width="131.3" height="170.6" as="geometry" />
        </mxCell>
        <mxCell id="NnDqqMTRhE_hOVfQ4GXK-32" value="" style="image;points=[];aspect=fixed;html=1;align=center;shadow=0;dashed=0;image=img/lib/allied_telesis/storage/Datacenter_Server_Half_Rack_ToR.svg;" vertex="1" parent="1">
          <mxGeometry x="3730" y="410" width="131.3" height="170.6" as="geometry" />
        </mxCell>
        <mxCell id="NnDqqMTRhE_hOVfQ4GXK-33" value="" style="image;points=[];aspect=fixed;html=1;align=center;shadow=0;dashed=0;image=img/lib/allied_telesis/storage/Datacenter_Server_Half_Rack_ToR.svg;" vertex="1" parent="1">
          <mxGeometry x="4000" y="410" width="131.3" height="170.6" as="geometry" />
        </mxCell>
        <mxCell id="NnDqqMTRhE_hOVfQ4GXK-34" value="" style="image;points=[];aspect=fixed;html=1;align=center;shadow=0;dashed=0;image=img/lib/allied_telesis/storage/Datacenter_Server_Half_Rack_ToR.svg;" vertex="1" parent="1">
          <mxGeometry x="4348.97" y="420" width="131.3" height="170.6" as="geometry" />
        </mxCell>
        <mxCell id="NnDqqMTRhE_hOVfQ4GXK-35" value="" style="image;points=[];aspect=fixed;html=1;align=center;shadow=0;dashed=0;image=img/lib/allied_telesis/storage/Datacenter_Server_Half_Rack_ToR.svg;" vertex="1" parent="1">
          <mxGeometry x="4618.97" y="420" width="131.3" height="170.6" as="geometry" />
        </mxCell>
        <mxCell id="NnDqqMTRhE_hOVfQ4GXK-36" value="" style="verticalLabelPosition=bottom;html=1;verticalAlign=top;strokeWidth=1;align=center;outlineConnect=0;dashed=0;outlineConnect=0;shape=mxgraph.aws3d.dataServer;strokeColor=#5E5E5E;aspect=fixed;" vertex="1" parent="1">
          <mxGeometry x="3237" y="-155" width="123" height="106" as="geometry" />
        </mxCell>
        <mxCell id="NnDqqMTRhE_hOVfQ4GXK-37" value="" style="verticalLabelPosition=bottom;html=1;verticalAlign=top;strokeWidth=1;align=center;outlineConnect=0;dashed=0;outlineConnect=0;shape=mxgraph.aws3d.dataServer;strokeColor=#5E5E5E;aspect=fixed;" vertex="1" parent="1">
          <mxGeometry x="3251.3" y="620" width="123" height="106" as="geometry" />
        </mxCell>
        <mxCell id="NnDqqMTRhE_hOVfQ4GXK-38" value="" style="verticalLabelPosition=bottom;html=1;verticalAlign=top;strokeWidth=1;align=center;outlineConnect=0;dashed=0;outlineConnect=0;shape=mxgraph.aws3d.dataServer;strokeColor=#5E5E5E;aspect=fixed;" vertex="1" parent="1">
          <mxGeometry x="3861.3" y="620" width="123" height="106" as="geometry" />
        </mxCell>
        <mxCell id="NnDqqMTRhE_hOVfQ4GXK-39" value="" style="verticalLabelPosition=bottom;html=1;verticalAlign=top;strokeWidth=1;align=center;outlineConnect=0;dashed=0;outlineConnect=0;shape=mxgraph.aws3d.dataServer;strokeColor=#5E5E5E;aspect=fixed;" vertex="1" parent="1">
          <mxGeometry x="4495.969999999999" y="620" width="123" height="106" as="geometry" />
        </mxCell>
        <mxCell id="NnDqqMTRhE_hOVfQ4GXK-13" value="&lt;b&gt;&lt;font style=&quot;font-size: 22px;&quot;&gt;集团业务&lt;/font&gt;&lt;/b&gt;" style="image;points=[];aspect=fixed;html=1;align=center;shadow=0;dashed=0;image=img/lib/allied_telesis/buildings/School_Building.svg;" vertex="1" parent="1">
          <mxGeometry x="2339.8" y="-1450" width="165" height="166.79999999999998" as="geometry" />
        </mxCell>
        <mxCell id="NnDqqMTRhE_hOVfQ4GXK-40" value="&lt;b&gt;&lt;font style=&quot;font-size: 22px;&quot;&gt;边界防火墙&lt;/font&gt;&lt;/b&gt;" style="image;aspect=fixed;html=1;points=[];align=center;fontSize=12;image=img/lib/azure2/networking/Azure_Firewall_Manager.svg;" vertex="1" parent="1">
          <mxGeometry x="1885.64" y="-550" width="213.33" height="182.86" as="geometry" />
        </mxCell>
        <mxCell id="NnDqqMTRhE_hOVfQ4GXK-41" value="" style="edgeStyle=none;orthogonalLoop=1;jettySize=auto;html=1;rounded=0;dashed=1;dashPattern=8 8;strokeWidth=3;endArrow=none;endFill=0;" edge="1" parent="1">
          <mxGeometry width="80" relative="1" as="geometry">
            <mxPoint x="1010" y="-800" as="sourcePoint" />
            <mxPoint x="2830" y="-790" as="targetPoint" />
            <Array as="points" />
          </mxGeometry>
        </mxCell>
      </root>
    </mxGraphModel>
  </diagram>
</mxfile>
